<svg xmlns="http://www.w3.org/2000/svg" width="615.919" height="538.549" viewBox="0 0 162.962 142.491"><path fill="currentColor" d="M130.557 23.722c.014-.02.03-.033.044-.052zm-99.904 20.2l-.022-.02-.014.015.05.018.004.005-.004-.024-.036-.014zm40.002-25.853l.01.01c-.001-.024 0-.044 0-.07-.015.01-.032.014-.047.022.005.015.01.027.017.038.01.004.023.006.03.01zm72.848 8.217l.102.037.015-.057-.117.02m1.33-3.01c-.542.655-1.488 1.364-1.37 1.722.185.564.222.97.156 1.268 2.256-.375 2.33-1.353 1.214-3M35.398 56.565l.046.023.001-.07-.023.022.023-.023c-.015-.004-.032-.013-.047-.018zm15.83-.805c-.018.004-.032.01-.05.01.004.01.01.018.013.025.004-.003.022-.02.03-.027l-.027.024.066.038a.52.52 0 0 0-.032-.072zm20.2-34.656c-.008-.006-.017-.015-.017-.015.005.022.02.028.034.033l.004.005c-.014-.017-.025-.027-.038-.037zM25.44 57.054c-.013.005-.023.013-.036.018 0 .008 0 .015.001.023zM147.63 27.17c-.01.01-.025.015-.038.025-.003.008-.006.013-.01.023zM42.188 58.28c.008-.008.015-.018.015-.018l-.028-.023-.008.062-.003.005c.014-.015.027-.027.04-.04zm108.208-33.53l-.02.008zm9.383 43.972l-.008.048.04-.014zM88.952 14.487l-.052-.22-.036.044.083.178m65.382 15.528l.027.042zM17.14 38.263c.004.01.006.02.01.03.014.004.025.008.038.013l.014-.065-.06.023m114.457 12.054l.006.027.04.022zM94.083 13.86c-.58-1.852-1.1-2.185-3.24-1.748.4 2.562 2.095 1.183 3.24 1.748m-2.253 1.753c-.496-1.596-1.63-1.5-2.877-1.13.54 2.3 1.714 1.558 2.877 1.13m-.993-3.533l-.044.043.05-.01c-.001-.01-.005-.02-.006-.032m47.207 32.165c-.02.01-.03.02-.037.032zm8.062-16.538l-.037-.017.001.055zM28.565 41.57l.05-.027-.015-.024zm125.996-11.35c.018-.025.032-.052.048-.077l-.1.06a2.61 2.61 0 0 0 .051.017m8.402 78.884l-.2-.096.155.133zM28.6 41.52c-.018 0-.034-.001-.053-.001.005.017.013.034.02.05zm-10.643-6.94l-.76 3.663c.82-.315 1.476-.62 1.625-1.763.128-.98 2.26-.6 3.155.557h-2.716l-.008.83 3 .013c.564.023 1.124.15 1.607.46l-2.808.61.076.64h3.458l-1.238 1.862 1.478.826c.936-1.95 2.42-.79 3.72-.763l-.608-1.72c2.727-1.395 2.727-1.395 2.802-2.505l-3.123 1.562-.26-1.096-3.367-1.592-.414.5c.513.42 1.026 1.2 1.536 1.198 1.822-.01 2.14 1.17 2.48 2.728l-1.878-1.45-5.874-5.02.395 1.08-2.276-.635m1.79-.518l.093.08-.043-.116-.036.027.036-.027-.057-.006.008.043zm67.947 61.007c-.25-1.676.204-3.457.383-5.606-2.817 4.27-.904 7.432 1.395 10.526-.574-1.65-1.526-3.23-1.78-4.92M10.51 64.5l.702-.565-2.81-3.598c-.868.848-2.51-1.614-3.387.835H7.46L8.888 62l-.3.225L10.51 64.5m149.302 4.248c-.01-.015-.02-.032-.027-.047-.006.01.027.047.027.047m.72-4.176l-1.865 2.232 1.116 1.895c2.74-2.36 1.935-2.4.75-4.127M52.655 88.852c.49-.122.948-.343 1.4-.325 1.068.042 1.663-.198 1.322-1.44-.066-.242.138-.557.24-.846-2.332-.042-2.34-.018-2.96 2.61m-7.172-.75c.013 1.522.683 1.59 1.757.83l1.074-.768c-.97-1.376-2.063-1.272-3.217-.523.14.15.385.305.386.46M43.1 17.93l.517.152 1.6-2.51-2.127-.122zm2.153-2.4l-.027.042c.025.003.05.003.075.005.003.003-.036-.036-.044-.044l.047.047c-.01-.015-.018-.03-.025-.047-.01 0-.018-.003-.025-.003zm.748 81.25c-.107.297.394 1.13.734 1.2 1.052.25 1.548-.45 1.77-1.577-.92.09-1.916-1.267-2.504.367M114.12 6.194c-.405 2.344-.166 2.598 2.283 2.288-.503-1.023-.744-2.298-2.283-2.288m3.35 5.84l.01-.005c-.005-.005-.01-.008-.018-.013zm2.938-1.506l-2.93 1.5c1.59 1.22 2.565.882 2.93-1.5m13 56.813c.564 2.242 1.697.868 2.675.612-.857-1.67-2.218-1.417-3.575-1.17.325.18.838.314.9.56m-.957-.546c.02-.004.037-.01.058-.01-.01-.005-.022-.01-.03-.015-.004.003-.014.013-.022.02l.015-.015c-.006-.003-.014-.005-.02-.008-.001.008-.001.018-.003.03zm-76.1 11.72c1.033.588 1.808.04 2.73-1.366H56.29c.01.474-.154 1.244.057 1.366m3.597 3.58l-3.57.593c1.664 1.946 2.07 1.86 3.57-.593M51.143 20.32l.61.17 1.558-2.41h-2.168zm77.34 10.606l.602-1.852-1.903-1.007-.674 1.45 1.975 1.4m4.47 61.394c.083.127.713.062.956-.104 1.2-.843.46-1.602-.207-2.485-1.23.707-1.412 1.577-.75 2.59m4.14-68.27c.136-2.436-.174-2.807-1.78-2.452-.9 1.95 1.085 1.508 1.78 2.452m10.49 3.165c.017-.003.03-.005.046-.005 0-.015-.001-.027 0-.042zm2.434 1.902c-.387-1.88-.675-2.115-2.387-1.907-.034 1.652.938 2.05 2.387 1.907m-64.925 63.71l.49.12c.396-1.532 1.83-2.834.758-4.7l-1.25 4.58M70.667 18.02l2.83-1.308c-2.35-1.065-2.84-.782-2.83 1.308m75.403 9.725c.006.006.01.01.017.02l.018-.055c.003-.004-.034.036-.034.036m1.407 2.575c.743-1.51-.793-1.774-1.4-2.557-.604 1.74-.227 2.422 1.4 2.557M34.294 40.214c.602 1.677 1.168 1.93 2.567 1.163-.753-.598-1.074-2.167-2.567-1.163m61.883 51.67c2.022.754 2.026.757 2.982-.603-1.228-.998-2.1-.33-2.982.603m-25.314-77.18l.948.644 1.455-1.322c-1.374-1.226-1.75-1.088-2.403.678m40.98 73.09c-.03-1.17-.2-2.14-1.628-1.954l-.56 1.582 2.19.372m-1.66-1.95c.013 0 .022 0 .032-.003.005-.015.01-.027.015-.044l.004-.003c-.017.01-.03.02-.047.03-.001.008-.003.013-.004.02zm36.143-61.29l2.033.672-.23-2.1-.5-.25-1.304 1.668m-.853 68.176c.8-1.605-.734-1.894-1.35-2.685-.895 1.582.07 2.193 1.35 2.685M13.265 64c.62 1.374 1.706 1.56 2.996 1.245-.76-.947-1.422-2.113-2.996-1.245m122.19 30.738c-1.165.018-2.227.02-2.172 1.577 1.05.008 2.32.34 2.172-1.577m-2.172 1.622c-.001-.015 0-.03 0-.044-.015 0-.032-.003-.046-.003 0 0 .01.013.02.02l-.02-.02c.004.013.006.027.01.037.013.005.024.008.037.01zm17.053-69.47l2.684-.768c-1.054-.372-.88-2.477-2.61-1.366l1.38.622-1.652 1.116.2.396M38.06 90.206l-2.208-2.1c-.25 2.368-.126 2.493 2.208 2.1m75.634-27.038c.928.354 1.862.514 2.693-.962l-2.808.185c.034.272-.004.733.116.777m47.35 8.24l-3.28.203c1.657 2.09 2.405.61 3.28-.203M89.258 10.805c-.984-1.226-1.965-1.094-3.002-.477.705 1.813 1.86.48 3.002.477m-3.06-.443c.02-.01.04-.023.058-.033-.003-.008-.005-.013-.008-.02-.018.01-.033.022-.047.03l-.004.023zm29.633 60.86l.328.355 2.26-.43.094-.505c-.622-.188-1.248-.52-1.865-.505-.28.006-.545.702-.816 1.084M7.69 39.642l.084.265c-.033.01-.07.02-.103.027zm-.976 7.78c.01-.005.022-.01.03-.015-.02.036-.04.072-.058.11l-.053-.077c.038-.02.08-.038.12-.058a.58.58 0 0 1-.037.042m97.282 23.04l.833-.785-1.85-.786zm-2.14-1.57c-.57 0-1.635-.312-2.228.084-.66.44-.884 1.526-1.296 2.33l.41.215c.315-.482.528-1.127.972-1.402.49-.3 1.188-.255 1.793-.362.164 1.865-.185 2.22-2 2.05-1.39-.13-1.8.075-2.223 1.272 2.097-.637 4.51-.077 5.963-2.125l-1.383-2.062M83.035 30.518l.33 8.897c.02.58.003 1.16.003 1.78 1.276-.044 2.366-.047 2.184 1.61l.453-2.586-.047.047v-.047h.03c.33-.556.807-1.087.9-1.678.055-.35-.573-1.168-.858-1.15-1.758.098-1.625-1.17-2.03-2.575 1.013 1.163 3.272.14 2.702 2.67 1.184-1.446 1.167-1.99.124-2.373-1.705-.626-1.705-.626-2.582-1.937 1.484-.314 2.825-.225 3.57 1.426v-1.85l-3.918-1.074c1.828-2.194 2.83-.687 3.96.486-.375-1.346-1.523-2.62.634-3.33 1.535 1.617-.474 3.498.278 5.18 2.737-1.714 2.752-1.716 3.793.018-.66.335-1.28.833-1.96.94-.686.108-1.433-.173-2.25-.298l-.377 2.565.434.453c.34-3.055 2.146-1.614 3.873-1.602-1.003.623-1.752 1.485-2.473 1.46-1.74-.055-2.113.95-2.38 2.446 1.05-.95 2-2.412 3.27-.5-.767.82-1.614 1.744-3.015.682-.99 2.413-2.492 4.51-2 7.207.476-.442 1.044-1.125.882-1.48-.672-1.49.17-2.195 1.553-3.174l-.443 3.15c.99-.275 1.737-1.036 1.2-2.344-.66-1.62-.196-2.403 1.393-2.566 1.93 1.518.052 2.322-.434 3.57l2.368-1.607-.475-.132.24-3.46.456-.022 1.45 1.868-1.315 1.1.29.4c.636-.468 1.417-.84 1.832-1.457.146-.218-.595-1.04-.945-1.578-.085-.132-.32-.227-.326-.348-.03-.608-.074-1.235.04-1.826.04-.2.523-.317.804-.472.29.54.637 1.058.852 1.625.143.378.1.83.16 1.464.575-.692 1.07-1.072 1.25-1.565.147-.406.056-1.03-.173-1.412-.505-.852-1.163-1.614-1.76-2.4 3.095.427 3.095.427 2.6 2.427 1.37-.088 1.572-.344 1.216-1.518-.32-1.06-1.144-2.115.16-3.373.532.392 1.38.7 1.614 1.278.23.555-.173 1.367-.307 2.142.514-.4 1.06-.684 1.346-1.124.244-.375.378-1.012.23-1.407-.282-.753-.8-1.414-1.29-2.228 2.63-.218 3.082.317 2.214 2.714l1.956-1.372-.556-.264.825-3.227.696-.005.667 2.213 1.04-1.196c-.463-1.03-.833-1.72-1.055-2.458-.046-.15.53-.712.696-.664.646.2 1.242.55 1.868.853l-1.23 1.667c1.606-.314 1.53-1.224 1.558-2.142.052-1.808-1.59-.773-2.206-1.324v-2.425l1.927 2.247.432-.197c-.456-1.032-.88-2.083-1.4-3.086-.09-.174-.79-.264-.825-.197-.917 1.79-2.185.443-3.796.55.926-.825 1.436-1.624 2.086-1.763.598-.127 1.347.458 2.086.752.001-1.403-.956-1.97-1.8-1.706-1.558.484-2.17-.453-3.01-1.405.835-.344 1.692-1.02 2.377-.877.608.127 1.028 1.164 1.53 1.8l.472-.267c-.372-.83-.917-2.412-1.09-2.374-1.73.396-2.24-.967-3.09-1.888.77-.208 1.6-.692 2.264-.523.496.128.78 1.093 1.158 1.686l.427-.18c-.316-.656-.47-1.653-.98-1.894-1.012-.477-1.356-1-.67-2.262-.79.273-1.216.5-1.663.552-.594.07-1.325.223-1.79-.034-1.622-.904-1.96-.787-2.438 1.383 1.234-1.025 2.34-1.027 3.655.49-1.093.203-2.062.697-2.778.453-1.544-.526-1.852-.527-2.464 1.042h3.835c-.832 1.474-1.838 1.9-2.928 1.318-1.734-.9-1.903-.93-3.155 1.336.824-.358 1.364-.786 1.89-.767.593.02 1.17.44 1.847.726-.788.62-1.305 1.657-2.488.816-1.506-1.07-2.175-.867-2.912.73l3.39.377c-1.178 1.38-1.93 1.654-2.915.588-.892-.965-2.238-.5-2.665.578l3.01.788c-2.42 1.567-2.764 1.54-4.248-.18l-2.912 1.83 5.512.5c.237.018.51-.114.73-.237l3.42-1.935c.024 2.306-1.256 2.462-2.992 2.206 2.1 1.264 2.75 1.03 3.493-.68.222-.508 1.013-.77 1.427-1.063 1.492 2.022.263 2.46-1.314 2.737.494.212.8.298 1.105.3.595.005 1.192-.04 1.788-.065-.098-.526-.314-1.064-.262-1.574.044-.45.306-.947.625-1.275.26-.27.745-.32 1.09-.452 1.885 1.694-.432 2.4-.887 3.66.668-.07 1.455-.192 1.583-.552.684-1.895 2.14-1.32 3.45-1.332.2 2.08-.65 2.782-2.6 2.34-.447-.1-.956.084-1.437.138l-.063.49 2.335.867-.585 2.52c-.777-.74-1.795-1.257-1.826-1.826-.112-2.063-.126-2.19-2.125-1.75 1.702 1.97 1.446 1.55-.185 3.465-.55-.965-1.776-1.91-.665-3.253-.333-.25-.632-.602-1.007-.725-.427-.14-.922-.08-1.475-.117.305 1.19 2.283 1.96.87 3.586-1.064-.636-2.775-.876-1.297-2.788.112-.143-.444-1.108-.857-1.276-.564-.227-1.29-.056-1.946-.056 1.667 1.124 1.508 2.2.4 3.395-1.38-.862-1.908-2.003-.866-3.66l-3.056-.322c1.715.82 1.828 1.087 1.254 3.57-.735-.9-2.384-1.017-1.758-2.763.072-.2-.197-.632-.423-.814-.56-.447-3.15.03-3.837.636l.044.027a1.13 1.13 0 0 1-.091.013l.04-.034-1.463-.072v3.288c1.365-1.397 2.657-2.438 4.115-.694-.665.734-1.09 1.85-2.502 1.025-1.037-.608-1.742.055-1.685 1.322m.4 17.332c1.44-2.643 1.78-4.045 0-5.192zm3.55 3.245c1.666 1.7 1.692 3.62.848 5.695-.98 2.405-.7 3.832 1.028 5.18.124-1.097.564-2.23.278-3.135-.45-1.43.056-2.506.64-3.625.752-1.443 1.588-2.84 2.387-4.258-1.615-.923-4.016-.85-5.182.142m2.896 6.5c1.31-1.027 2.462-1.823 3.487-2.757 1.46-1.337 1.42-2.044-.028-3.16-1.18 1.87-3.062 3.32-3.46 5.92M92.197 45c1.397.342 2.916.767 4.465 1.056.474.09 1.025-.174 1.527-.317.872-.25 1.734-.538 2.6-.81l.353.616-1.916 1.774c1.383.352 2.694-2.198 3.793.102 1.206-2.94 1.206-2.94.4-3.915.303 1.592-.353 2.2-1.824 2.04v-1.69h.046l.01-.042c.32.013.764.122.88-.024.42-.542.805-1.15 1.007-1.796.085-.273-.352-1.017-.5-1.002-1 .114-1.967.368-3.155.622 1.974 1.127 2 1.145 1.76 2.2-.02-.003-.038-.004-.056-.004v.046c-.892.013-1.677-.105-1.954-1.192-.074-.29-.44-.692-.687-.7-.288-.013-.592.347-.89.546.208.234.5.432.606.703.187.477.262.998.494 1.956-.877-.488-1.605-.65-1.7-.983-.532-1.91-1.492-1.013-2.292-.667l2.185 1.153-.265.602c-.64-.183-1.37-.225-1.898-.573-1.364-.904-2.204-.793-3 .297m14.663-1.89l-2.526-.618c.307.545.786 1.073 1.38 1.3.66.25 1.423.234 2.142.33l-.08.712h-2.533c.113.9.328 1.574 1.68 1.126.655-.218 1.47.044 2.4.102-1.225 2-2.327.976-3.413.342l-.154.396 1.724 1.333h2.613l.086.777-2.495.463c.286.623.66 1.168 1.738.74.397-.16 1.06.348 1.603.554l-.084.434-1.81.554-.043.455c.583.07 1.187.063 1.74.23.58.17 1.116.51 1.668.776l-.132.508-2.5.364-.053.392c.877.17 1.892.69 2.587.41.587-.235.8-1.394 1.08-1.944l-2.142-1.412.21-.348 1.728-.156.5-2.054c-1.34 1.798-1.463 1.824-3.2.708.78-.32 1.45-.546 2.068-.87.37-.194.884-.513.932-.835.067-.456-.235-.97-.38-1.457l-.39.114-.263 1.774-2.797-1.196c.814-.552 1.308-1.163 1.847-1.205 1.798-.14 1.526-1.18.97-2.435l-.81 1.76-2.308-.607 1.46-1.543-2.323-.59-.08-.47 3.147-1.093.05-.404c-2.143-.672-4.38.062-6.564.086-.315.003-.626.4-.94.613 1.318.02 2.385-.1 2.657 1.884m1.94-5.788c1.68-.268 3.26-.746 4.445-2.073.025.01.03.02.038.033.01-.014.02-.027.027-.04 1.865-.088 2.702-1.633 3.936-2.615l-.13-.523-2.1.263c.654 1.69-1.113 1.934-1.716 2.876-.017.001-.03.004-.048.004-.86-1.296.155-2.003 1.063-2.745-.065-.133-.127-.27-.188-.406l-2.704.364c1.273 1.215 1.2 1.663-.387 2.87-1.25-.762-1.15-1.75-.13-3.157l-4.153 1.05 3.14 1.532-.22.608-2.994-.133c-.552 1.12-1.728 1.482-2.737.62-.948-.81-1.596-.64-2.097.183l2.48 1.03-.293.8-2.465-.76c-.9-.27-1.654-.255-1.794.744l2.52.543-.07.567c-.754.033-1.596.3-2.247.057-1.55-.58-1.832-.523-2.346 1.18 2.642-.424 5.308-.74 7.914-1.322 1.14-.255 2.167-1.02 3.242-1.568.013-.02.034-.028.056-.03l-.02.022c-.015.01-.025.022-.028.024M106.32 13.08c-.005.032-.01.062-.015.095v-.001c.006-.032.01-.06.015-.094m.004-.022c.272-.315.537-1.427-.056-1.913-.118-.33-.336-.622-.547-.9.21.278.43.57.547.9-.006-.004-.01-.01-.015-.014 0 0-.416 1.294-.185 1.894.06.156.157.143.256.033m-.866-3.178c-.306 0-.65.036-1.004.063a24.4 24.4 0 0 0-2.088-.27c-.472-.122-.81-.12-1.058.042.246-.16.585-.164 1.056-.042-.385-.027-.713-.03-.873.025-.556.184-1.296 1.108-.37 1.294s3.513-1.018 3.513-1.018-.07-.01-.18-.03c.354-.03.698-.065 1.004-.065m-8.61 3.54c.485-.887 2.1-1.757.394-2.726-.488-.277-1.37.003-2.02.192-1.157.34-2.036.334-2.224-1.45l-2.43 2.733c.08-.018.15-.03.23-.046L88.77 14.11l.095.202-1.723 2.1c2.157-.198 2.388-.047 2.652 1.683l-1.572.405c1.546.66 1.577.75 1.102 2.36l2.106-1.496-.858-2.472.4-.315c.496.23 1.3.36 1.412.717.147.43-.283 1.052-.46 1.592l.263.142 1.804-2.5-.537-.042-1.037-2.175c1.407-.325 2.576-.452 3.057 1.496l.843-1.496-1.82-2.222 2.615-.382-.263 1.713M87.04 16.6l-2.73 1.945.103.4c1.21-.565 2.436-1.205 3.034.62l-2.625 1.106c2.478.682.752 1.626.406 2.608l3.122-1.944-1.31-4.737m-2.598 3.8l-.975-.37-.34 4.24c2.308-.792.31-2.803 1.315-3.87m40.186 24.03l1.478 1.748c1.092 1.218 2.11 2.54 4.1 1.635.424-.192 1.09.15 1.678.254-.763 1.596-1.81.77-2.785.424l-.217.49 2.708 1.35c.263 1.324 1.328 1.263 2.323 1.324l-.047-.047h.001c.017.008.03.01.044.02.58.45 1.14.918 1.763 1.263.127.07.603-.326.802-.594.48-.64.89-1.332 1.41-2.13 1.494 1.963-.6 2.043-1.27 3.203l2.242-.48.823-3.245c1.744 1.04.84 1.762-.076 2.528 2.116.297 1.687-1.308 2.073-2.01l-2.256-2.068h2.493l.19 1.352.78-1.507-1.955-1.78.33-.564 2.7.782-.165-1.6c1.923.788 2.392-.908 3.188-1.624l-1.785-1.53-1.666.488 2.078 1.074-.08.42-2.01.637c-.416-2.104-.856-2.294-2.1-1.38l1.79 1.42-.402.682c-.686-.283-1.624-.377-2.003-.885-.832-1.113-1.923-1.14-2.8.15l-1.614-.512-.08.268 1.662 1.504c-1.13.6-1.96 1.157-2.22-.592-.056-.378-1.058-.616-1.622-.92l-.157.396 1.586 2.083-.496.57c-.598-.402-1.583-.705-1.72-1.23-.405-1.53-.608-1.73-1.843-1.018l1.597 1.52-.34.5c-.453-.154-.986-.21-1.344-.49-.682-.532-1.168-1.408-1.913-1.737-.634-.28-1.52.01-2.08.036l1.05 1.904-.58.41c-.39-.42-1.068-.804-1.12-1.262-.194-1.715-1.3-1.125-2.173-1.237m15.246 9.508l5.31 1.403c.416-1.423.872-2.667 2.733-1.86-.264.37-.448.84-.79 1.054-.383.236-.9.236-1.372.338.037.17.08.34.118.508.788-.206 2.088-.203 2.274-.655.625-1.53 1.7-1.592 3.025-1.47l-.63 1.446.305.325 2.528-2.35c-1.795.212-1.954-.843-1.94-2.063h-1.46l.985 1.752-.527.395c-.503-.45-1.348-.84-1.443-1.365-.225-1.263-.953-1.087-1.59-1.012l.77 2.127-.342.23c-.565-.667-2.495.057-1.4-2.383l-4.285 2.224.135.385c1.028-.164 2.417-1.344 2.672 1.364-1.125-.354-2.017-.716-2.942-.9-.67-.132-1.39-.025-2.085-.025l-.046.536m8.46-4.214c1.532 0 3.072.06 4.597-.052.29-.022.532-.716.796-1.1-.41.096-.815.234-1.23.283-.61.07-1.483.354-1.8.063-1.078-.985-1.694-.317-2.402.305l.042.5m1.327-2.34c.296-.188.408-1.268.16-1.572-.293-.36-1.072-.325-1.87-.515l.58 1.084c-1.22 1.835-2.148.674-3.095-.29l-.85 1.342 2.615.61-.06.62h-3.297l-1.096 2.135.376.372c2.2-1.244 4.4-2.444 6.54-3.786M112.056 23.11c-2.383.31-2.383.31-1.666 3.26l1.666-3.26m5.272-2.073c-2.497-.926-3.485-.132-3.348 2.184l3.348-2.184m-1.555-4.96c0 .508.324.693.324.693s2.82-2.127 1.617-2.035c0 0-1.94.833-1.94 1.342m.682-7.6zm-35.083 6.782c.044-.915-.268-1.845-.394-2.615-1.437.314-2.465.443-3.42.788-.423.152-.712.722-1.005 1.144-.056.08.146.34.23.518.307-.218.66-.395.913-.664 1.184-1.257 1.635-.018 2.317.442l.025.645-3.198.61-.456 1.765c1.503-.432 2.792-1.525 4.004.06-.69.355-1.432 1.09-2.027.984-2.015-.354-1.994-.47-1.64 2.072l1.334-1.648 2.076.834.036.46c-.592.223-1.187.632-1.772.622-.824-.015-1.696-.236-1.84.856-.234 1.727.726 2.928 2.4 2.916-.394-.585-.826-1.027-1.01-1.555-.28-.802.876-1.447 1.504-.887 1.186 1.056.354 1.865-.477 2.75l1.5 1.002.288-3.41c.213-2.56.486-5.123.612-7.688m-.04-7.8c-1.655 1.772-1.652 1.892 0 2.858zm-4.97 17.837L72.886 26.8c.37-1.865 1.173-2.398 2.512-1.942-1-2.402-3.48.046-5.052-1.91l2.865-.29-1.772-1.535c-.207-.37-.334-.93-.64-1.06-.734-.312-1.578-.606-2.328-.513-.316.04-.467 1.093-.776 1.64-.26.46-.574 1.088-.988 1.207-.376.104-.918-.377-1.494-.653l2.344-2.055c-3.014.538-3.556 1.282-2.426 3.038l-1.4 1.605c-2.097-1.642.567-2.58.305-4.078-2.273 1.628-2.487 1.386-3.39-.108-.4.392-.753.96-1.238 1.136-2.05.746-2.182.995-1.01 3.162l.82-1.955 2.2.692c-.724 1.04-1.154 2.34-2.613 1.48-.01-.008-.554.588-.505.835.14.762.45 1.5.81 2.584l1.027-2.214 2.507.12c-1.012.957-1.8 2.15-2.232 2.03-1.197-.342-1.184.672-1.113.964.176.722.268 1.762 1.614 1.81l-.415-1.843 2.07-.912.302.387c-.42.702-.753 1.475-1.276 2.086-1.013 1.18-1 1.47.663 2.58-.745-1.445-.574-2.373 1.296-2.482-.033.627.15 1.43-.147 1.96-.772 1.37-.768 1.574.934 2.356-.5-1.08-1.08-2.146.58-2.865.112.98 1.445 1.7.047 2.863-.58.488.716 1.68 1.812 1.4-1.493-.806-1.238-1.543.48-2.603l.268 3.555 1.725.3.08-.342-1.286-.807.603-1.66c.64.653 1.653 1.347 1.55 1.633-.565 1.554.406 2.01 1.443 2.55 1.455.754 3.01 1.38 4.3 2.35 1.446 1.08 2.65 2.48 4.186 3.96v-3.382c-1.308 1.4-2.14.86-3.21-.64l3.1.443c-.637-.782-1.973-1.842-2.25-1.614-1.42 1.163-2.03.293-3.004-.913h2.835c-.58-.503-1.682-1.235-1.875-1.044-1.25 1.233-2.082.517-3.34-.744h3.29c-.673-1.67-.673-1.67-3.518-.404l-1.273-1.094c.922-1.414 2.11-.774 3.366-.51-.717-.578-1.795-1.306-2.247-1.028-1.333.82-1.897.014-2.647-.602l.08-.58 3.545.334-2.04-1.81c-1.12 1.666-2.512.672-4.094.396 1.332-1.008 2.458-1.87 4.124-.862-.6-.542-1.215-.884-1.88-1.04-.724-.166-1.5-.156-2.46-.245 1.422-1.835 2.477-.724 3.706-.325-.428-.74-1.21-1.767-1.56-1.636-1.244.463-1.92.074-2.697-1.46l3.274.713c-.118-.24-.192-.76-.462-.9-1.934-1-1.08-2.143-.227-3.427.906.8 1.99 1.37 1.118 2.888-.166.29.386.993.64 1.523.006-.005.014-.01.022-.013 0 .022.001.038.001.06l-.03-.033c-.317 1.2.34 1.84 1.306 2.3l.957 2.248.428-.21c-.74-2.14-.434-2.576 1.798-2.375-.13.677-.034 1.718-.427 1.954-1.93 1.168-.5 1.902.234 2.812-.328-1.36-.283-2.485 1.385-2.757l.282 1.8c-.446.606-1.197 1.306-1.078 1.522.3.54.938.894 1.47 1.306-.498-1.233-.203-2.196 1.017-2.846l-.486-2.63 3.052 1.03v-1.67c-1.29.218-2.688.716-2.996-1.233l1.953-.736 1.258 1.934c.565-2.292-1.23-2.41-1.854-3.006l-3.388 1.718c-.052-1.866-.052-1.866 2.248-2.195l-1.22-1m-12.513 13.07c-.405-.06-1.235.3-1.273.556-.32 2.167-1.59 1.655-2.934 1.183l.715-1.408 1.788-.216-.038-.513c-.672 0-1.376-.12-2.008.042-.446.112-.853.556-1.176.936-.44.523-.786 1.127-1.173 1.695l-.72-.466 1.315-2.232-3.215.94c.703.918 2.37 1.342 1.187 2.78-1.466.11-1.983-.667-1.725-2.165-1.38.608-1.22 1.44-.557 2.185.6.672 1.39 1.173 2.238 1.864.25-.254.77-.722 1.21-1.256.372-.448.556-1.14 1.01-1.4.297-.173.924.246 1.407.382.62.175 1.4.65 1.846.438 1.5-.703 2.863-1.655 4.343-2.55-.774-.29-1.487-.68-2.24-.793m-3.438 3.9s-.993-.507-1.503-.023-.44 1.41-.44 1.41zm-6.965 1.195L53.26 41.6l-.434-.128c-.248.575-.64 1.14-.677 1.73-.018.292.61.87.974.892 1.468.086 1.252.966 1.138 2.066-.774-.08-1.586.047-2.07-.29-.348-.245-.26-1.113-.366-1.702-.42.547-.527 1.118-.772 1.622-.55 1.138.062 1.31.98 1.295 1.85-.032 1.85-.032 1.377 2.2l-2.552-1.577-.292 1.367 1.138.527-.413 2.534-1.953-2.29.595-1.393-3.108 2.283-.314-.35c.198-.283.595-.588.564-.843-.154-1.26.242-1.44 1.48-1.28.644.084 1.77-.523 1.476-1.574l-2.992.603-.204-.647c.602-.288 1.22-.85 1.8-.81 1.503.1 1.96-.62 2.054-2.314-.608.555-.93 1.004-1.366 1.196-.404.18-.93.102-1.4.07-.053-.004-.19-.57-.09-.665.306-.288.712-.664 1.08-.664 1.57-.003 2.057-.296 2.755-2.292-1.097.804-1.755 2.36-3.347.863l4.172-1.878-.382-.792-6.64 3.467c-.256.143-.194.858-.274 1.317-.336.232-.838.42-.91.716-.142.6.212 1.366-.046 1.848-.777 1.455-.406 2.426 1.032 2.952 1.164.424.758.98.203 1.99l-1.732-2.303c-.548 1.94.617 4.113-.926 5.87l-.64-.565c-.8-.713-1.483-1.32.06-2.097.444-.226.53-1.27.665-1.96.11-.543-.01-1.13.07-1.686.218-1.602.482-3.2.73-4.8-1.48.917-2.735 1.782-4.07 2.496-1.762.936-1.747.844-.45 2.186.402.415.533 1.108.727 1.694.03.094-.362.444-.396.424-.5-.317-.997-.63-1.402-1.038-.268-.27-.378-.697-.656-1.242l-.683 1.7c.5.325 1.135.543 1.412.992.31.5.342 1.21.355 1.83.003.09-.992.406-1.136.253-.314-.335-.425-.895-.524-1.38-.062-.29.053-.62.133-1.343-1.173 1.346-1.22 2.224-.215 3.223.574.57.927 1.362 1.38 2.054l-.72.5-2.068-2.6v2.644c-.146-.057-.35-.16-.38-.123-.678.87-.183 2.406.772 2.803.71.296 1.327.82 1.984 1.243l-.248.518-3.16-.975 1.028 1.493.046-.046c.008.027.018.047.025.07-.013-.005-.025-.008-.036-.013-.096.5-.363 1.313-.213 1.4 1.21.705.757 1.743.733 2.695l-1.085-.41-.163.32 1.355.947.917-1.766.552.273c-.245.53-.656 1.05-.692 1.597s.296 1.125.57 2.025l.726-3.198.58-.038c.102.67.534 1.617.246 1.964-1.31 1.573.103 2.055.613 2.647l.646-2.898c.873.858 1.55 1.565.64 2.617-.236.273.104 1.04.215 1.837l1.212-2.773.504.095v3.73l1.324-.072-.355-3.33.72-.157.686 2.36c.127.44.116 1.082.404 1.27.273.182.854-.112.848-.112l-.333-2.817c2.11.194 1.102 1.833 1.62 2.968l1.63-1.1-1.984-2.25.585-.55c.503.49 1.16.9 1.47 1.5.64 1.215.565 1.254 1.45.24l-2.956-3.19c-1.93 1.3-2.662 1.263-3.66-.223l2.982-.694-1-1.386c-1.4.766-2.86 1.616-4.473-.312l3.642-.61c-.155-.56-.736-1.57-1.692-.82-1.52 1.192-1.94.21-2.482-1.16l3.24.48c-.8-.84-.744-2.438-1.988-1.59-1.234.843-1.857.28-2.657-.24.663-1.998 1.958-.767 3.206-.55l-.81-1.912c.345-.338.73-.645 1.01-1.03.383-.53.672-1.126 1.102-1.87.753 1.543.72 1.928-.024 2.575-1.243 1.08-1.243 1.08-.447 1.914l2.638-1.652v1.713l-1.657.735 1.007 2.276 1.812-3.077c1.39 1.31.56 2.212-.15 2.628-1.465.863-.992 1.562-.4 2.206l2.147-2.35.5.287-1.226 2.86-.493-.053.95 1.61c-.482-1.918 1.188-2.02 2.01-2.724l.397.19L50 67.533l-.505-.085.67.943 3.183-2.11c.283 1.685-.204 2.187-2.1 2.45.542 1.31 1.313 1.83 2.67.923.413-.277 1.014-.27 1.526-.404l4.396-1.15-1.576-1.15.032.504-4.024.68-.24-.793 3.433-1.37c-.56-.29-1.553-.905-1.616-.82-1.155 1.53-2.22.357-3.644-.055.768-.442 1.275-.918 1.84-1.005.53-.084 1.124.24 1.713.396-.108-1.306-1.353-2.553-1.72-2.006-.846 1.264-1.772.664-2.698.48l1.072-1.357 2.397.382c-.604-.842-.87-1.59-1.31-1.713-.394-.107-.976.48-1.526.79l-1.374-.72c.61-2.002 2.092-.226 3.16-.984-.68-.505-1.807-1.287-2.107-1.044-1.226.986-1.772.09-2.554-.476 1.01-1.108 1.01-1.108 3.156.196l-1-2.212 2.156 1.29.592 1.833 1.454-.746c-1.143 1.116-.957 2.133-.244 3.04l1.912-1.692c.208 1.268.366 2.11-.943 2.314-.16.025-.38.898-.244 1.254.183.484.682.85.917 1.12l1.416-2.57c1.793 1.68.283 2.664-.32 3.644l2.045 1.91c-.642-1.54-.353-2.553 1.442-3.022l-.726 3.706 5.76.428c.41-3.018-3.306-2.933-4.344-5.015 1.866-1.046 1.954 1 3.057 1.7-.187-.96-.19-1.75-.515-2.374-.208-.396-1.15-.885-1.328-.753-1.964 1.46-1.864-.602-2.625-1.15l.21-.5 3.717 1.113-1.294-2.82c-1.344 1.4-2.273 1.007-3.124.05 1.1-2.5 2.322.138 3.603-.387-.574-.65-1.358-1.55-1.923-1.426-1.398.3-2.1-.182-2.915-1.7L63 56c-.34-.614-.56-1.493-.9-1.537-2.39-.3-1.464-1.813-1.1-3.16.705.79 1.108 1.728 1.63 2.6.42.7.967 1.323 1.463 1.978.01 0 .02 0 .027.003.004.015.004.027.008.04.001 0-.033-.033-.04-.04l-.005-.005.213 2.547.557.196c-.164-2.038 1.216-2 2.435-2.196-.447 1.532-.475 1.47-1.9 2.175-.345.17-.58.88-.58 1.343.001.507.333 1.013.608 1.762.556-2.143.556-2.143 2.702-2.1-.463.618-.992 1.178-1.617 1.59-1.1.72-1.276 2.063-.15 2.873-.297-2.063 1.042-2.316 2.85-2.43-.5.8-.752 1.766-1.322 2.02-1.868.826-2.012.94-1.098 3.234-.01-2.246 1.343-2.328 2.85-2.242l-.86 2.047-1.247-.315-.375.296c.352.514.613 1.364 1.07 1.485 2.107.564 4.268.926 6.373 1.35-.13-1.69-.122-1.654-1.827-1.325-.33.063-.832-.194-1.093-.462-.34-.347-.52-.852-.767-1.285 1.118-1.358 2.24-.283 3.463.79l-.396-2.96-1.724.713-2.397-1.577c.635-.347 1.24-.962 1.758-.895.757.094 1.45.68 2.185 1.06-.077-.48-.034-1.06-.277-1.47-.198-.34-.72-.642-1.124-.67-.844-.06-1.702.072-2.798.14 1.275-2.008 1.275-2.008 3.757-.715l-1.107-2.537c-1.423 1.548-2.427.645-3.433-.24l.04-.493h3.37l-1.83-1.572c-1.56 2.167-2.125-.226-3.174-.58l.123-.66 3.273.49c-.892-2.185-4.372-2.007-4.6-4.927l1.855.503c.008.008.014.013.02.02.472.08.93.173 1.367.26.14 2.422.176 2.487 1.8 3.067l-.533-2.394 6.983-5.403c-1.426-1.76-1.592-1.87-2.567-1.576 1.37 1.15 1.364 1.173-.744 2.995l-.507-3.122-1.523.694c1.52 1.78 1.503 2.048-.396 3.19l-.456-3.783c-.37 1.01-1 1.887-.77 2.24.975 1.56-.024 2.196-1.4 3.335l.2-3.74c-1.57.684-1.668.856-.87 2.36.466.88.152 1.414-.57 1.87-.02-.006-.027-.008-.034-.01l-1.145-1.225.46-1.143-.24-.116-2.194 2.59.316-1.55c-1.338 1.125-2.318.687-3.154-.538l2.092-1.038 1.364 1.285 1.432-2.1-.23-.34c-1.418 1.513-2.278.223-3.382-.362.698-.236 1.24-.526 1.803-.58s1.253-.047 1.705.23c1.182.726 1.677.642 2.288-.375l-3.654-.705c1.72-1.046 3.04-1.287 4.38-.11.244.216.89.154 1.264.003 1.033-.416 2.02-.947 3.12-1.48-.394-.684-1.276-1.295-1.788-.518-1.063 1.612-2.222.877-3.42.59.534-1.788 1.942-1.603 3.388-1.57l-4.153-2.18.844 2.468-1.725 1.06-.477-.2.834-3.278-2.28 1.14c1.055 1.59 1.715 3.048-.9 3.673v-3.165l-1.155.335c-.63 1.22 1.71 2.84-.61 3.633l-1.177-1.464 1.054-1.376-.377-.355-1.14 2.04-.474-.427c.062 1.193 2.5 2.13.423 3.512l-1.333-1.145.663-1.692c-1.59 1.46-1.808 2.55-.683 2.968 1.376.512.873 1.138.363 2.072l-1.925-2.055c-.187.947-.2 1.572.81 2.07.527.26.802 1.028 1.192 1.565l-.515.386-2.38-2.34c.136.787.117 1.78.348 1.842 1.918.513.68 1.88 1.343 3.137l-3.452-1.716 1.72-3.28-3.45 1.702c.777-2.744 1.033-2.897 2.983-2.007l.863-1.855-3.102.286c.408-1.37.892-2.177 2.237-1.496 1.323.67 1.497.55 1.725-1.078-2.17 1.51-3.08-1.738-4.945-1.145m-.98-5.733c-1.02-.96-1.786-1.803-2.69-2.457-.3-.218-1.292-.1-1.393.124-.644 1.426-1.75.87-2.807.885.225-1.69 1.395-1.56 2.578-1.506-.894-.41-1.574-1.634-2.698-.463-.705.734-1.45 1.426-2.18 2.138-.345-.796-.565-1.642-.302-1.835.68-.503 1.572-.72 2.644-1.163l-2.314-.7c-.545 1.78-1.892 1.304-3.093 1.286.06-1.9 1.54-1.284 2.744-1.374-.877-.865-1.485-1.946-2.604-.646-.537.622-1.058 1.26-1.617 1.934-1.318-2.026.926-1.94 1.403-2.82l-.303-.442-2.43.796c0 .872.192 1.567-.036 2.067-.614 1.336-.137 2.15.97 2.8l.12 2.253c.644-1.615 1.645-1.96 3.677-1.2-1.088.656-1.912 1.04-2.592 1.602-.51.42-.834 1.063-1.243 1.607l.377.585c.726-1.74 1.612-1.626 2.8-.468-.548.33-1.017.856-1.403.8-1.61-.227-2.036.595-1.88 1.928.08.665.353 1.824.626 1.85.758.074 1.704-.145 2.304-.604.548-.416 1.19-1.725 1.017-1.91-1.17-1.243.01-1.932.41-2.873 1.624.917 1.093 1.87.07 2.855 1.596-.184 2.336-1.055 1.638-1.927-.964-1.206-.548-1.99.41-2.747l1.228 1.503-.88 1.535c.063.088.126.18.187.267l2.086-1.365-1.118-1.38.767-1.48c1.75.347 1.206 1.592.763 3.166l1.984-1.468-1.28-2.618.272-.25 2.502 1.23-.947 1.267.2.25 2.03-1.018M37.123 47.95l-.248-.357-7.016 1.647-.32.537 1.88.787c-1.75 1.74-1.85-.184-2.533-.573-.27.512-.42 1.004-.73 1.347-.696.76-.463 1.38.07 2.1.44.585.763 1.258 1.21 2.017-2.375.142-1.96-1.587-2.206-3.246l-1.22 2.313 2.567 2.41-.38.513-2.874-1.874.083 1.508c-1.578.664-.903 1.794-.556 2.855 0 0 .04-.033.046-.04.005.01.01.022.017.032l-.032.004c-.083.242-.278.573-.2.683.584.744.877 1.53.216 2.31-.862 1.017-.07 1.13.636 1.47l.302-2.253c1.454.44 1.767 1.235.96 2.313-.6.79-.828 1.53.133 1.956l1.454-3.08c.64 1.34 1.47 2.64-.508 3.296-.14.044-.053.786-.072 1.2l.377.07 2.3-2.482c.09 1.42.268 2.565-1.16 3.372-.76.43-.68 1.344.136 1.69l2.137-3.1c.815 1.818-.328 2.7-1.61 3.736l3.335.434-1.188-3.048 4.55-.253c-.626-.387-1.356-1.228-1.982-1.154-1.888.223-1.873.36-3.136-.934l3.156.273c-.462-.642-1.16-1.287-1.8-1.244-1.545.104-1.535.236-2.273-1.257l2.64.322.146-.253-1.562-.927c-.31-1.904 1.7-1.237 2.48-2.026l-.447-1.287c-1.643 1.532-1.643 1.532-3.246.627 1.025-.5 1.892-.83 2.648-1.33.392-.26.585-.818.95-1.364l-2.8.964-.278-.498c.532-.466 1.06-1.322 1.596-1.327 1.69-.02 1.636-.976 1.59-1.894l-2.792 1.343c-.18-1.666.406-2.085 1.655-2.036 1.484.055 1.657-1.046 1.88-2.212-1.317-.038-.946 2.345-2.562 1.39.414-2.36.952-2.778 2.618-1.813l.955-1.826-2.677.744c.53-1.092.67-2.044 2.052-1.565.383.127 1.077-.647 1.628-1.007m-11.31 4.186c.693.184 3.444-2.614 3.166-3.005 0 0-3.952-.07-4.252.347s.392 2.472 1.085 2.658M33.812 69.7c.194.476.29 1.497.777 1.743 1.765.9 3.698 1.18 5.72.72-.814-.58-1.836-1.257-2.557-1.018-1.21.4-1.78-.142-2.755-.896l2.676-.213c-.176-.87-.547-1.342-1.536-.975-.673.25-1.39.388-2.325.64m.357 2.757l1.023 3.24 2.1.697 1.157-1.28c-1.204.05-2.327.5-2.544-1.65.965.273 1.75.57 2.562.697.565.086 1.168-.065 1.755-.11l-.03-.672-6.023-.923M37 77.95l-1.272 2.036c1.54 1.912 1.56 2.224.098 3.402l-.675-2.3-1.075 3.082c1.445.166 2.62.32 3.536-.932 1.23-1.676 2.544-3.3 3.913-4.867 1.332-1.53 2.778-2.958 4.17-4.428l-4.04-.642c.085.642.004 1.22.24 1.592.782 1.212.16 1.815-1.164 2.638l.3-3.18c-1.413.548-1.563.945-1.082 2.34.234.68.198 1.454.288 2.21-1.92-.258-1.506-1.4-1.59-2.505-.41.614-.58 1.262-.62 1.914-.057.885-.014 1.777-.014 2.666l-.788.008L37 77.95m13.363-5.65l.133.494c.354.213.687.494 1.07.625 1.395.476 3.246-.63 3.357-2.026.014-.164-.543-.575-.72-.517-1.297.424-2.566.938-3.84 1.424m25.112-8.314l-.005-.005c-.01-.008-.04-.037-.037-.034l-.004-.004-.197 2.465 2.347-1.215.4.53c-.338.512-.574 1.173-1.04 1.496-.505.347-1.71-.142-1.148 1.25.27.668.344 1.414.51 2.125.518-1.926.518-1.926 2.273-2.924-.102.762-.193 1.595-.63 2.165-1.122 1.46-.88 2.2 1.117 2.638.06-.44.165-.88.175-1.327l.244-11.55c.01-.36.254-.713.274-1.08.136-2.693.406-5.396.277-8.078-.048-.99-1.066-1.93-1.642-2.895l-.688.325 1.11 4.195c.607 2.04.5 2.973-.188 3.588l-1.76-7.304-.835.173 1.705 7.313-.494.132L75 49.5c-1.258 1.366-.618 2.655-.693 3.92l-1.343-2.47c-.316 1.207-.54 2.24-.873 3.236-.117.348-.795.736-.73.88.234.496.68.894 1.044 1.33.07-2.21 1.838-1.465 2.837-2.273-.185 1.626-.45 2.77-2.543 2.392l.716 1.89 2.313-1.77.508.456c-.357.576-.598 1.498-1.092 1.666-1.422.48-1.268 1.22-.804 2.063l3.086-2.034c.053 2.32-.105 2.464-2.213 2.55-.193.008-.564.406-.53.53.202.712.5 1.397.767 2.088zm4.96-27.452c.434-2.755-.074-3.457-2.567-3.452l.578 1.75-1.56 1.16 1.34 1.964c-.19-2.147-.19-2.147 1.605-3.416-.187 1.148-.18 1.967-.467 2.664-.455 1.11.185 1.508.764 2.195.12-1.162.174-2.02.307-2.865M17.4 46.374l.18-.47 1.404-.413 1.07 1.348.528-.385c-.555-.655-.993-1.522-1.696-1.907-.697-.383-1.66-.278-2.526-.4l-1.7 2.803 5.943 1.212.102-.515-3.314-1.285M18.99 43.5c-.485-.515-1.16-.758-1.84-.976s-1.37-.414-2.03-.61l-1.46 2.407.405.674c.806-.53 1.482-1.204 2.286-1.443.813-.24 1.753-.05 2.638-.05m1.672 28.932s.74-.65-.333-.61c0 0-.964.09-1.186.868s-.592 1.24-.664 1.314 2.182-1.573 2.182-1.573m24.396 15.235zm31.66 47.098c1.846-1.62 2.04-4.845.343-6.85-.185.268-.432.49-.513.757-.57 1.884.546 3.997-.777 5.8-.066.086.16.557.277.567.213.023.493-.116.67-.274m-3.697 2.01c2.102-.658 2.87-2.672 2.28-6.17-1.294 2.082-2.642 3.77-2.28 6.17m-.985-8.176c-1.713.444-1.8.978-.512 2.723l.512-2.723m14.54.38c-.192.338-.622.773-.53.992.377.908.776 1.97 2.655 1.238l-2.124-2.23m5.9.613c.595 1.902 1.87 2.472 3.623 2.557-.5-1.99-2.11-2.052-3.623-2.557m6.21.383l3.614.518.166-.6-3.65-.697-.132.77m22.258-41.862c.357.78.58 1.673 1.108 2.306.444.53 1.245.76 1.892 1.12l-.316.68-2.274-.713c-.024.122-.21.612-.113.68.95.65 1.95 1.225 2.905 1.805 1.125-1.215.972-2.23-.263-3.333-.905-.81-1.558-1.897-2.322-2.862l-.617.317m39.66-24.848c-1.515 1.53-1.578 1.532-3.094.178-.727-.653-1.174-.404-2.26 1.165l2.99.322c-1.497 1.443-2.173 1.4-3.825.037l-1.125.856 2.713 1.168c-1.977 1.08-2.64.818-2.958-1.044l-1.72 1.892 2.868.508c-1.445 1.168-2.388 1.292-3.207-.163l-1.824 1.423 3.664.696-2.26 1.252c-2.196-1.768-2.24-1.77-3.208-.265l2.55.4-.062.608c-.85.216-1.652 1.247-2.606-.165-.14-.207-1.284.264-1.874.4l2.233 1.498c-.237.253-.583.764-.692.716-.763-.322-1.474-.764-2.203-1.165l.075-.47-2.005 1.413 2.99.694-.053.526c-.98.275-1.964 1.192-2.916-.307-.123-.2-.752-.29-.98-.15-1.55.934-3.053 1.94-4.517 3.298 2.02-.22 4.06-.32 6.047-.707 1.433-.278 2.823-.873 4.167-1.468.406-.18.9-.9.835-1.272-.223-1.36.686-1.602 1.503-1.998l.5.255-.97 2.133c.834-.114.834-.114 2.38-4.108l1.497 2.422.358-3.387.696-.17.926 2.5.833-.773-.74-2.785.736-.28 1.12 1.99c1.088-.406 1.065-.526.183-1.61-.355-.438-.312-1.2-.466-1.88 1.93-.42 1.92.546 1.47 1.815l1.388-.5-.08.5 2.648-.45c-.338 1.527-.785 1.827-2.1 1.518-.847-.197-1.447-.132-2.035.74-.54.805-1.517 1.315-2.328 1.978l3.082.424c-1.174.895-1.885 1.376-3.02.48-.443-.35-1.534.12-2.33.216l.083.484 2.558.427-.017.538c-.804 0-1.753.278-2.377-.055-1.567-.835-2.45.372-3.57.937 2.787-.4 5.86.882 8.294-1.65.482-.503 1.497-.494 2.528-.8-.475 1.584-.945 2.562-2.57 2.407-.68-.062-1.394.255-2.11.404l2.347 1.733c-1.385.434-2.582.764-2.85-1.044-.044-.295-1.162-.432-1.946-.333l1.856 1.686h-2.582V77.43l-2.256-.385-.13.364 2.135 1.4c-1.257.868-2.354.768-2.647-.315-.388-1.433-1.346-.986-2.322-.957l1.93 1.356-.105.322h-2.008c-.55-1.664-.55-1.664-3.338-.846l3.08 1.15-.155.595c-1.01.188-1.944.76-2.845-.73-.363-.598-1.685-.612-2.57-.892l-.155.44 2.57 1.188c-2.16.754-2.16.754-3.333-1.197l-2.2.182-.176.382c1.285.61 2.53 1.337 3.87 1.8 1.22.41 2.53 1.11 3.778-.226.275-.297 1.14-.044 1.743-.044-.222 1.706-1.51.606-2.283.918 1.583 1.044 1.568 1.03 2.96-.263.24-.223.673-.24 1.017-.354l.937-.322c.373 1.946-1.117 1.545-2.107 1.738 1.047 1.225 1.752 1.16 2.576-.067.424-.63 1.013-1.15 1.642-1.85 1.157 2.21-.78 1.917-1.56 2.516 1.946.513 2.106.305 2.59-1.52.154-.578 1.097-.942 1.673-1.4 1.296 1.592-.644 1.65-1.106 2.502.317.424 1.454.93-.207 1.32 1.08.868 2.432 1.342 1.424 3.397-.606-.93-1.03-1.636-1.5-2.3-.328-.456-.73-.856-1.098-1.28l-.4.305 1.358 2.677c-2.397-.03-2.42-.065-1.897-2.66l-2.407-.328 1.64 2.482-.31.33-2.102-.752c.427-2.162.3-2.33-2.12-2.688.79.978 2.366 1.714.762 3.148-.72-.653-1.72-1.074-1.093-2.464.103-.23-.835-.926-1.492-1.614l.548 3.36c-1.235-.716-2.24-.687-1.5-2.28.555-1.192-1.004-1.254-2.062-1.243l1.414 1.178-1.7 1.587c-.274-1.044-1.395-1.758-.3-2.817l-1.607-1.426-.51.333c1.22.8 1.713 1.597.022 2.512-.212-.468-.727-1.1-.58-1.37 1.135-2.097-.635-2.05-1.947-2.346l1.266 1.473-.612 1.545-.587.008c-.112-.78-.174-1.577-.353-2.344-.094-.4-.324-.967-.622-1.07-.475-.16-1.06.005-1.506.027L136 81.938c-1.052-.32-2.575.018-2.363-1.714.022-.176-.38-.57-.608-.6-1.418-.124-2.845-.17-4.268-.245l-.11.474 4.537 1.408c-1.845 1.506-2.64.034-3.672-.677.306 1.988.875 2.39 2.7 2.066.16-.027.335-.057.486-.018.504.138 1.003.305 1.504.46l.024.5-3.074.24c.7 1.772 1.13 1.84 2.684.746.53-.375 1.42-.242 2.146-.343l.184.788-3.07.927c1.19.283 2.134 1.31 3.14-.184.197-.29 1.026-.208 1.558-.185.118.005.216.49.322.752-.476.17-.947.36-1.43.5-.2.062-.427.042-.64.218.847.146 1.62 1.673 2.582-.096.263-.484 1.037-.69 1.705-1.1.253 1.38-.13 2.02-1.59 1.788l.08.494c.588 0 1.333.23 1.73-.05.7-.484 1.184-1.275 1.85-2.045.865 1.805-.25 2.068-1.267 2.584h1.826l1.624-2.61c1.134 1.483.87 2.138-.847 3.005l1.55.117 1.432-2.363.46.01.547 1.7-1.785.778.06.36 1.9.292-.02.242h-.957l1.704 2.562-2.195-.424c-.12-2.346-.48-2.7-2.3-2.294l.02-.037-2.04-.328 1.09 1.77-.283.292-2.172-.573c.01-.018.022-.032.03-.05-.01-.003-.017-.008-.024-.01l.603-1.416-7.93-2.57c.772 1.564 1.5 2.34 3.123 1.94.686-.166 1.536.343 2.31.54l-.2.746-3.503-.66 2.77 1.914c.804-1.62 1.832-.882 2.827-.496-.008.018-.017.037-.024.057-.52 1.056-1.343 1.173-2.39.744.928.647 1.61 2.097 3.056.575.29-.302 1.17-.042 1.79-.042-.314 1.468-1.268 1.4-2.443 1.126 1.146.34 1.728 2.14 3.3.892.273-.216 1.13.307 1.718.49-.44 1.465-.44 1.465-3.215.396.18.515.44.952.456 1.4.017.41-.226.83-.375 1.317-1.113-.8-1.113-.8-.938-3.18l-1.588-.538c.14 1.197 1.445 2.512-.547 3.135l-.668-1.285c1.02-2.125.957-2.417-.764-2.724.556 1.08.493 1.897-1.196 2.088.156-.8.24-1.517.44-2.2.34-1.158-.476-1.306-1.038-1.63l-.353 3-1.3-1.748c1.21-1.548 1.2-1.87-.278-3.135-.606-.52-1.244-1-1.87-1.498v1.353l-2.093.63 1.7-3.005-.707-1.416-.353.052c0 .538.216 1.337-.05 1.56-.416.35-1.16.315-2.318.557.434-.927.545-1.584.93-1.912 1.4-1.188 1.432-1.173-.273-2.406.19 1.408-.22 2.354-2.253 2.42.433-.85.62-1.67 1.134-2.14 1.113-1.025 1.138-1.334-.462-2.448.457 1.555-.305 2.1-2.133 2.217.542-.915 1.02-1.56 1.318-2.28.194-.47.335-1.153.132-1.558-.23-.463-.868-.726-1.384-1.118v3.377c-1.2-.853-1.578-1.397-.978-2.403.155-.263-.286-1.244-.645-1.38-1.172-.44-2.432-.637-3.985-.677.37.362.682.905 1.122 1.046.796.258 1.67.278 2.51.396l-.042.716h-3.002c0 .08-.062.6.05 1.056.024.096.715-.032 1.063.067.787.223 1.554.528 2.327.8l-.25.866-2.977-.677c-.11.75-.267 1.543 1.347 1.652.75.052 1.452.804 2.448 1.402-1.683.325-2.996.68-3.618-1.212-.046 1.832.55 2.388 2.066 2.373.834-.005 1.67.185 2.507.288l-.025.606h-2.886c.242 1.295.778 1.493 2.144 1.215.733-.15 1.596.335 2.375.528-.8 2.195-1.878 1.04-2.93.18l-.226.372c.468.432 1.06.79 1.38 1.314.613 1.007.876.645 1.584.02.406-.357 1.457.015 2.273.06-.27 2.417-1.765.86-2.576.952l1.554 1.654 2.6-1.17c.095 1.78-1.033 1.768-2.205 1.735.873.838 1.55 1.7 2.368.17.176-.328.858-.382 1.31-.562.514 1.376.446 1.488-1.705 2.068l2.557.687c.056.2.083.5.2.53 1.308.41 2.63.768 3.928 1.134-.273.33-1.508.796-.465 1.912l-1.904-1.99-.43.138c.316 1.025 1.284 2.232-.87 2.755l-.183-2.926.444-.164-1.836-.994c.567 1.05.835 1.922-.57 2.552-.585-.637-1.198-1.098-.43-2.144.206-.278-.58-1.287-1.2-1.878.256 1.2.924 2.36-.98 2.713-.536-.997-1.068-1.93.536-2.625l-1.375-.926-.722 2.516-.503-.13c-.25-.8-1.055-1.673.378-2.245l-1.544-2.308v3.25l-.44.086-.938-1.16c-1.198.7-2.185.523-2.943-.793.288 1.13-.355 2.95 1.947 2.097.343-.127 1.017.65 1.537 1.01l-.065.536c-.55.107-1.146.4-1.644.27s-.9-.642-1.54-1.143c.32 1.967.32 1.894 1.935 1.9.612.003 1.224.414 1.835.64-.16.234-.267.554-.486.68-.665.382-1.353 1.054-2.1.11-.157-.196-.373-.344-.65-.595.137 2.076.14 2.014 1.887 1.808.598-.07 1.25.34 1.878.528l-.093.556-2.962-.208.95 1.454-.873-.46-2.737 1.42-.297-.343c.49-.55.887-1.403 1.49-1.587 1.334-.414.727-.984.358-1.78l-1 1.264-2.068-.375-.166-.352 2.975-1.438-.452-2.05-1.278 1.626-1.687-.4-.17-.375c.778-.387 1.63-.677 2.303-1.197.326-.253.32-.937.46-1.408l-3.355 1.118-.35-.667c.578-.42 1.27-1.296 1.713-1.183 2.336.593 1.5-.887 1.475-1.782l-2.902.945-.31-.713c.75-.38 1.527-.716 2.238-1.158.396-.242.97-.664.97-1.004-.006-2.138-.15-4.277-.27-6.866l-1.4 2.043 1.113 3.452c-2.2-.292-1.974-1.562-1.72-2.877-1.46 1.054-1.53 1.694-.674 2.822.39.518.504 1.247.746 1.887-1.965.37-2.368-.077-2.156-2.43-1.207.724-1.348 1.587-.626 2.664l1.405 2.128-2.63-.26.542-2.195c-1.842 1.68-1.828 1.746-.155 3.13.267.22.372.635.55.962l-1.675.635-.34-1.64c-.32.432-.693.712-.675.965.03.392.232.918.534 1.103.32.196.875-.04 1.268.09.575.2 1.096.54 1.64.823l-.375.767c-.777-.382-1.548-.783-2.34-1.134-.206-.09-.485-.015-.73-.018.03.29-.043.762.107.848 1.706.994.616 2.247.526 3.56-1.696-1.468-1.696-1.468-1.534-3.988-1.333 1.205-2.452 1.163-3.33-.667h3.584l-2.533-3.055.262-.325 2.364.828 1.275-1.862c-.908.104-1.657.41-2.16.184-.467-.21-.673-1-1.005-1.553 1.614-.47 1.614-.47 2.265 1.25l1.95-2.195c-1.626.075-2.783.025-2.455-1.954l2.312.82 1.677-1.106-.178-.396c-1.127.414-2.215.74-2.512-1.428.945.322 1.734.48 2.407.85 1.346.734 1.55-.104 1.72-.9l-2.036-1.6.262-.444c.953.027 2.143-.543 2.322 1.815l2.34-3.1-.45-.554c-.847 1.493-1.94 1.875-3.34.835.778-.486 1.187-1.803 2.652-1.14.128.057.722-.456.745-.736.037-.434-.23-.892-.45-1.605-.88.746-1.506 2.485-3.198.645.683-.278 1.33-.463 1.9-.79.455-.268 1.083-.66 1.153-1.08.157-.952-.886-1.967-1.584-1.972.04.52.27 1.134.077 1.555-.208.456-.81.73-1.238 1.085l-.622-.432c.284-.6.603-1.168.837-1.777.084-.226.067-.606-.074-.78-.56-.702-3.717-1.136-5.016-.505.776.16 1.237.333 1.696.333.895.005 1.798-.025 2.048 1.072.044.193-.367.66-.632.724-1.056.245-1.488-.456-1.752-1.33-.01-.032-.084-.047-.437-.223l.324 2.24c2.412.302 2.412.302 3.157 1.508-1.735.712-2.35.526-3.25-.978-.447 1.43-.415 1.358.926 1.946.545.24.914.873 1.58 1.55h-2.648l-.388-1.716c-.288.762-.58 1.264-.493 1.342.735.653 1.54 1.228 2.323 1.826l.264-.333.755 1.56c-2.08 1.212-2.973.835-4.1-1.6l-.388 2.14-2.236 1.356 2.407 1.31.217 1.515c-2.327.322-2.327.322-2.47-2.28-.4.8-.8 1.344-.947 1.944-.077.317.306 1.072.4 1.06 1.52-.2 1.612.82 1.678 1.89l-1.89-.275-.665-1.927-.91 2.303c1.257.404 2.892.466 2.594 2.427l-1.624-.18-.74-1.616-.602.24.94 2.59-.713 2.388-2.18-2.008 1.38-2.003-.138-.198-2.496 1.394-.383-.56c.59-.385 1.2-.74 1.762-1.163.537-.406 1.02-.882 1.268-1.572l-1.804.937c-.296-1.207.457-1.503 1.27-1.868.532-.24.953-.713 1.426-1.084l-.31-.46-1.324.297c.38-.375.712-.81 1.14-1.1.574-.4 1.224-.664 1.84-.99l-.16-.245-1.51.29c-.187-1.038.16-1.32 1.126-1.413.7-.072 1.364-.702 2.04-1.082l-.4-.543c-.342.286-.64.664-1.03.835-.675.297-1.428.5-1.26-.7.02.003.034.003.052.003a.84.84 0 0 1-.038-.05c.792-.783 1.576-1.6 2.665-.185l1.025-1.597-3.244-.182c1.04-1.324 2.143-1.934 3.752-.856l.56-2.177-3.598.972c.795-2.034 1.082-2.297 2.062-2.18 1.32.16 1.932-.42 1.583-1.63-.225-.776-.655-1.496-.992-2.24l-.363.136.735 2.435-2.033.754-.368-.338.654-1.793c.13-.375.442-.868.3-1.103-.154-.275-.693-.396-1.084-.46-.382-.067-.79.02-1.284.044 1.534 1.725 1.54 1.768.52 2.87l-1.466-1.04.667-2.003-6.734.49 1.184 1.868c.656 1.054 1.485 1.485 2.76 1.033.654-.23 1.414-.154 2.127-.218l.145.49c-.693.573-1.322 1.443-2.104 1.616-.54.12-1.296-.724-2.22-1.306l1.107 2.658c1.573-.86 2.67-.486 3.68.793-1.463.4-2.794 1.145-3.838-.606l-.394.4.966 1.993c1.67-.908 2.4.344 3.222 1.37-.01.023-.01.034-.014.047-2.557-.104-3.03-.23-3.8-1.05-.284 1.344-.43 2.388 1.5 2.346.462-.01.942.773 1.586 1.347-1.69.466-2.834.583-3.4-1.054l-.235 1.28 2.61 2.053c-1.157 1.296-2 .278-2.953-.427l-.588 1.054c.667.352 1.337.63 1.9 1.05.143.11-.047.664-.086 1.038-1.34.45-1.88-.16-1.837-1.567l-.462.09c0 .627-.155 1.31.033 1.873.344 1.03.336 1.183-1.43 2.63-.554-1.11-1.45-2.105.217-3.124.287-.176.164-1.025.225-1.57l.006.008 1.157-2.264c-1.258.885-2.355 1.356-3.26-.536.44-.09 1.047-.42 1.508-.275 1.862.58 2.096-.573 2.385-2.144-1.116.72-2.057 1.835-3.336.018l2.38-.546.377.396.757-2.757-.435-.22c-.342.49-.625 1.314-1.037 1.386-.683.117-1.452-.25-2.185-.416l-.096-.45c.733-.286 1.455-.608 2.2-.843 1.468-.466 1.023-1.545.828-2.698-.297 2.18-1.77 1.75-3.542 1.652 1.153-.546.913-2.33 2.568-1.652.055.023.463-.48.474-.744.047-1.202-.65-1.914-1.852-2.286l.654 1.668-1.692 1.23c.077-.88.107-1.455.182-2.026s.193-1.145.29-1.716L95.3 75.8c-.142-.015-.297.086-.858.27l1.884.984v1.374l-1.8-.447c.088-1.465-.322-2.344-1.735-1.496.77 1.662 1.92 3.236 2.166 4.942.23 1.587-.566 3.303-.8 4.977-.293 2.113-.474 4.243-.688 6.234-1.15-1.342-.673-3.18-.546-4.9.185-2.497.602-4.98.92-7.466l-.735-.13c-.202 1.267-.45 2.53-.593 3.8-.136 1.238-.164 2.487-.237 3.73l-.69-.06c.182-2.373.463-4.743.49-7.116.01-.87-.47-1.84-1-2.565-.15-.203-1.352.176-1.932.52-.997.595-1.887 1.374-2.737 2.01 1.178 1.007 2.57 1.827 3.448 3.028 1.72 2.358 1.983 5.29 1.58 8.002-.67 4.5-.7 4.682 1.06 8.138.246.49.28 1.085.49 1.94-2.93-4.124-3.623-8.393-2.485-13.338l-1.91 1.347-.468-.382c.588-.92 1.558-1.805 1.654-2.778.094-.93-.716-1.95-1.13-2.934l-.693.122-.354 4.362-.498.127c-.16-.526-.387-1.044-.456-1.582-.076-.6.056-1.207-.013-1.8-.246-2.152-.263-2.15-2.438-2.01-1.2 3.835-.37 7.714-.24 11.6.133 4.035-.02 8.078.1 12.113.09 3.013.37 6.023.655 9.025.07.74.48 1.446.73 2.167l.413-.15-.387-6.94.324-.268c.28.42.75.81.806 1.254.29 2.284.453 4.582.7 6.87.062.556.306 1.09.467 1.636l.56-.112-.413-7.47.467-.223c.23.367.61.712.66 1.1l.86 7.318a2.51 2.51 0 0 0 .804 1.592v-7.555l.394-.084c1.268 2.867.705 6.142 1.932 9.1l.004-3.8a36.21 36.21 0 0 1 .114-2.46c.004-.055.357-.077.548-.117.143.764.354 1.517.418 2.286.152 1.826.173 3.66.385 5.474.062.528.595 1.004.913 1.503l.416-.17-.396-7.162.552-.213c.25.484.688.957.72 1.457.137 2.03.116 4.064.24 6.093.023.357.48.687.74 1.03.16-.354.427-.697.462-1.06.16-1.67.254-3.345.372-5.02l.774-.005.382 6.402.918.2v-6.564c1.268.843.92 2.1 1.072 3.206.16 1.163.377 2.318.74 3.468 1.422-2.333-.97-5.222.804-7.454l.533.052.49 4.06c.114 1.143.17 2.292.25 3.44l.583-.075c0-1.282-.037-2.566.022-3.845.02-.434.282-.856.433-1.285.226.367.618.72.646 1.1.088 1.195-.003 2.403.06 3.603.023.395.295.776.842 1.085l.442-3.834.628-.04c.116.97.18 1.946.36 2.898.14.736.43 1.44.673 2.222l-5.187-.804-.145.4 6.858 2.8c-1.837 1.03-2.61-.972-4.002-1.118.952 2.417 3.016 3.407 5.554 2.623l.41-1.768.455-.003.62 3.405-5.488-.908c-.325-.065-.567-.546-.84-.846-1.483-1.62-2.978-3.208-5.818-2.537 3.29 2.237 6.072 4.897 9.87 6.023l-3.508-.38 1.34 2.15c-1.214.174-1.545.114-2.017-1.264-1.008-2.948-3.903-3.564-5.85-5.33l-.41.385 6.402 7.555-.138.2c-.768-.583-1.647-1.07-2.286-1.77-1.936-2.123-3.753-4.357-5.684-6.486-.415-.458-1.113-.66-1.727-1.007-.758 2.118 1.898 2.078 1.926 3.665l-4.127-2.3.453 2.068-3.34-1.02.137-.548h.767l.265-.305-4.596-3.863-.484.42 2.742 3.684c.032-.027-.27.223-.484.4l-2.1-.86-.182.382 3.998 2.157-.204.453-4-1.832-.283.424-.292-1.31-1.812.833c-.218-2.247-1.328-3.898-3.373-5.066 2.125 5.06 2.125 5.06 7.983 8.14l-1.292.667c.088.044.17.094.25.14l-1.167-.312-6.185-5.076-1.436.825 1.103-2.497c-2.27-.273-3.02.6-2.27 2.378.113.27.38.677.57.674 1.864-.018 2.783 1.358 3.882 2.497.325.338.746.58 1.124.866l-.2.396-4.24-2.562-.33.395 2.205 3.325-.543.09c-.12-.268-.472-.57-.98-.967-1.188-.93-2.12-2.182-3.166-3.293-1.303 1.13-1.184 2.393.523 3.886l-1.626-.338-1.12 1.897-.4.067-.866-.48 1.277-3.253-.56-.335-3.033 3.848v-4.215c-1.294 1.532-1.94 3.764-4.363 3.416.663-.606 1.424-1.14 1.954-1.845.282-.377.166-1.05.258-1.832 2.834-1.512 4.856-4.436 4.34-7.03-.507.825-.84 1.44-1.244 2.01-.95 1.34-1.424 3.005-3.265 3.7-.8.3-1.775 1.08-1.493 2.512.1.5-.774 1.215-1.204 1.83l.32-1.348-.26-.176-2.898 3.372-.364-.338 3.97-5.408-.24-.174-1.654 1.11-.282-.3 2.38-2.078c.83-.692 2.137-1.085 1.422-2.782-1.738 1.67-4.46 2.438-4.408 5.534.003.138-.13.278-.197.42l-2.214 4.55a140.87 140.87 0 0 0-.366-.65l-3.853 2.175-.29-.42c2.898-1.562 4.746-4.032 5.976-7.087l-5.1 4.88-.717-.788 3.722-4.1 1.286-.622-.437-.315-.85.937-2.316 1.118-.206-.427c1.12-1.264 2.473-2.195 4.176-2.584 2.083-.48 3.102-2.172 4.374-3.578l-.273-.328-3.856 3.37-.218-1.306c-2.82 1.014-5.793 5.28-5.69 8.215.048 1.39-.65 2.297-1.842 3.28l1.443-5.547-.435-.24c-1.835.892-1.72 3.124-2.896 4.897 0-1.96.083-3.62-.025-5.266-.104-1.577-.406-3.14-.622-4.706l.613-.138 1.23 5.77c1.256-1.3.71-2.485.385-3.692-.3-1.15-.485-2.336-.796-3.887 2.534 1.27 1.325 3.675 2.807 5.07 0-.697.095-1.408-.022-2.088-.24-1.403-.64-2.782-.872-4.188-.06-.372.245-.804.385-1.207l.485.003 1.492 5.856.364.07c.1-.35.317-.7.28-1.044-.22-2.014-.505-4.022-.752-6.033-.027-.23.062-.48.098-.716l.427-.084c.256.856.584 1.7.752 2.573.2.992.188 2.02.377 3.015.062.333.45.603.688.903.193-.343.57-.692.554-1.025-.095-1.803-.282-3.603-.446-5.403-.058-.627-.14-1.25-.001-1.914 1.647 1.94 1.47 4.314 1.46 6.645l.514.15c.164-.5.5-1.033.462-1.527-.17-2.237-.452-4.464-.67-6.694-.04-.41.038-.828.307-1.262 1.57 2.15 1.172 4.69 1.757 7.216.24-.4.72-.823.687-1.197-.235-2.54-.585-5.068-.873-7.605-.03-.28.094-.58.147-.873l.472-.08 1.765 7.424c1.135-3.29.065-6.142-.408-9.01l.528-.174c.48 1.056 1.105 2.076 1.397 3.184.31 1.176.302 2.438.45 3.806 1.132-.474 1.48-1.012 1.136-2.066-.46-1.405-.83-2.85-1.106-4.3-.127-.674.058-1.408.103-2.115l.647-.075 1.8 7.035c1.257-1.54.166-3.07.27-4.47.11-1.455-.388-2.953-.388-4.478 2.016 2.06 1.402 4.897 2.19 7.305l.442.023c.07-.764.263-1.537.188-2.284-.176-1.805-.493-3.6-.716-5.388-.037-.305.107-.63.168-.945.27.253.706.463.78.764.458 1.85.837 3.72 1.603 5.76.17-.583.526-1.18.474-1.74-.166-1.782-.493-3.553-.734-5.33-.034-.25.06-.518.114-.905 1.893.416.863 2.658 2.264 3.328.117-.136.354-.288.358-.442.08-3.013.202-6.028.173-9.04l-.335-14.322c-.07-1.823-.456-3.632-.606-5.458-.086-1.085-.047-2.193.06-3.278.027-.255.557-.46.758-.612-.298-.833-.45-1.704-.896-2.375-.43-.653-1.127-1.5-1.77-1.548-1.013-.09-2.194-1.056-3.174.66-1.82 3.194-1.752 5.326.8 8.61.877 1.13 1.72 2.33 2.304 3.623s1 2.723 1.196 4.13c.333 2.28.702 4.612.556 6.89-.124 1.946-.94 3.853-1.485 5.768-.036.127-.347.176-.57.278.334-2.507 1.592-4.88.396-7.594-2.64 2.672-1.573 5.91-1.855 9.035-1.473-3.588-1.058-6.9.35-10.21 1.27-2.983 1.347-5.92-.674-8.554-.735 3.296-1.234 6.707-2.3 9.933-.84 2.537-.18 4.768.415 7.116-.154.037-.306.077-.457.117l-1.6-5.088c-1.315 3.042-.114 6-.45 9.23-1.404-2.825-1.308-6.96-.75-9.28.132-.548.476-1.05.744-1.56 2.185-4.173 2.88-8.49 1.207-13.52-1.008 2.61-1.92 4.8-1.478 7.22.387 2.123.32 3.23-.78 4.602-.124-2.596-.4-5.15-.307-7.692.056-1.553.74-3.072 1.028-4.63.207-1.116.42-2.286.298-3.397-.263-2.406.122-4.602 1.744-6.413.632-.707 1.59-1.126 2.412-1.654.434-.28.896-.515 1.346-.77l.083-.518-5.02-2c-.687-.28-1.435-.488-2.024-.91-1.08-.774-1.897-.288-2.483.515-1.066 1.46-1.25 3.218-.204 5.024.786 1.356 1.6 2.787 1.92 4.287.254 1.225-.056 2.566-.424 3.88.98-3.826-1.507-6.35-3.4-9.077l-.488.04c.044.947-.043 1.927.164 2.834.41 1.805 1.052 3.556 1.452 5.36.154.702-.095 1.493-.182 2.464L62.2 75.062c-1.46 3.647-.472 6.918.682 10.182-3.303-3.92-4.482-10.18 1.69-15.4-3.32-.975-7.59-.32-7.777.843l2.85 1.225-.185.49c-1.075-.06-2.5 1.535-3.1-1.3-.33.913-.678 1.436-.637 1.93.027.328.698.926.93.86 1.318-.37 1.758.404 2.165 1.463l-2.336.508-.4-1.775c-2.07 1.946-.032 3.913-.804 5.59l3.613.188c-1.205 1.88-1.926 1.986-3.672.635.33 1.05.712 2.088.974 3.154.514 2.092.83 2.227 2.605 1.183.56-.33 1.286-.385 2.465-.713-.628 1.13-.92 2.003-1.512 2.544-.235.21-1.15-.328-2.232-.682.362.74.55 1.34.91 1.8.52.667.818.156 1.357-.196.682-.447 1.694-.385 2.684-.562-.844 2.354-1.082 2.472-3.528 1.766.425.632.686 1.186 1.1 1.57.242.223.78.315 1.105.213.396-.124.67-.598 1.063-.767.423-.184.922-.188 1.384-.268.18 2.003-.303 2.438-2.707 1.857l1.38 1.574 3.77-1.98c-.277 2.247-.873 2.646-3.423 2.505.745 1.7 1.2 1.8 2.65.918.632-.4 1.456-.47 2.228-.705-.28 1.94-1.843 3-4.005 2.688.513 1.664-.185 2.412-2.337 2.237.665-.783 1.254-1.374 1.724-2.045.913-1.306-.19-1.873-1.162-2.8-.448 1.324.29 3.762-2.657 2.552.36-.66.57-1.694 1.09-1.884 1.644-.603 1.218-1.317.405-2.237-.227-.255-.423-.538-.692-.882-.78 3.454-.964 2.802-3.277 1.753l2.963-2.125-1.803-2.27-.192 2.286h-2.952l2.766-2.9-1.68-1.868h-.058c.005-.015.01-.032.017-.044 0-.003.01.008.015.015l.03.03L55 83.124c-1.014 1.85-1.8 3.343-3.748 1.865.538-.92.872-2.242 2.61-1.498.138.06.75-.458.755-.716.014-.588-.212-1.183-.428-2.182-1.23 1.977-2.4 2.113-3.966.208 1.174-.184 2.27-.077 2.98-.55.6-.4.748-1.47.856-2.505-1.247 1.017-2.308 2.092-3.81.734.687-.81 1.075-2.453 2.807-1.136.102.08.846-.344.898-.612.133-.68.044-1.405.044-2.152l-2.086 1.553.136-1.45-.215-.13-1.093 1.642c-.364-.682-.786-1.212-.926-1.808-.133-.57.03-1.207.06-1.815l-.427-.17-3.042 2.735.328.286c.757 0 1.562-.16 2.25.055.495.154.83.814 1.258 1.27-1.775 1.113-2.994.73-4.09-.833v1.936l3.81 1.244c-1.758 1.15-3.166 1.668-4.374-.414-.65 2.306-.463 2.458 1.35 2.365.828-.042 1.68.395 2.695.658-2.03 1.67-2.436 1.65-4.4-.372-.116.9-.353 1.532-.202 2.066.076.263.912.248 1.333.484.724.404 1.395.905 2.088 1.364-.524.317-1.028.835-1.58.892-.41.04-.9-.484-1.306-.825-.15-.13-.122-.46-.206-.848-1.08.752-.962 1.527-.496 2.396.127.234.138.528.202.793l.015-.015.015-.013c-.136.715-.352 1.418-.336 2.118.004.164.8.347 1.248.453.824.196 1.66.343 2.647.543-1.153 1.43-1.153 1.43-3.84.08-.532 2.034-.296 2.316 1.794 2.264.297-.008.595.234.9.263.284.027.578-.075.887-.122-.592 1.925-1.904 2.264-3.6.942l1.037 6.348c1.755-1.25 1.755-1.25 3.976-.075l-2.285 1.443-.98-1.033-.47.216c.246.588.34 1.493.768 1.7 1.12.543 1.17 1.176.766 2.187-.204.515-.14 1.138-.203 1.763-1.676-1.384-1.658-1.768.176-2.477l-1.24-1.535-.795 2.537c-.08 0-.163-.003-.242-.003.1-.658.235-1.31.29-1.977.05-.567.01-1.145.01-1.716l-.466-.037-1.535 1.86-2.27-2.534c1.206-.13 2.02-.26 2.832-.292.853-.034 1.22-.35.94-1.22-.128-.396-.223-.806-.38-1.37l-1.63 1.777-1.94-1.537.14-.46c.8-.042 1.63.034 2.4-.15 1.838-.442.264-1.45.405-2.068-.73.382-1.39.913-2.123 1.05-.477.09-1.06-.396-1.597-.622l.602-.866 2.92-.4c.03-.086.29-.518.295-.952.005-.41-.26-.823-.404-1.235-.32.275-.726.496-.95.833-1.138 1.725-1.685.154-2.878-.658 1.216-.255 2.11-.286 2.836-.653.48-.24.713-.967 1.023-1.428l-3.545.41-.124-.768c.825-.15 1.672-.24 2.468-.484.37-.112.767-.48.93-.83.207-.456.2-1.014.358-2.088-.66.598-.967.978-1.36 1.202-.477.273-1.03.414-1.55.61l-.34-.6 2.516-1.676.363.414 1.096-10c-.8.694-1.416 1.15-1.918 1.72-.23.258-.4.98-.28 1.07 1.385 1.03.552 2.182.355 3.298l-.444.09-.587-3.2c-1.753 1.72-1.753 1.72.52 4.09l-.975 2.167-1.394-3.898c-.41.458-.97.853-1.15 1.38-.1.268.447.823.79 1.15.702.672.745 1.12-.103 3.135l-1.633-3.898-1.31 1.595c.73.853 2.754 1.26 1.2 3.298L35.72 86l.105 2.073s.038-.042.034-.04l.004-.003c-.006.03-.008.047-.01.07-.008-.005-.014-.013-.022-.02-1.14 1.862-1.03 2.177.674 3.104.46.248.72.87 1.184 1.46h-1.99l-.828-1.595-.376.208c.25 1-.075 2.253 1.635 2.52.446.07.762.972 1.136 1.493l-.52.562-2.19-1.38-.117 1.558-.325.008-.22-1.835-1.97 1.67-.458-.395c.31-.494.523-1.306.94-1.428 2.118-.614 1.62-2.5 2.015-3.908.192-.684.14-1.44.23-2.55-1.75 1.626.206 4.322-2.238 5.525v-3.322l-1.238 1.168c.397 1.16 1.43 2.306-.37 3.466l-.367-2.995c-.85.414-1.118 1.05-.617 2.118.52 1.1.472 1.124-.664 2.234v-3.654c-.722 1.475-1.13 2.83-3.192 1.925l2.483-1.82-3.392-.667.034-.72c.785 0 1.64-.198 2.344.04 1.38.47 2.432.28 3.308-1.012-1.3.692-2.457.93-3.242-1.082 1.035.208 1.878.505 2.72.505.773 0 1.55-.32 2.222-.825l-2.55-.29-.027-.437 2.123-1.06-.692-1.13 3.647.185.036-.434-2.46-.66 1.42-3.218-2.652-.236c.788-.962 1.418-1.85 2.58-.9.183.15 1.112-.627 1.697-.975l-.218-.344h-3.048c.842-.866 1.48-2.063 2.792-.952.235.198 1.056-.297 1.607-.47l-.074-.453h-1.79c-.56-.967-1-1.58-1.28-2.26-.2-.46-.157-1.014-.277-1.925-.325.26-.8.513-1.064.908-.132.196.056.68.203.98.344.7.75 1.386.867 2.303l-1.77-.873V74.4c-1.574.856-1.588 1.116-.743 2.505.295.484.176 1.223.262 1.974-1.452-.6-2.04-1.344-.875-2.958-1.546.92-1.704 1.782-.854 2.685.816.868.71 1.68.273 2.578l-.53.16-1.18-3.37c-.548 1.054-1.2 1.827.175 2.827.447.322.402 1.322.675 2.37-1.508-.81-2.76-1.28-1.685-3.114l-.556-.047c-.272.56-.686 1.1-.76 1.686-.046.352.362 1.025.693 1.118 1.29.37 1.235 1.262 1.136 2.35-2.105.325-1.835-1.244-1.972-2.448-1.315.667-1.332 1.506-.198 2.56.622.575 1.13 1.275 1.94 2.206-2.566-.476-2.566-.476-2.755-2.415-1.18.496-1.084 1.48.17 2.716.57.565 1.008 1.26 1.33 2.03-1.176-.37-1.854-1.148-2.53-2.606l-1 1.72a10.01 10.01 0 0 0-.281-.159l.406-1.12-2.674.432-.154-.503 1.522-1.356c1.108 1.15 1.47.055 2.003-.63h-3.195c.814-.9 1.386-2.016 2.868-1.426.273.11.98-.873 1.37-1.595-1.154.93-2.1.923-3.15-.48.81-.16 1.544-.533 2.143-.377 1.475.382 1.7-.637 2.24-1.38H22.25l-.02-.556c1.045.132 1.906-1.418 3.157-.16.055.055 1.118-.895 1.675-1.348l-3.51-.3.034-.43c1.052-.2 1.984-1.468 3.25-.25.155.15 1.223-.647 1.705-1.275h-3.283c1.14-1.235 1.9-2.102 3.302-.975.265.213 1.3-.528 1.98-.83l-.18-.352-3.156.15c.793-1.2 1.267-1.88 2.57-.962.71.5 1.91.354 2.38-.947l-6.743-.85c-1.125-.1-1.277.694-.942 1.515.443 1.085-.088 1.567-.943 1.95-1.386-.96-.35-1.793.237-2.648-1.235-.027-1.796.746-1.708 1.86.07.828-.13 1.676-.21 2.516l-.758-.044v-3.137l-.376-.12c-.2.754-.47 1.5-.576 2.27-.118.848-.085 1.72-.13 2.864-1.757-1.285-1.078-2.415-.45-3.606-1.964.93-1.934 1.116-1.15 2.807.255.548-.24 1.446-.39 2.182l-.81-.086v-3.53c-.74.734-1.82 1.01-1.07 2.57.292.606-.188 1.584-.342 2.547-1.546-1.25-1.17-2.448-.428-3.697-1.234.642-1.85 1.394-1.205 2.822.286.63.133 1.463.202 2.557-1.214-1.14-2.578-1.8-1.113-3.454-1.564.04-1.333.97-1.22 1.805.104.776.24 1.548.38 2.435-1.885-.453-1.996-1.145-1.017-3.647-.415.325-.788.773-1.26.932-.48.16-1.056.034-1.597.034.188-.937.188-.937 3.24-1.446-.948-.915-3.17.288-2.915-2.292l3.764 1.353c.117-.044.645-.258 1.457-.583l-3.056-.994.227-.793c.774.242 1.54.645 2.327.684.767.04 1.55-.292 2.328-.46l-.103-.385-3.353-.387c1.122-1.064 2.146-1.716 3.42-.456.27.268 1.297-.236 1.895-.7l-2.25-.41c1.37-.86.636-3.34 3.366-2.92-2.152-.994-3.037-.585-3.343 1.163-.226 1.3-1.033 1.574-2.48 1.4l2.043-2.99c-.495-.084-1.074-.295-1.602-.206-.17.03-.152.877-.3 1.327-.22.674-.512 1.33-.88 2.26l-1.07-1.95.933-1.106c-1.248-.38-1.75.166-1.54 1.522.128.81.093 1.647.132 2.47l-.465.09c-.25-.3-.53-.603-.745-.934-.226-.352-.39-.744-.522-.997l1.225-1.742c-1.678.378-2.312.926-1.587 2.215.515.918.314 1.607-.98 2.28v-3.055c-2.578.734-.024 3.16-1.43 4.418l-1.083-.94.534-1.714-.2-.132-1.343 1.42-.303-.132.843-1.567H1.446c.998-1.446 1.856-1.998 3.175-.783.96.882 1.334-.065 1.74-.58l-2.617-.66.12-.713c.778.095 1.555.246 2.332.268.736.022 1.556.084 2.198-.193 1-.432 1.86-1.136 2.948-1.83l-1.95-.783-2.562 2.03-.43-.364 1.364-2.66c-.474.24-1.003.375-1.336.707-.63.627-1.148 1.37-1.713 2.063l-.65-.505 1.732-2.355c-1.278-.625-1.438-.49-1.837 1.13-.175.708-.71 1.328-1.21 1.86-1.124-1.716-.617-2.47.788-2.823l-.28-.458c-.503.29-1.013.562-1.5.873-.556.354-1.09.74-1.695 1.158-.408-2.32 1.3-2.344 2.953-2.61-1.07-.684-2.94.14-2.143-2.247l3.578 2.382.18-.303-1.463-2.275c1.37-.34 1.663.26 1.956 1.098.225.636.74 1.17 1.127 1.75l.432-.305L5.58 65.04c1.22.185 2.238.325 2.187 1.827-.03.9 1.46 1.408 2.646.825l-1.682-.6V65.06c2.36.254 1.132 3.83 3.688 3.852l-1.455-3.386c1.79.33 2.613.853 2.008 2.556-.29.82.998 1.704 1.79 1.292.147-.075.09-.788-.056-1.13-.28-.664-.69-1.272-.882-1.998 1.248.29 2.052.823 2.1 2.172.014.46.63.905.974 1.356l.41-.263-.97-4.287-.023.02-.024.022c-.006-.008-.013-.017-.02-.027l.033-.008c.15-.48.477-1.018.36-1.423-.098-.333-.76-.713-1.164-.706-1.138.02-2.13-.048-2.68-1.913l3.358 1.23.292-.143c-.383-.375-.722-.8-1.157-1.108-.467-.325-1.025-.526-1.54-.778l.258-.616 1.62.4-.758-3.29c2.387.873.7 3.14 1.805 3.92l2.78-2.088c.388 1.517-.452 2.193-1.402 2.708-.852.463-1.287.92-.674 1.677l2.733-1.275.46.694c-.485.397-.94.838-1.46 1.182-.474.312-1.04.484-1.513.796-.105.07-.056.504.047.707.052.104.542.133.564.084.617-1.468 1.997-.672 2.975-1.025-.013.013-.024.027-.037.042-.683.74-1.25 1.78-2.082 2.076-1.242.444-1.327.206-1.084 1.367l3-.97c.13 2.722-1.826 1.624-2.948 2.286.474.444.983.755 1.525.823 1.737.21 3.485.335 5.23.49.018.01.023.006.028.003l3.622.523c-.362-1.69-1.428-1.475-2.515-1.11-.4.132-.74.387-1.106.588-.017-.003-.022-.003-.028-.003l-1.864-1.763.245-.548 4.35.837c-.23-.348-.458-.575-.542-.85-.353-1.14-.682-1.815-2.114-.926-1.012.628-2.146.184-2.942-1.582l3.955.674.173-.54c-.687-.227-1.366-.485-2.063-.675-.945-.258-1.902-.466-2.854-.697l2.417-.846c-.667-.92-3.4-.546-2.52-3.164l3.013 2.815-.66-3.32-1.836.42-.225-.43 2.85-2.068-.26-.36-1.776.255-.19-.65c.515-.164 1.054-.284 1.546-.503.515-.23 1-.556 1.803-1.026l-2.547-.204c.136-2.406 2.42-.397 3.08-1.762-2.05-.645-2.223-2.146-1.66-3.978l-.62-.004-.317 3.673-.683.06-.548-2.53-1.243.616.843 1.628c.26.54.49 1.096.733 1.645l-.66.342-1.455-2.3c-.603.213-.923 1.4-.013 1.832 1.273.6.98 1.374.603 2.698l-2.01-3.117v4.485c-1.927-1.023-1.907-1.01-.96-2.537.33-.53.762-1.205-.355-1.433l1.642-1.445-.592-.192 2.17-1.582 2.12-2.385-2.142.156-.768 1.945-.5-.155.197-2.097-.458-.208c-.23.5-.576.96-.66 1.475-.098.604.03 1.243.062 1.868l-.74.063-.42-2.48c-.303.8-.865 1.865-.72 1.97 1.1.81.416 1.6.295 2.393l-.503.137-1.01-2.818c-.24.74-.634 1.324-.548 1.826.13.76.6 1.46.9 2.185h-2.1l.786-2.055-.415-.315c-.396.53-1.058 1.033-1.117 1.6s.485 1.19.766 1.79l.4-.104v1.602l-.442.27-1.615-2.336c-1.065.344-.273 1.238-.12 1.868.176.734.59 1.4.922 2.162-2.03.154-2.11.05-1.76-2.17-1.296.444-1.365 1.2-.73 2.2.395.613.81 1.214 1.33 1.994-1.268-.01-2.51.45-1.836-1.488.4-1.116-.776-.928-1.37-1.103-.54-.16-1.12-.17-1.683-.248l-.1-.585c.68-.15 1.37-.264 2.038-.458.653-.2 1.282-.46 1.756-1.04l-2.896.178c1.233-1.967 1.42-2.006 3.343-.793l1.262-1.895-3.115.45-.218-.466 1.672-1.357c1.428 1.278 2.37.493 3.135-.735l-2.253.442-.2-.73c.626-.194 1.252-.55 1.878-.55 1.348-.003 3.67-1.56 4.5-3.58-.848.448-1.408.607-1.763.97-.414.42-.65 1.022-.96 1.543l-.498-.203.696-2.403c-.017-.004-.496-.295-.688-.164-.29.196-.43.674-.53 1.06-.163.606-.24 1.23-.352 1.847l-.688-.132.293-2.345c-.344.376-.735.64-.886 1-.286.682-.43 1.42-.63 2.135l-.748-.156.324-2.245c-.96-.02-1.3.344-1.25 1.377.033.68-.194 1.374-.305 2.06l-.862-.16.57-2.302c-1.004-.01-1.004-.01-1.592 4-1.287-.606-1.38-1.375-.27-2.58-1.38.463-2.54.542-3.272-.428.66-.328 1.708-.934 2.492-1.8 1.77.636 4.483-.157 5.858-1.894-.994-.226-2.038-1.234-2.617.573-.06.19-.786.168-1.202.244l-.14-.347 1.282-1.118-.278-.447-1.164.65-1.74.927c.006-.01.01-.02.018-.03l1.576-1.785c-1.56-1.465-1.76 1.934-3.317.687l1.556-1.4-1.082-.71.317-.475 7.857 2.975.32-.678c-.513-.265-1.004-.594-1.545-.776-.675-.226-1.393-.333-2.09-.49l.168-.65 2.05.493c.023-1.287-1.045-1.174-1.846-1.243-.8-.074-1.636.046-2.455.08l-.013-.65h2.983l.06-.48-4.75-.67-.046-.447 2.05-.372c-.046-.335-.223-.967-.122-1.017.607-.29 1.145-.31.678.637l1.108.41.43-3.002.758.037c-.037.744.157 1.612-.16 2.204-.556 1.033-.18 1.52.513 2.067l.882-2.878.658.126-.488 4.173c.73-.905 1.1-1.78 1.73-2.053 1.16-.504 2.48-.687 3.36.85.123-1.473-.64-2.137-1.733-1.956-.8.132-1.658-.096-2.49-.166l.075-.793 2.733.163c-.325-1.305-.514-1.352-1.9-.9-.576.187-1.294-.057-1.947-.104l-.112-.52 2.507-.713.063-.317c-.658-.028-1.313-.095-1.968-.08-.698.018-1.397.112-2.425.2.976-1.87 2.143-.642 3.54-1.018L11.01 34.6l.774-.872 1.786.37 1.1 2.342 1.078-2.13c.1-.185.414-.395.376-.496-.307-.793-.275-1.405.773-1.195s2.592-.447 2.837 1.39l-2.91-.295c-.242.975-.278 1.758-.622 2.363-.847 1.485-.85 1.597.94 2.205.116.342.207.692.36 1.016.136.29.344.546.57.894.767-1.992.767-1.992 1.986-1.617-1.135 3.038-1.135 3.038-.696 3.434l1.602-1.92.56.395c-.373.57-.767 1.126-1.11 1.71-.245.42-.705 1.03-.565 1.3.248.466.843.75 1.306 1.1-.537 1.325.123 3.076 1.404 3.73.347-1.677.51-1.824 2.124-1.732l-1.124 2.205 3.92-.617c.01-.01.017-.008.024-.004 0 0-.033.038-.03.033l-.003.005H30.4c-2.068-.672-2.2-.81-1.96-2.13h1.767l1.173-1.7 1.066.764c-.185 1.62-1.238 1.245-2.234.994-.16 1.2.833 1.925 1.544 1.805 2.107-.357 4.15-1.106 6.482-1.776-1.586-.522-2.732-.937-3.903-1.268-.477-.136-1.004-.09-1.5-.13l-2.166-.846c-.105-.773-.442-1.275-1.31-1.445-.296-.057-.5-.6-.74-.936.217-.11.556-.23.55-.317-.136-1.402.672-1.37 1.9-1.165l-1.487 1.842 2.07.993c-.45-1.198-.814-2.14.835-2.553.272.752 1.39 1.45-.042 2.234-.132.072-.136.786-.003.863.566.33 1.207.533 1.823.783l.504-.622-1.346-.56c.432-1.07 1.1-1.33 1.71-.59.343.414.227 1.207.317 1.83l-.427.317 2.43.778-.567-4.012-.008.018.23-1.732-3.446-1.4c1.47-.99 2.26-.853 3.625.528.204-2.182.088-2.29-1.974-2.152-.29.018-.625-.23-.892-.416-.297-.208-.54-.495-.936-.868l2.137-.645.823 1.165.504-.234c-.348-.665-.745-1.31-1.026-2.006-.154-.38-.212-.863-.128-1.26.112-.528.77-1.113-.35-1.28.164-.312.307-.88.496-.895.722-.06 1.46.058 2.307-.112l-2.886-1.027c-.656 1.155-1.037 2.54-2.813 1.927-.2-1.654 1.334-1.543 2.267-2.05-1.47-.843-1.4-.782-2.476.433-.4.452-1.212.538-1.84.792-.495-1.758-.46-1.8 2.02-2.187l-1.53-.858-3.174 1.56c-.322-2.008-.322-2.008 1.47-2.177 0-.043.02-.112-.003-.13l-.743-.614-3.02.945c-.312-2.125-.027-2.366 1.893-1.865-.956-1.397-.905-1.3-2.35-.55-.628.325-1.513.155-2.526.23 1.13-2.003 1.233-2.05 3.117-1.936-.702-.43-1.508-.754-2.077-1.317-.64-.635-.843-1.488.03-2.378l.16 1.59 1.845-.598v1.664l.213-.387 1.405 2.298.397-.225c-.543-1.12-1.37-2.28.33-3.206.687 1.056 1.9 1.946.36 3.373-.17.156.526 1.243 1.13 1.824-.236-1.228-.43-2.27.974-2.757l.73 1.384c-1.22 1.967-.997 2.544.915 2.896l-.222-2.458 2.095.9c-.022.024.225-.27.543-.646.787.82 2.048 1.272 1.367 2.87-.076.183.976.844 1.67 1.115-.647-.785-1.794-1.296-.6-2.48.708.57 1.977.8 1.297 2.293-.105.234.773.913 1.197 1.384l.503-.367-2.556-5.316c-1.455 1.56-2.283.42-3.6-.67l3.41-.4c-.455-.324-.84-.8-1.294-.875-.844-.16-1.732-.096-2.6-.126l-.07-.463 1.134-1.2 1.8 1.036c.108-1.31-.494-1.728-1.71-1.653-.636.038-1.29-.217-1.982-.348.988-2.35 2.067-1.485 3.344.11-.896-2.445-.896-2.385-2.856-2.385-.562 0-1.125-.453-1.687-.7l.017-.505 3.15-.16c-.9-.48-1.76-.708-2.26-1.257-.408-.45-.396-1.28-.612-2.102 1.23.24 1.23.24 3.14 2.99.27-.474.448-1.244.882-1.44.575-.258 1.35-.063 1.974-.063-.052 1.718-1.098 2.093-2.627 2.064l1.022 2.215c.322-2.56 1.83-1.4 3.265-.77l-2.28 1.652-.54-.28.425 2.276c.527-1.878 1.814-1.413 3.452-1.066-.49.574-.782 1.262-1.242 1.4-1.666.5-1.847 1.31-.538 2.84l.533-1.766 2.407-.132c-.194 1.06-.194 1.06-2.77 2.547l1.1 2.212c.613-2.14 1.553-3.223 3.616-1.66-.482.396-.936.85-1.466 1.182-.593.37-1.813.692-1.784.92.102.85.602 1.653 1.196 2.44-.122-1.48.176-2.557 2.172-3.062-.36 1.004-.66 1.756-.895 2.53-.13.433-.342 1.01-.164 1.322.225.392.807.578 1.464.753-1.31-1.296-.542-1.935.57-2.493.524.692.9 1.205.278 2.327-.828 1.52.9 1.253 1.885 1.86-.366-.98-.73-1.657-.826-2.365-.043-.3.46-.696.72-1.054.857.853 1.92 1.37.816 2.566-.077.084.837 1.084 1.535 1.506-.113-1.2-1.854-2.246.364-3.21.664.54 1.534.945.677 2.378-.64 1.07.42 1.63 1.597 1.735l-.993-1.15 1.138-2.17 1.34 2.022c-1.473 2.02-1.287 2.487 1.695 3.664l-2.157-2.346c2.054-.528 1.958-.494 2.525 1.106.175.49 1.046.73 1.598 1.083l.258-.396-2.214-2.95c2.37.09 2.964.7 2.834 2.702l2.647-.37-2.347-1.642c2.22-.63 2.708-.293 3.23 1.713h1.666c-.867-1.04-1.506-2.19-2.478-2.834-.617-.41-1.73-.077-2.716-.077l-.613-1.272-.603.265 2.068-.908c-.65-1.084-1.233-.96-2.18-.023-.533.53-1.715.41-2.675.595.152-2.182 1.336-1.974 2.757-1.46-1.56-1.593-1.868-1.517-3.103-.18-.357.386-1.295.235-1.964.326l.127-1.89 1.928.312.123-.305-1.84-1.173-2.523 2.426-.63-.283c0-.673-.225-1.482.075-1.975.225-.375 1.117-.344 1.643-.476-1.102-1.218-1.047-1.145-2.346-.15-.57.442-1.417.526-2.206.796.143-.918-.683-2.208 1.07-2.487l-.145-.877c-1.93.49-1.625-1.325-2.223-2.193-.168-.244-.15-.614-.215-.915 1.87-.024 2.883.702 3.47 2.292.217.583.782 1.036 1.428 1.5-.437-1.22-1.65-2.455.536-3.255.467.653 1.115 1.277.385 2.297-.858 1.195-.635 1.558 1.17 1.827-.297-1.277-.595-2.584 1.173-3.2l.513 2.42L53.9 23.6l.414.052v3.61l.88 1.074.28-.193-.135-3.085c1.17.947 2.486 1.8.65 3.315l1.968.566c-.28-1.672-.42-3.103-.823-4.454-.093-.31-1.083-.357-1.748-.232l-1.79-1.7.055-.357 3.077.637c.246-1.53.1-1.54-1.7-1.45-.785.038-1.607-.672-2.744-1.197 2.92-1.046 2.92-1.046 4.384.72-.126-.773.008-1.954-.432-2.233-.785-.498-1.916-.452-2.9-.634l.046.047h-.077a.22.22 0 0 0 .014-.023c-.686-.23-1.362-.5-2.062-.672-1.313-.343-.72.78-.993 1.277-.362.66-.9 1.228-1.6 2.172l-.693-2.787 1.805-.804c-1.02-.705-1.847-1.574-2.327.41-.13.536-.927.91-1.432 1.37-1.108-1.917-.87-2.354 1.493-3.142l-2.228-.347-1.186-2.123c-.735.55-1.24 1.16-1.864 1.333-.617.17-1.357-.104-2.047-.185.575-1.725 1.14-2.003 3.367-1.662L41.18 10.91l1.72-1.676.377 2.934.565.09c-.174-1.317-.637-2.755 1.04-3.288.715 1.442.715 1.442-.25 2.65-.852 1.065-.48 1.638 1.48 2.283-1.273-2.07-1.273-2.07.778-2.997 0 .877.268 1.772-.052 2.333-.875 1.537.08 1.8 1.564 2.412-1.044-1.59-1.05-2.73.264-3.7.694.975 1.894 1.835.396 3.168-.058.05.288.753.583.955.32.22.8.212 1.478.364-.242-1.063-2.107-2.006-.218-3.022 1.593.508 1.554.496.945 2.238-.093.264.28.92.58 1.045.55.234 1.2.206 2.012.3-.65-1.05-2.39-1.728-.744-3.32.24 1.125 3.176 1.032.72 3.162.56.225.998.57 1.3.474.27-.083.57-.67.54-1.007-.102-1.158-.342-2.304-.452-2.98l-3.453-.873c1.033-1.14 1.96-1.696 3.08-.067l.227-.394-1.188-2.025c-1.413 2.03-2.586-.122-4.174.23 1.328-1.12 2.38-1.956 3.925-.758l-.574-.92.625-.288.595-2.625.585.086c.505.758 1.633 1.356-.01 2.398-1.025.65-.424 1.473.56 2.212-.367-2.462 1.205-2.083 3.025-1.964-.647.66-1.032 1.252-1.58 1.567-1.545.885-1.57.84-.9 2.775.78-1.27 1.614-2.383 3.364-1.572-.62.683-.623 1.8-2.143 1.568-.985-.15-1.38 1.45-.724 2.638 1.12-1.567 1.12-1.567 2.657-1.398-.166 1.066-.476 1.62-1.862 1.67-1.48.053-.776 1.475-.69 2.495.413-1.438 1.188-2.11 3.146-1.297l-3.367 2.812.682 1.65c.28-1.413.368-2.432 2.32-1.657 1.28.51 2.868.24 4.356.325l-2.266-2.1c2.74-.873 3.306-.496 2.843 1.972l2.218-.793-1.774-2.15c2.533-.16 2.737-.005 2.408 1.7h1.66c-.548-.87-.885-1.587-1.393-2.146-.303-.334-.862-.522-1.333-.6-1.107-.185-2.232-.262-3.326-.604 1.084-.863 2.158-1.967 3.114.18.185-1.52-.316-2.008-1.358-1.923-.956.08-1.93-.072-2.896-.123l-.06-.698 3.16-.882c-.52-.22-.95-.556-1.372-.548-.947.018-1.892.204-2.877.094.66-1.207 1.423-1.9 2.605-.533.288-1.394-.345-1.63-1.224-1.47-1.093.198-2.167.5-3.424.797.92-2.407 1.562-2.67 3.524-1.7l-3.027-3.363.32-.654 3.306 1.018L62.5 6.8l.98 1.417c.264-1.037.232-2.03.71-2.487.533-.513 1.53-.543 2.754-.9-.86 1.342-.585 2.785-2.243 3.215-.788.204-.543 1.075.69 1.926-.416-1.48.47-1.743 1.607-1.842-.02.887.527 1.983-1.04 2.182-.1.01-.17.364-.2.565-.156 1.03 1.856 3.835 3.358 4.002l-2.12-2.956.26-.427 3.034 1.18c-.482-.727-.66-1.146-.965-1.426-.573-.524-1.22-.97-1.664-1.676 1.008.24 2.61-.724 2.766 1.3l.56-1.562-3.575-1.23c1.44-1.098 2.655-1.33 3.357.738.48-2.104-.07-2.67-1.744-2.378-.504.088-1.072-.183-1.6-.29l.015-.416.975-.48-.99-3.098c2.754.555 3.165-.005 3.29 2.582l1.395-2.957c1 1.126 1.333 1.866.057 2.642-.702.43-1.314.997-.306 1.918l.923-1.808 1.84 1.25-.006.5-2.544.546V8.87c1.08-1.07 2.195-1.256 3.415.103-.587.197-1.186.583-1.77.56-1.78-.07-1.78-.13-2.35 1.68 1.233-.534 2.45-1.34 3.405.18-.9.4-1.694 1.423-2.886.505-.104-.08-.614.105-.675.265-.678 1.842-1.588 3.65-1.096 5.7.024.103.33.138.528.2.918 2.476 2.867 3.917 5.227 4.984l-3.325-3.305.542-.607 2.39 2.05c.142-1.558.12-1.508-1.5-2.217-.4-.174-.606-.786-1-1.34 1.576-.465 2.4-.275 2.3 1.398l.438-.128.204-2.3c-.974-.468-2.53.41-2.594-1.325-.01-.26.645-.82.768-.766.683.32 1.297.788 2.104 1.317-.123-.564-.12-1.366-.467-1.964-.56-.962-.485-1.658.503-2.44l1.068 1.158 2.7-1.252c-.64-1.75-2.893.567-3.694-1.077.744-1.195.744-1.195 2.76-.607-.005-.1.025-.24-.028-.293-.344-.347-.707-.672-1.15-1.085-1.356 1.145-2.185-.013-3.49-1.214l3.614.378c-1.084-.923-2.134-1.62-2.912-2.547-.5-.593-.6-1.52-.894-2.346 3.114.223 3.595.68 2.322 2.735l1.346 1.235c0-.992-.25-1.84.066-2.302.364-.534 1.228-.73 2.048-1.165.018 1.537.225 2.45-1.285 3.15-1.078.5.21 1.438.668 2.014l.503-2.64 1.197 1.384.488-.027c.04-1.223.213-2.462.037-3.653-.05-.34-1.113-.528-1.978-.9l2.394-.608.116-1.532.42-.234 1.306 2.2v7.972l1.49-1.808-.35-.076V5.512l.512-.102.567 2.667c1.002-.336 1.065-1.06.4-2.114-.5-.773-.814-1.654-1.214-2.49 1.26-.3 2.222-.178 2.067 1.63l2.727-1.7c0 1.046.03 1.974-.024 2.893-.014.23-.275.588-.48.635-2.422.56-3.048 1.176-3.34 3.402l-2.675 1.537.182.3 2.495-.4.196.716-2.73 1.035-.347 3.913c2.403-.908.028-2.587 1.22-3.467.937-.218 1.45 1.808 2.747.562-.302-.8-1.324-1.695.495-2.45l.456 1.442c1.88-1.643 1.926-2.352.01-5.743.97 0 1.946-.265 2.548.096.386.23.215 1.386.286 2.053 1.68-1.088 1.577-.994.183-2.548-.453-.504-.208-1.638-.288-2.53 2.496.287 2.16 1.828 1.57 3.503l.814-.09c.15-.694.263-1.4.466-2.078.104-.35.298-.75.58-.95.59-.42 1.262-.724 1.974-1.116 1.066 1.2.005 2.214-.218 3.465-1.682-.923-2.066.37-2.793 1.553.64.042 1.153.015 1.634.127.5.114.965.364 1.572.608l.27-1.476c2.073.746 2.26 1.085 1.606 2.93 1.835-1.25 1.756-1.3.282-2.968-.49-.555-.385-1.63-.598-2.695 1.857.767 2.73 1.728 2.152 3.57 1.983-1.55 1.983-1.55.022-3.493l.975-1.548c1.716.63 1.794.848 1.333 3.195l2.8-2.52c-.098.873-1.747 1.218-.546 2.006l-3.136 1.574 4.15.442.137-.947 1.443.072-.26 2.12c.84-.934 1.864-1.808.453-3.006-.226-.192.258-1.216.413-1.855l.82.126-.197 2.294c.406-.465 1.027-.848 1.032-1.238.023-1.767 1.074-1.9 2.526-1.72l.275 1.71-3.105 1.63.22.503c1.187-.01 2.464-1.805 3.547.09-1.044 1.386-2.24.972-3.534.154l-1.556 2.068c1.31.057 2.336-2.204 3.425-.022-.578.673-1.12 1.523-2.453.536-.802-.594-1.576.376-1.767 1.895l3.42-1.173c-.636 2.86-1.144 3.137-3.316 1.84l-.31 3 .575.08.31-1.73 2.42.804c-.52.9-.663 2.097-2.12 1.375-.12-.06-.865.608-.852.922.027.65.363 1.29.918 1.897.05-.44-.03-.97.185-1.3.246-.377.764-.806 1.157-.8.594.008 1.473.15 1.21 1.136-.128.47-.437 1.108-.82 1.256-1.8.68-1.908 1.135-.35 2.652.237-.614.315-1.306.7-1.685.405-.396 1.105-.49 1.93-.818l-.272 1.738.443.146 1.124-3.345c-2.157.688-2.096-.692-2.34-1.77 2.113-.236 2.113-.236 2.48 1.186.825-1.595.785-1.5-.712-2.066-.472-.182-.667-1.084-1.068-1.796h2.226l.213 1.508.456.055.494-2.653-2.84-1.113.26-.903c.72.17 1.452.302 2.158.518.278.084.503.35.752.532.08-.348.263-.713.208-1.037-.044-.26-.334-.565-.592-.684-.758-.348-1.554-.614-2.335-.913l.235-.793 3.016.503.19-1.402-.04.036c-.004-.01-.01-.02-.013-.028.008-.003.015-.003.024-.003l.408-1.82.76 2.846 3.373-1.2-.58 1.94c-.795 0-1.57-.118-2.284.043-.428.096-.8.595-1.096.99-.065.085.284.48.45.74l-1.017 1.917 3.8-.408-2.054 2.372.972.112c-.282 1.813-.697 2.095-2.467 1.592-.89-.254-1.588-.4-1.102.97.094.264-.258.686-.527 1.328.904-.603 1.52-1.235 2.234-1.38.28-.057.78.98 1.228 1.577l1.207-1.61c-.022-.032-.242-.375-.457-.707l1.318-2.15c1.262 1.74 1.262 1.74-.212 2.864 1.667.146 2.172-.595 1.61-2.144-.446-1.225.128-2.154 1.146-2.886 1.214 1.3 1.64 2.51-.145 3.82 2.327-.438 2.853-1.445 2.173-3.198-.23-.592.15-1.416.258-2.18 2.014.98 2.02 1 1.012 3.575l2.14-2.195.396.145-.727 1.73c.778-.185 1.592-.585 2.316-.466.404.067.663 1.004 1.027 1.612-1.14.154-2.02.82-3.065-.625-.702-.967-1.814.25-2.5 1.32 2.6-.645 2.622-.637 3.383 1.59-1.018-.268-1.954-.307-2.633-.74-1.183-.76-1.94-.573-2.785.786 1.422-.024 3.24-.88 3.02 1.553-1.168.075-2.463.612-3.26-.943-.08-.152-1.184.223-1.814.353l.1.463h1.9l-.212 1.823c-.616-.307-1.224-.637-1.854-.915-.415-.184-.898-.47-1.286-.394-.533.107-1.005.515-1.7.905l3.3.852c-1.136 1.102-1.975 1.813-3.076.182-.655-.972-1.876-.107-2.683.57l.113.468 2.066-.482 1.358 1.33-2.385.816.1-.34c-.806-.297-1.596-.682-2.43-.838-.25-.047-.617.54-1.214 1.106l2.477-.25.46 1.88c-1.032-.01-2.167.632-2.773-.853-.077-.2-.75-.364-.955-.24-.658.406-1.224.957-2.036 1.63 1.393.52 3.143-1.527 3.782.942-1.042.7-2.08 1.59-3.18-.15-.103-.16-.815-.132-1.085.05-.44.29-.748.778-.965 1.504l1.922-.82 1.202 1.704-3.956-.328-1.555 1.644 6.155-1.05c.283-.055.488-.486.74-.73l2.18-2.082c.795 2.257-.427 2.693-2.115 2.752l.24.612c.79-.09 1.643-.04 2.346-.343.303-.13.193-1.042.452-1.496.427-.746 1.002-1.405 1.474-2.048 2.22 1.94-.056 2.462-.806 3.468.75-.01 3.122-1.77 3.082-2.3-.02-.273-.27-.562-.482-.777-1.273-1.29-1.268-1.384.32-2.62l1.564 2.274c.135-.763.37-1.37.24-1.46-1.455-1.003-.517-1.983-.04-2.975l1.446 1.56-.95 1.362c.792-.488 1.93-.623 1.35-2.1-.265-.677.215-1.645.432-2.912.78 1.31 2.215 2.017.715 3.305l1.822-1.06c-1.5-1.126-.684-1.987.16-2.873 1.507.485.98 1.504.402 2.598 1.606-.562 2.558-1.103 1.328-2.782-.287-.392.194-1.344.358-2.234 1.516 1.126 1.516 1.126.938 3.678l2.1-1.504c-1.638-1.184-.185-2.024.047-3.217 1.3 1.196 1.53 2.198.018 3.217 1.932.29 2.388-.206 2.228-1.8-.067-.667.444-1.394.703-2.123 1.614.91 1.614.91.343 3.245l1.812-.782.23-3.02c2.104.905 2.123 1.215.513 3.18 1.804.343 1.724.325 2.1-1.358.182-.823.717-1.57 1.138-2.443 1.586 1.84.372 2.658-1.157 3.67l1.504-.112v1.202h-1.614l2.47 2.793-.212.326c-.67-.198-1.37-.33-2-.617-.322-.15-.717-.557-.74-.873-.145-1.964-.2-2-2.337-.943 1.294.518 2.605 1.014 1.562 3.187l-2.605-3.338-1.45 1.24c-.008.01-.01.022-.015.033-.01.003-.02.003-.03.005v-.003l.047-.044.001-.003.003-.003h-2.51l2.57 2.45c-2.523.39-3.188-.16-2.95-2.483l-1.84 2.15-2.462.183 2.06 1.81-.447.7-2.558-1.306-2.337 1.48.114.32h7.343c-.053-.975.24-1.91 2.26-1.407l-1.62 1.648c.396.127.886.45 1.264.352.383-.1.984-.69.928-.942-.543-2.462 1.4-1.544 2.32-1.988l.42.442-1.98 2.03h2.44c-.57-1.4.072-2.18 1.615-2.656l-.253 2.77.645.28c.17-.41.48-.816.482-1.225.013-1.66.037-1.735 2.11-2.146l-1.353 3.225c.818-.133 1.8-.117 2.007-.9.722.256.943.405 1.05.348 1.492-.8 3.606-.315 4.6-2.196.044-.08.72.17 1.115.273-1.308.49-1.31.513-.378 2.138-1.082-.734-1.973-1.074-2.4.298-.455.306-1.64-1.357-1.52.498-.972-.42-1.91-.627-2.784.508l1.715 1.038-.515 1.66-1.338-.58c-.267-.96-.275-1.7-.65-2.1-.255-.268-1.028-.112-1.55-.025-.198.034-.47.4-.467.627s.274.58.482.626c1.39.303 1.184 1.248.974 2.32-1.08-.482-2.683-.367-1.908-2.363.1-.256-.4-1.03-.736-1.115-.575-.143-1.24.07-1.868.132l.724 1.725.37-.09-.496 1.626c-1.973-.32-2.048-.528-1.33-2.387.098-.25-.342-.952-.668-1.073-.503-.185-1.124-.048-1.695-.048l-.338.514 1.146.716-.876 2.135-1.774-2.474 1.093-.47c-.086-.17-.124-.33-.175-.334-.9-.08-1.8-.14-2.867.062 1.813.41 1.464 1.57 1.193 2.89l-2.118-1.475.8-1.96-3.244.273.017-.032-2.695.117-.213.35c1.372.453 2.085 1.178 1.093 2.826l-2.194-2.653-1.9 1.146 2.077.793c-.58 1.202-1.11 2.072-2.902 1.62-.84-.21-2.015.908-3.04 1.423l.344.626 1.38-.8L120.893 35c-1.68 1.482-2.755-.076-4.09-.74l-.832 1.214 2.964.873c-1.405.9-2.736 1.577-3.57-.533l-1.803.938.07.498c1.16-.3 2.198-.42 2.323 1.118-1.93.218-3.778-2.417-5.723.135 1.97.254 3.875.54 5.79.715.388.037.854-.28 1.218-.533.688-.476 1.328-1.022 1.987-1.537l.455.593-1.652 1.22.034.297 2.644-.528-.82-1.498.922-1.244.54-.01.288 2.77 1.065-.24V35.27c1.243.853 1.836 1.6.363 3.086l2.2-.42-.58-3.33c.906.518 1.727.72 1.84 1.12.15.526-.26 1.2-.4 1.756 1.64-.105 1.798-.44 1.157-2.175-.188-.512.077-1.19.138-1.846 1.285.774 2.167 1.586 1.163 3.174l1.492-.867-.863-2.91 2.373 1.028-.74 1.536.09.36c.745-.503 1.93-.865 2.143-1.536.397-1.257 1.14-1.183 2.074-1.214.645-.022 1.285-.207 2.033-.34-.73 2.413-2.308 3.05-4.426 2.778l2.443 1.357-.378.72c-.66-.385-1.296-.83-1.99-1.132-.433-.185-.96-.16-1.32-.21l1.437 2.498-.357.372-3.23-2.194 1.09 2.865c-1.097-.287-2.52.1-2.073-1.923l-2.196.503 2.18 1.55c-2.22.585-2.354.512-2.752-1.272l-1 .354.713 2.368c-2.147-.543-2.23-.632-2.017-2.106l-.91.272c-.246.07-.496.13-.63.163l1.285 1.78c-.31.07-.69.287-.922.18-.645-.293-1.878-.315-.8-1.654h-3.41c1.258.872 2.137 1.638 3.146 2.135 1 .495 2.116.807 3.216 1.028.655.133 1.53.296 1.364-1.066-.042-.354 1.1-.853 1.7-1.287l.37.354-1.243 1.887h2.302c-1.353-1.722.293-1.988.877-2.773l.538.176-.848 2.684c.608-.01 1.483.5 1.692-1.097.077-.578.706-1.082 1.262-1.876l.646 1.874-1.88 1.22c2.377.474 2.424.372 2.6-1.66.04-.5.734-.943 1.148-1.436 1.473 1.532.113 2.234-.73 3.058l.414.35 2.7-1.385-2.085-3.378c1.58.635 3.597.23 3.047 2.796l1.22-1.336-1.96-2.138.312-.585c.622.135 1.337.13 1.833.455.322.212.328.91.55 1.635l1.4-.792-2.203-2.93c2.695-.432 2.985-.174 2.82 2.21l1.198-2.003.406.29-.253-.55-.154.26-1.72-1.223.234-.416h2.035l.378 1.38 1.305-1.197-2.168-2.123c1.556-.133 2.768-.484 2.623 1.45l1.26-.783-1.516-1.813c2.048-.416 2.26-.26 2.045 1.577l1.327-.88-1.04-2.368.405-.293 1.68.995-.635 1.28c1.564-.45 1.603-.707 1.3-1.835-.147-.567.326-1.296.58-2.157l1.112 1.423-1.04 1.455 2.87-.51 1.282 2.014c-1.14-.15-2.29.887-3.27-.508-.103-.146-.708.06-1 .094l1.74 2.58c-1.5-.26-2.636-.414-2.417-2.177l-2.097 1.24c1.306.005 2.436.047 1.71 2.222l-2.213-1.1.042-.52-1.24 1.012 2.434 1.328c-1.68 1.064-1.753 1.044-2.975-.614-.282.23-.575.443-.834.692-.27.258-.505.55-.922 1.012l1.696-.316.715 1.437-.283.42-3.044-1.035-1.47 1.636 2.368-.307.08.518c-.83.555-1.502 1.126-2.807.7-.587-.188-1.584.906-2.396 1.418l.246.496 5.366-1.66c.647-.206 1.254-.547 1.91-.72.647-.173 1.19-.25.748-1.15-.114-.234.077-.88.263-.942.362-.124.82.03 1.452.1l-.98 1.603c2.038-.65 1.174-2.21 1.586-3.528l1.67 1.065-1.37 1.617c1.08.003 1.08.003 2.585-2.817 1.597.647 1.597.647-.377 2.53l2.106-.522.37-3.042c1.532.567 1.532.567.413 3l.83-.377.17.4c-1.384 1.085-3.353.806-4.97 1.695.598.646.786 1.615 2.015.396.514-.513 2.064.018 3.14.284-1.032 1.014-1.88 1.682-3.494 1.125-.95-.33-2.34.608-3.617 1.002l2.14 1.296-.377.716-2.85-1.295-.73.77 2.707 1.15 1.254-.533.32.273-1.393 2.063c2.266-.913 2.304-.97 1.77-2.496l3.878-2.337.367.146-1.433 3.03c1.31-1.155 2.647-1.59 4.046-.406-.8.72-1.405 2.045-2.893.767-.288-.246-.97-.034-1.747-.034l2.65 1.673-.27.474c-.97.07-1.868.554-2.42-1.118-.423-1.28-1.395-.432-1.838.015l2.92 3.062c.32-.094.966-.184 1.503-.476.523-.287.937-.778 1.4-1.18l.387.598-3.654 2.053c.763.51 2.163.81 1.284 2.374-1.357-.232-2.755-.408-1.98-2.613l-2.613.196c2.005 1.05 2.28 2.698 1.06 4.05 1.394-1.243 3.62.05 4.907-1.8.2-.286 1.38.1 2.096.222.03.006.066.683-.055.744-.637.32-1.308.687-1.994.753-.68.067-1.39-.208-2.18.033l2.553 1.46c-1.287.424-2.052 1.2-2.648-.432-.263-.722-1.084-1.63-1.936-.56l1.6 2.12-.405.48-2.51-.517.41-2.008-1.496.25.36 1.433c-2.052-1.8-4.515-.536-6.637-.948v2.86c-.896-1.098-2.528-1.3-1.73-2.98l-2.7-.396c.77.887.674 2.085 2.115 2.347.467.085.74 1.245 1.1 1.916l-.372.236-2.144-.867c-.07-2.476-1.118-4.53-5.29-4.895l-.18.382 3.585 1.515.027.434-2.047.64-.6-1.675-.474.12.465 2.37c1.317.08 2.598-1.63 3.75.706l-3.405.395c.44.5.712 1.223 1.873.622.512-.263 1.272-.043 1.92-.043l-.02.832h-3.38c.5.463.952 1.103 1.153 1.03 2.195-.776 1.545.96 1.78 1.922.046.188.168.357.263.552-2.465.684-2.45-1.57-3.227-2.923l-.9 3.64c-1.395-1.01-1.417-1.774-.317-3.08.538-.64 1.03-1.204.017-2.2l-.702 2.102c-.17.015-.52.145-.78.044-.452-.176-.848-.494-1.267-.75.38-.39.693-.964 1.157-1.14 1.433-.552 1.685-1.016.906-2.31-.552 1.018-.974 2.32-2.518 1.332.3-1.57.537-1.735 2.104-1.574.72-2.224.118-3.545-1.322-3.5v3.1c-1.27-1.376-2.285-2.355-.503-3.573l-4.968-3.335c-.052 1.233.326 1.98 1.478 2.35.74.24 1.42.658 2.033 1.21-1.278.56-2.405.76-3.076-.826l.31 1.65 3.457 1.366c-1.37 1.113-2.53 1.332-3.736-.414l.312 3.13 1.517-.98 1.33 1.55c-1.06.45-2.114 1.108-2.916-.528.293.947-.4 2.396 1.573 2.047.592-.105 1.29.4 2.217.722-1.494 1.145-2.51 1.132-3.444-.142.057 1.35.547 2.366 1.95 1.84 1.4-.523 1.813.324 2.512 1.122-1.306.823-2.444.98-3.532-.61.406 2.276 1.244 2.713 2.8 1.746.898-.555 1.744-.774 2.973.518-1.146.216-2.076.668-2.83.466-1.162-.3-.904.352-.95.9l-1.38-.55c1.7 1.82 1.576 2.403-.53 3.325V64.74c-1.262 1.082-2.36 2.396-4.47.875l3.713-1.61-1.05-1.98c-.7 2.505-2.11.526-3.184 1.145.67-1.798 1.582-2.594 3.533-1.165l-.824-3.046-1.725 1.71-1.987-.8c1.106-.33 1.79-2 3.137-.882l.927-1.878-.46-.293-1.428 1.054-2.045-1.294c1.032-1.138 2.055-1.38 3.315-.457v-1.258l-3.287-.6c1.065-1.243 2.006-1.668 3.378-.78l-.636-2.186c-.91 1.258-1.735 1.402-2.822-.145l2.742-.42c-.33-1.625-1.033-3.128-2.747-4.01-.008-.027-.014-.055-.022-.08a1.64 1.64 0 0 0-.083.009l-2.435-1.965c-.347 2.105-.132 2.276 2.435 1.965.013.01.027.022.038.03.024.013.043.027.066.04l.46 1.734-2.84-.637.264 1.1 3.164.725-.096.73h-2.986l-.062.96 2.666.952-.14.578c-.93.614-1.842.913-2.61-.486-.644 1.493-.628 1.394.88 1.616.58.086 1.078.736 1.72 1.2-1.457 1.16-2.485 1.332-3.24-.442-.242.61-.513 1.03-.55 1.47-.022.268.26.74.503.82.82.263 1.685.39 2.957.66-1.695.912-2.944 1.822-3.5-.455-.73 1.108-.7 1.064.15 1.642.668.453 1.253 1.03 1.986 1.65-2.143 1.073-2.802.632-3.013-1.66-.242.434-.71.88-.69 1.3.09 1.895.142 1.893-1.21 2.686-1.202-1.743.255-2.91.895-3.957l-2.83-.984c1.26-1.5 2.336-1.564 3.55-.165l1.072-2.52c-1.55 1.38-2.51.97-3.66-.43l3.573-.357.462-1.313c-1.296.793-2.346.912-3.366-.73l3.066-.29.326-1.153h-3.09l-.07-.697 3.154-.64-.27-2.08-.42-.216c.018 2.246-1.43 1.663-2.825 1.35.528-.42.995-1.017 1.597-1.23 1.733-.61 1.808-.702.733-2.777-.15 1.56-.622 2.606-2.35 2.033.745-1.096 1.455-2.102 2.085-3.156.037-.062-.566-.504-.805-.713l-.694 2.714-1.43-1.267c1.57-1.548 1.562-1.62-.325-2.485-1.038-.48-2.102-.905-3.202-1.376-.584 1.46.567 1.4 1.188 1.63.58.213 1.24.208 2.1.335-1.543 2.043-2.157.565-2.92-.357-.036 2.105.088 2.22 1.615 2.168.424-.014.9.202 1.263.434.102.063.024.75-.128.82-.4.2-.913.3-1.358.258-.278-.027-.523-.39-.93-.72v2.082l1.77-.674 1.075 1.098c-.975 1.11-1.87 1.12-2.752-.08-.363 1.18 0 1.582 1.07 1.644.74.042 1.466.35 2.552.63l-2.928 1.046-.373-1.342-.38-.008-.123 1.87 3.166.447c-1.5 1.73-2.177 1.78-3.66.174v2.14c.734.35 2.28-1.026 2.52 1.256l-3.288-.336-.048.268 2.716 1.87-.132.612-2.474.234-.165-1.63c-.74 1.405-.75 3.4-3.014 3.203.24-1.315-.9-3.584 2.57-3.293-2.238-1.08-2.387-1.04-3.424.488-1.556-1.078-1.564-1.43-.322-2.495.278-.237.185-.906.28-1.463l-1.884 1.36c-.146-1.42 2.252-2.015.608-3.538l-.962 2.184-.773-.302 1.046-3.138-2.637 1.005 1.26-3.338-.325-.286c-1.344 1.728-3.086 1.4-5.06 1.07.3.375.503.636.726.868.258.268.543.508.49.46l2.577-.48.236.663-2.002.992c.35.206.712.524 1.13.642.57.16 1.186.154 1.772.263.047.008.067.494.046.5-.63.13-1.27.23-2.453.42.66.333 1.007.578 1.39.684.656.182 1.336.275 2.006.404l-.083.724-2.152.16.357 1.084c2.186-.345 2.186-.345 2.798.933l-2.29.462c-.408 1.183 2.888 1.814.608 3.39l-1.58-.56.246-1.393-3.273 1.25c.53-1.947 1.577-2.196 2.9-1.994v-2.326c-1.074 1.878-2.125 1.964-3.36.65.425-.216.88-.637 1.353-.66 2.1-.102 1.292-1.13.646-2.24l-.994 1.553-1.657-.41c.038-1.7 1.338-1.484 2.803-1.567l-1.507-2.59-.328.138.28 1.424h-2.44l1.697-2.015-1.682-1.35c.832 1.935-.39 1.904-1.732 2.455l.796-2.677-2.39-.79 1.38 1.85-1.7.367-.373-2.14-1.862-.4-.267.368 1.5.967-1.038 1.08-1.648-2.07h-.914c-.4 1.636-.4 1.636-.92 1.493l.33-.965-.264-.2-1.266 1.766 4.234.424c1.752.143 2.76 1.124 3.316 2.728.928 2.684 1.248 5.313.055 8.052-.703 1.61-.647 3.34.27 4.96.23.405.29.905.43 1.36l-.043-.044c-2.267-2.18-2.608-4.7-1.556-7.625.386-1.074.246-2.336.348-3.513l-.528-.142c-1.224 1.11-2.5 2.167-3.63 3.363-.284.298-.326 1.355-.085 1.532 1.567 1.163 1.663 2.977 2.026 4.578.22.972-.296 2.1-.482 3.174l-.42-.03c.92-2.807.178-5.092-2.116-7.122 0 .97.145 1.766-.036 2.476-.24.945-.328 1.708.057 2.717s.083 2.274.083 3.43h-.576V65.4c-2.265 2.596-4.333 5.114-5.135 8.35-.986-1.753.375-4.945 4.104-9.632l-2.043-4.206-.41-.12-1.532 5.775-.2-1.88c-.182-2.154 1.027-3.838 1.868-5.67 1.064-2.316 1.33-5.107-.838-6.363-.336.5-.618 1.072-1.033 1.515-1.78 1.907-1.178 4.322-1.215 6.487-.066 3.54.4 7.084.522 10.63.1 2.85.022 5.705.022 8.56l.402.13 2.303-4.248c-1.12-.868-1.404-1.788.056-3.018l.49 2.375c.357-.494.463-1.054.46-1.614-.005-.69-.183-1.386-.123-2.066.028-.347.4-.664.634-.994.312.562.75 1.098.886 1.7.072.315-.4.75-.61 1.13a5.2 5.2 0 0 1 .208.132l2.118-1.475-.347-.08.853-3.2.7.16-.608 2.92c2.445-.562 2.48-3.234 4.01-5.2.312 1.04.824 1.857.67 2.515-.12.512-1.07.83-1.785 1.325l2.744.305-.037.434-1.45.726c-.838-.78-1.724-1.84-2.577-.1l2.373.515c-1.18 1.195-2.1 1.394-2.85-.083l-1.367.966 2.444.885c-1.408 1.577-2.797-1.23-4.063.48l2.007.5-.02.593-2.915.322-.234-.49-2.04 3.4c1.2-.752 1.95-1.344 2.804-1.748 1.677-.796 3.517-1.306 5.078-2.276 1.432-.885 2.652-2.158 3.81-3.405.25-.268-.104-1.176-.292-1.75-.25-.755-.613-1.473-.928-2.206l.592 1.05.678-1.455.89 2.372c.886-1.055.82-1-.217-2.238-.413-.493-.472-1.282-.692-1.935l.38-.334 1.992 1.878.65-1.323-.536.103-1.262-3.184.34-.328 2.417 1.735c.556-.66 1.084-1.407 1.746-2.008.335-.302.914-.338 1.383-.493.014.493.2 1.078-.005 1.452-.22.396-.79.617-1.235.87-.353.2-.744.334-1.243.55l2.5.823c-.122.254-.262.733-.36.724-.763-.065-1.515-.226-2.43-.382l-1.303 1.32 2.9-.343c-.705 2.1-2.017 1.096-3.154 1.005l-.463 1.808c1.07-2.025 2.56.372 3.835-.223l1.526 1.443c-.274-.725-.32-1.268-.612-1.543-.758-.706-.755-1.464-.14-2.104.145-.15 1.004.4 1.554.617l-.578 1.843c1.823-.78 1.95-1.435.726-2.523-.32-.286-.556-.745-.66-1.167-.1-.36.063-.782.114-1.207 2.01-.088 2.245 1.336 2.213 3.043.31-.416.667-.81.915-1.26.145-.262.2-.877.154-.892-1.713-.554-.92-2.172-1.403-3.23 2.572.712 2.836 1.084 1.803 2.912l1.493-.69-.706-3.194c1.765-.23 1.586.823 1.762 1.913.73-.818 1.496-1.61 2.193-2.457.85-1.032 2.313-1.012 3.023.088.367.566-.788 1.67-1.868 1.64-2.226-.06-3.26 1.454-4.614 3.24 1.428-.22 2.717-.82 3.075 1-.82.578-1.518.767-2.48-.212-1.165-1.188-1.592.295-2.59 1.074h3.547c-1.63 1.777-1.936 1.788-3.524.437-.208.196-.456.38-.637.614-.188.248-.314.546-.592 1.05.546 0 .994-.02 1.438.005.405.024.8.093 1.28.15-1.044 1.873-1.887 1.89-3.043.09l-1.496 1.798 2.674.277c-.754.847-1.313 2.057-2.563.618-.225-.258-1.456.36-2.566.668 2.407 1.214 6.07.71 7.7-.82-1.25-1.256-.363-2.02.79-2.864l.593 1.452-.884 1.09.182.275 2.014-1.082c-1.44-1.805-1.388-2.063 1.017-3.79l-.5 3.254c1.455.017 1.744-.467 1.35-1.767-.235-.772.052-1.704.108-2.64 1.956 1.143 2.104 1.607 1.182 3.062.557-.328 1.18-.593 1.63-1.033.105-.103-.477-.778-.545-1.22-.102-.663-.027-1.352-.027-2.42.876.437 1.826.663 1.852.97.053.63-.388 1.3-.66 2.05 1.25.15 1.87-.76 2.003-1.676.348-2.403.438-2.552 2.643-2.03.288 2.35-1.906 2.653-3.176 3.598l2.75.94c-1.228.945-2.106 1.7-3.075.2-.11-.17-1.336.375-2.412.698l3.51 1.144c-1.28 1.087-2.198 1.46-3.123.04-.154-.24-.824-.41-1.066-.275-1.32.74-2.576 1.587-3.706 2.69l1.508-.547.4 1.324c-.592.025-1.3.278-1.753.034-1.46-.81-1.423-.877-3.147.5l7.214.712c.163.015.57-.533.513-.658-.84-1.8.957-1.262 1.437-1.873l.41.325-1.394 1.738c1.864.166 2.045-.127 1.982-1.842-.024-.6.748-1.233 1.157-1.848l.592.215-.515 2.565c.653-.414 1.407-.752 1.926-1.306.17-.182-.28-.936-.565-1.786l1.296-.988.976 1.305-.945 1.13c.904-.876 2.83-.733 2.658-2.774-.03-.36 1.502-.85 2.605-1.004-.42.77-.697 1.69-1.3 2.266-.645.62-1.6.915-2.455 1.37l3.4 1.31c-2.416 1.353-3.1 1.183-3.465-.595l-1.77.892c1.426.2 2.356.68 2.298 2.247-1.332.032-2.9.513-3.215-1.735l-2.44.967 2.796.986-.23.814-2.712-.588c-.884-.176-1.774-.328-2.704-.196 2.924.927 5.684 2.976 8.962 1.38.326-.16.757-.835.66-1.025-.725-1.4.404-1.493 1.167-1.88 1.536 1.384-.24 1.673-.603 2.638l1.838-.85c.692-.32.805-.536.213-1.247-.362-.434-.067-1.416-.067-2.15l.85-.076.585 2.4 1.826-1.324-1.55-.82.828-1.71 1.513.94 1.61-2.417c1.334 2.363-1.2 2.983-1.515 4.615l1.628-.127.538 1.45c-1.69.823-1.77.793-2.482-1.044l-.88.674-.755.575 2.234 1.636c-1.43.42-2.85.923-2.732-1.35l-1.854 1.262 1.894 1.054-.212.404c-.877.034-1.956.49-1.852-1.356l-2.78.947.02.46c2.385.322 4.766.72 7.163.9.522.04 1.282-.606 1.62-1.134.755-1.183 1.38-2.464 1.9-3.77.11-.275-.467-.828-.727-1.252l-.566.213.49-2.25 1.42.923-.163 1.39c1.05-1.614.98-1.543-.46-2.943-.447-.434-.395-1.377-.58-2.128 1.842-.262 2.005.776 1.81 2.12l.42-.006c.217-.713.52-1.42.593-2.147.022-.196-.753-.392-1.016-.708-.494-.597-.88-1.28-1.31-1.928l.246-.396c.613.126 1.37.08 1.798.428.366.297.357 1.055.597 1.906.583-1.485 1.125-2.56 1.4-3.696.127-.526-.265-1.178-.423-1.77l-.43.08.63-1.498.472-.01.607 1.913 2.914-2.53c.213-.193.415-.528.42-.802.02-1.263-.005-1.263 1.303-2.252l.184 1.96c2.96-1.347 2.96-1.347 4.352-.716-.613 1.296-1.19 2.403-2.963 1.336-.416-.25-1.212.128-1.81.528l2.027.6c-.702.835-1.333 1.605-1.972.458-.712-1.277-1.29-.592-2.3-.12l.767.326 1.416.54c-.126.222-.246.63-.375.634-.556.013-1.13-.044-1.667-.185-.265-.067-.47-.375-.754-.617l-1.01 1.488 2.426.152.018.75-2.625.286-.2-.43-.68 1.847 3.34-.453c-.905 1.944-1.973 2.1-3.482.892l-.45 1.832 3.256-.357-1 1.614c-2.9-.532-2.9-.532-2.6.637l2.732.312.013.66-3.325.566-.396 1.46 3.006-1.457c-.858 1.168-.88 2.516-2.54 2.04-.277-.077-.917 1.113-1.388 1.72l.467.466c1.474-.967 3.095-1.777 4.357-2.97.57-.543.396-1.847.62-2.792.15-.63.408-1.233.762-2.27l1.094 1.847-1.15 1.675.225.235c.508-.326 1.12-.565 1.492-1.008.26-.31.418-1.154.234-1.313-1.165-1.017-.694-1.878.156-2.717 1.513 1.215 1.513 1.215.725 2.83l.482.48 1.168-2.014c-1.182-.764-1.055-1.8-.302-2.903 1.772.567 1.94.898 1.18 2.29l.425.424 1.196-2.1c-.89-.567-1.697-1.413-.602-2.722 1.814.782 1.987 1.178 1.374 2.83.47-.486 1.125-.904 1.338-1.483.122-.328-.485-.923-.823-1.497l.14-1.734c1.868.253 2.25.934 1.393 2.62l.438.156c.196-.546.536-1.087.554-1.64.023-.8-.19-1.605-.297-2.385 2.613.005 1.577 1.47 1.34 2.59l1.967-.538.116.254-2.008 1.455 3.324.496M25.09 32.63l.014.005.033-.03 1.092 2.585c-2.694-1.455-2.694-1.455-3.627-1.05.58.43 1.113 1.15 1.622 1.136 1.323-.042 2.177.312 2.606 1.65V35.32c1.93-.66 2.154-.957 1.602-2.232l-1.892 1.56-.32-.28c.434-.477.92-.918 1.286-1.442.43-.61.758-1.295 1.26-2.18l-2.83 1.647c.255-1.003.335-1.577.557-2.088.117-.268.485-.427.74-.632-.427-.283-.82-.7-1.286-.81-.598-.14-1.254-.034-2.328-.034.575.98.912 1.654 1.34 2.26.494.7.573 1.102.163 1.522-.01.008-.023.015-.034.02m-2.717-.77c.672 1.13 1.583 1.437 2.717.77-.776-.867-1.498-1.94-2.717-.77m108.237-8.162c.003 1.085.27 1.855 1.628 1.386-.11-1.603-.465-1.895-1.628-1.386m-.055.024l.053-.024v-.03l-.053.055M39.694 54.866c.124.573.295.974.28 1.366-.042 1.228.287 1.977 1.724 1.664.128-.028.312.206.476.342l.25-2.083-2.73-1.29m25.646-2.97c-.09-.335-.842-.792-1.162-.708-1.675.438-.873 1.592-.58 2.64.81-.47 2.156-.45 1.743-1.932M42.887 45.7l-3.3 2.096c2.208 1.143 2.724-.16 3.3-2.096m5.327 7.906c.724 2.473.926 2.624 2.964 2.165-.543-1.29-1.645-1.777-2.964-2.165m-6.043-3.804c-2.002-.6-1.273 1.62-2.35 1.993 1.8.57 2.495-.01 2.35-1.993m14.887 8.332l.364-2.052-.587-.274-1.492 1.41 1.714.917m-1.478-3.868c.027-.066-.377-.446-.587-.45-1.826-.05-.716 1.53-1.238 2.368 1.517.058 1.5-1.1 1.824-1.917m10.848-.455c-.9.697-2.774.12-2.292 2.066 1.494.21 1.99-.7 2.292-2.066m-28.524 4.012l-2.46-1.238c-.017 2.148.102 2.208 2.46 1.238m8.7-11.684c-.08-1.76-.084-1.777-1.388-1.972-.404 1.478-.175 1.794 1.388 1.972m-1.42-1.977c.01.001.022.004.032.005l.014-.052c-.014.01-.03.022-.043.028zm-6.823 18.34l-2.91-1.02c.514 1.65 1.364 1.99 2.91 1.02M92.69 30.25c-1.835-.862-1.97-.792-3.302 1.724 1.68.41 2.8-.096 3.302-1.724m-8.585 7.58c-.705 2.285-.603 2.427 1.85 2.388.02-1.945.004-1.95-1.85-2.388m3.744-10.8l-.936-1.7-2.293.348 2.98 1.702.248-.34m-19.32-5.57c1.154 1.31 2.067.862 2.863-.353-.333-.137-.68-.24-.98-.42-1.058-.64-1.654-.316-1.884.774m3.56 3.104c-1.657.258-1.678 1.47-1.638 2.718.985-.595 2.397-.913 1.638-2.718m1.036 2.746c-1.722-.137-1.847.05-1.388 2.246.65-.63 1.947-.86 1.388-2.246m-1.374 2.312l-.014-.066c-.008.008-.017.014-.025.024a.16.16 0 0 1 .024.025l-.02-.023a.28.28 0 0 0 .011.027c.008.004.014.01.023.013zM28.076 61.31c-1.482-1.574-1.503-1.595-3.166-1.393.67 1.327 1.672 1.908 3.166 1.393m-1.4-3.74c-.354-.242-.82-.322-1.243-.468-.17 1.885.236 2.23 2.54 1.757-.542-.552-.868-.995-1.296-1.29m-1.27-.476c.01.004.02.006.027.01.001-.017.004-.028.005-.044.004-.004-.032.036-.032.036M131.64 50.33c1.852.537 2.417.098 2.008-1.614-.694.53-2.243-.055-2.008 1.614m.004.034c-.001-.014-.001-.024-.004-.033-.014-.006-.028-.01-.043-.014l.047.047m4.625-.265c-.806.475-2.498-.338-2.344 1.54 1.517.612 1.993-.37 2.344-1.54m4.353-4.842c-.834-1.2-.847-1.2-2.558-.985.54 1.122 1.124 2.12 2.558.985m-2.572-1.016c-.005.005-.042.037-.042.037.022-.003.037-.005.056-.008-.004-.01-.01-.02-.014-.03M78.062 61.757l-2.422.793-.17 1.402c1.892.366 1.9.344 2.594-2.195M38.38 36.35v-.04a.25.25 0 0 1-.044-.006l.023.025-.025-.025c.018.028.03.037.047.047zm2.618-1.822c-2.52-.35-2.638-.275-2.618 1.782 1.4.203 2-.717 2.618-1.782m-.343 8.058l-1.06-.345-.513 2.556.764.226.807-2.436m-14.948 3.04v1.857l1.78.68c.405-1.53-.394-2.214-1.78-2.537m-4.526-1.074l1.894-2.02c-1.835-.178-2.27.653-1.894 2.02m.02.067c-.008-.023-.013-.044-.02-.067-.008.008-.014.015-.022.023.014.024.027.034.04.044m6.744-.055c1.157.783 1.94.176 2.672-.64-1.023-.38-2.088-.94-2.672.64m73.06 31.908c1.277 1.192 1.865 1.096 2.924-.6-1.063.047-2.238-1.17-2.924.6M105.63 37.4c1.096 1.238 2.1.07 3.152-.12-.67-1.446-1.718-1.4-3.152.12M3.384 50.673"/></svg>