<?xml version="1.0" encoding="UTF-8" standalone="no"?>
<svg
   xmlns:dc="http://purl.org/dc/elements/1.1/"
   xmlns:cc="http://creativecommons.org/ns#"
   xmlns:rdf="http://www.w3.org/1999/02/22-rdf-syntax-ns#"
   xmlns:svg="http://www.w3.org/2000/svg"
   xmlns="http://www.w3.org/2000/svg"
   xmlns:sodipodi="http://sodipodi.sourceforge.net/DTD/sodipodi-0.dtd"
   xmlns:inkscape="http://www.inkscape.org/namespaces/inkscape"
   version="1.0"
   viewBox="0 0 1099.5485 1077.5009"
   preserveAspectRatio="xMidYMid meet"
   id="svg86"
   sodipodi:docname="floraXR_print.svg"
   inkscape:version="0.92.3 (2405546, 2018-03-11)">
  <defs
     id="defs90" />
  <sodipodi:namedview
     pagecolor="#ffffff"
     bordercolor="#666666"
     borderopacity="1"
     objecttolerance="10"
     gridtolerance="10"
     guidetolerance="10"
     inkscape:pageopacity="0"
     inkscape:pageshadow="2"
     inkscape:window-width="529"
     inkscape:window-height="427"
     id="namedview88"
     showgrid="false"
     inkscape:zoom="0.15038233"
     inkscape:cx="734.38367"
     inkscape:cy="717.76212"
     inkscape:window-x="0"
     inkscape:window-y="0"
     inkscape:window-maximized="0"
     inkscape:current-layer="svg86" />
  <metadata
     id="metadata2">
Created by potrace 1.14, written by Peter Selinger 2001-2017
<rdf:RDF>
  <cc:Work
     rdf:about="">
    <dc:format>image/svg+xml</dc:format>
    <dc:type
       rdf:resource="http://purl.org/dc/dcmitype/StillImage" />
  </cc:Work>
</rdf:RDF>
</metadata>
  <g
     transform="matrix(0.1,0,0,-0.1,-49.212246,1127.6792)"
     id="g84"
     style="fill:#000000;stroke:none">
    <path
       d="m 5893,11270 c -17,-6 -41,-22 -53,-37 -19,-24 -21,-38 -19,-108 3,-78 3,-81 -34,-131 -21,-30 -37,-63 -37,-79 0,-39 27,-79 72,-106 61,-37 84,-57 75,-65 -4,-4 -24,2 -45,15 -66,39 -144,71 -174,71 -71,0 -103,-50 -93,-145 9,-77 19,-93 125,-190 97,-89 114,-110 106,-131 -8,-21 -38,-11 -101,31 -121,82 -222,88 -260,16 -28,-56 -14,-118 43,-183 24,-27 31,-44 30,-72 -2,-46 34,-86 112,-123 122,-59 169,-107 156,-159 -7,-28 -20,-29 -111,-12 -73,13 -112,2 -145,-40 -40,-50 -11,-122 71,-177 67,-44 99,-76 121,-120 11,-22 31,-54 44,-72 30,-40 30,-57 -1,-77 -14,-9 -25,-24 -25,-33 0,-26 46,-96 79,-121 17,-12 38,-36 46,-52 15,-28 14,-33 -10,-80 -14,-27 -25,-54 -25,-60 0,-6 16,-51 35,-100 41,-105 45,-165 15,-198 -12,-12 -24,-22 -29,-22 -49,0 -490,-70 -599,-95 -35,-8 -65,-15 -67,-15 -2,0 -5,183 -8,408 -3,225 -10,429 -16,457 -6,28 -13,68 -17,91 l -6,41 91,47 c 102,53 103,55 38,124 -42,43 -60,43 -51,-3 6,-33 4,-36 -31,-51 -72,-30 -77,-24 -101,116 -27,162 -33,180 -114,335 -158,306 -368,603 -418,593 -8,-2 -20,-21 -26,-43 -13,-45 -46,-68 -86,-58 -40,9 -112,48 -241,129 -148,93 -303,168 -389,190 -73,18 -207,22 -235,6 -17,-9 -14,-12 21,-30 54,-28 98,-77 128,-142 38,-81 48,-147 44,-284 -3,-117 -4,-124 -33,-167 -16,-24 -33,-49 -37,-55 -5,-8 8,-21 35,-37 101,-60 186,-184 223,-327 24,-93 15,-264 -21,-385 -42,-144 -93,-221 -160,-242 -42,-14 -30,-25 46,-45 196,-49 360,-181 514,-413 142,-213 215,-374 215,-474 v -59 l -112,-69 c -62,-37 -160,-103 -218,-147 -58,-43 -111,-79 -119,-80 -8,0 -34,28 -59,64 -76,109 -226,292 -293,356 -65,61 -185,150 -294,217 -66,41 -260,123 -313,133 -32,6 -32,7 -16,25 16,18 16,19 -1,19 -14,0 -15,3 -5,15 11,13 7,15 -24,15 -32,0 -36,3 -36,25 0,34 24,41 68,20 l 37,-17 -20,22 c -36,40 -51,42 -84,14 -24,-20 -31,-22 -31,-10 0,20 -26,20 -64,1 -36,-19 -50,-19 -104,2 -48,18 -47,10 -18,110 12,43 13,71 4,155 -5,57 -8,144 -6,193 4,81 9,100 50,190 56,123 63,153 45,196 -35,84 -113,138 -199,139 -86,0 -222,-36 -348,-93 -77,-34 -206,-65 -330,-78 -121,-12 -258,-42 -298,-64 -140,-80 -303,-304 -357,-490 -22,-75 -16,-208 14,-315 55,-193 72,-271 86,-408 19,-172 30,-212 96,-347 60,-124 98,-172 144,-181 74,-14 136,25 238,147 45,53 69,72 132,103 43,20 103,56 134,80 94,73 247,222 301,296 29,39 59,70 68,70 22,0 138,-55 146,-69 4,-6 -8,-18 -28,-28 -43,-20 -47,-35 -7,-27 23,5 32,2 40,-15 7,-12 17,-21 24,-21 7,-1 28,-14 47,-30 40,-35 55,-37 70,-10 15,28 40,25 113,-11 139,-71 299,-189 433,-323 127,-128 132,-134 197,-264 37,-73 67,-143 67,-155 0,-27 -10,-42 -115,-172 -44,-55 -99,-131 -121,-170 -71,-121 -191,-346 -239,-447 -26,-54 -50,-98 -55,-98 -5,0 -12,21 -15,48 -4,26 -12,65 -19,87 l -13,40 -109,6 c -84,5 -123,13 -168,32 l -59,24 -69,214 c -38,118 -84,272 -103,343 -26,99 -41,136 -62,158 -38,40 -173,104 -259,123 -38,9 -90,22 -115,30 -60,19 -165,19 -219,0 -24,-8 -80,-19 -125,-24 -91,-11 -166,-41 -233,-96 -27,-21 -54,-35 -71,-35 -35,0 -87,-35 -185,-123 -54,-49 -76,-75 -76,-92 0,-16 -12,-33 -35,-51 -40,-30 -145,-165 -176,-227 -16,-31 -20,-51 -15,-85 6,-42 4,-47 -33,-83 -69,-66 -107,-234 -76,-332 16,-50 16,-57 1,-85 -12,-23 -16,-60 -16,-137 v -106 l 51,-54 50,-53 -7,-71 c -6,-64 -4,-76 21,-126 16,-34 47,-73 80,-101 46,-40 54,-52 59,-92 10,-76 53,-143 110,-174 33,-17 61,-44 85,-79 61,-89 110,-115 319,-169 74,-19 91,-20 150,-10 37,6 96,20 131,32 61,20 74,30 215,173 153,154 361,331 423,360 32,15 36,15 66,-3 18,-10 45,-22 59,-25 15,-4 50,-34 80,-66 l 53,-59 58,64 c 32,35 64,64 70,64 9,0 12,-76 12,-287 0,-184 5,-329 14,-400 7,-62 11,-119 7,-128 -5,-14 -8,-14 -35,0 -20,10 -58,15 -111,15 -48,0 -95,6 -115,14 -38,16 -40,15 -25,-15 12,-22 7,-24 -21,-8 -11,6 -25,8 -32,6 -7,-2 8,-15 33,-28 43,-23 44,-24 17,-27 -15,-2 -52,8 -83,22 -67,31 -142,34 -249,10 -38,-9 -99,-17 -135,-18 -53,-2 -81,-9 -150,-43 -103,-49 -110,-51 -280,-63 -74,-5 -167,-17 -206,-26 -70,-17 -71,-17 -189,9 -65,15 -120,25 -123,22 -9,-8 15,-29 107,-95 50,-36 91,-68 91,-72 0,-4 -26,4 -57,18 -133,60 -185,66 -198,24 -3,-11 -14,-24 -23,-29 -21,-11 -180,-51 -201,-51 -45,0 -181,-96 -181,-128 0,-8 -7,-11 -17,-8 -27,8 -92,-10 -124,-33 -19,-14 -43,-21 -76,-21 -53,0 -123,-16 -123,-29 0,-4 -14,-29 -31,-55 -48,-72 -26,-78 56,-16 51,38 81,54 119,60 28,5 76,19 106,30 57,22 119,22 147,-2 18,-14 16,-31 -2,-24 -21,8 -19,-4 8,-33 l 22,-25 -30,19 c -16,10 -41,25 -54,34 -18,12 -26,12 -29,3 -2,-6 -13,-12 -24,-12 -15,0 -18,-4 -13,-21 7,-20 5,-22 -29,-16 -29,5 -42,1 -67,-20 -26,-22 -34,-24 -55,-14 -34,15 -44,14 -44,-5 0,-8 -13,-20 -30,-25 -43,-16 -37,-29 14,-29 25,0 48,-6 55,-14 17,-20 126,-27 167,-10 42,18 45,18 37,-2 -5,-15 0,-16 48,-10 30,4 72,9 94,11 22,2 51,5 65,7 21,3 24,-1 22,-21 -4,-24 -3,-24 20,-8 47,35 68,42 89,29 10,-7 26,-12 34,-12 17,0 21,-25 5,-35 -25,-15 -5,-25 53,-25 75,0 126,13 157,40 36,31 80,24 48,-8 -6,-6 -9,-14 -6,-18 4,-3 26,13 51,35 50,47 67,53 43,16 -9,-14 -21,-37 -27,-53 -9,-24 -5,-22 35,18 72,70 60,19 -17,-71 -93,-109 -143,-151 -174,-147 -35,4 -52,32 -35,58 13,21 17,60 6,60 -4,0 -36,-25 -73,-56 -65,-56 -66,-56 -116,-50 -27,3 -79,6 -114,6 -56,0 -62,2 -56,18 28,66 29,72 17,84 -9,9 -26,5 -76,-22 -63,-34 -65,-34 -85,-16 -27,25 -27,70 -1,89 19,13 19,15 4,21 -10,4 -48,4 -86,0 -62,-6 -71,-4 -106,19 -40,27 -83,42 -148,52 -43,7 -59,-2 -49,-27 6,-15 138,-80 200,-99 52,-15 69,-29 55,-43 -5,-5 -10,-13 -10,-17 0,-16 89,-42 143,-41 57,0 58,-1 53,-24 -9,-36 21,-47 94,-34 63,11 79,10 227,-21 124,-26 159,-25 199,6 18,14 35,25 38,25 3,0 -4,-20 -16,-45 -31,-64 -15,-73 52,-30 73,47 132,65 247,74 81,7 108,14 156,39 36,19 80,34 117,38 70,8 61,-1 206,208 53,77 90,123 92,113 2,-9 -25,-73 -61,-142 -42,-83 -59,-125 -50,-125 41,0 165,72 238,138 44,40 85,72 90,72 6,0 37,27 70,60 33,33 67,60 77,60 10,0 31,18 46,40 15,23 61,87 102,143 66,89 80,102 108,105 25,3 38,12 57,42 29,46 40,54 53,37 5,-6 44,-118 87,-247 91,-273 148,-400 273,-600 79,-125 88,-146 74,-154 -9,-5 -41,-24 -69,-44 -43,-28 -54,-42 -59,-71 -22,-120 -139,-198 -315,-208 -66,-4 -92,-2 -116,11 -17,8 -80,70 -139,137 -131,148 -171,179 -230,179 -24,0 -46,-5 -50,-11 -3,-6 8,-30 25,-52 18,-23 45,-60 61,-81 58,-76 30,-93 -74,-43 -41,19 -120,65 -177,101 -112,72 -140,79 -157,42 l -11,-24 -58,18 c -115,35 -253,35 -253,-1 0,-6 24,-33 53,-61 28,-28 44,-48 35,-44 -10,3 -41,8 -69,12 l -52,7 7,-28 7,-28 -48,7 c -135,18 -197,18 -233,-1 -42,-22 -45,-43 -7,-61 22,-11 26,-18 21,-39 -5,-20 -1,-30 22,-50 l 29,-24 -30,5 c -133,24 -212,28 -259,15 -27,-8 -49,-18 -50,-24 0,-5 35,-29 79,-52 l 80,-42 -77,-1 c -72,0 -78,-2 -96,-28 -13,-17 -36,-32 -64,-39 -23,-7 -52,-19 -63,-27 -19,-14 -18,-16 30,-37 28,-12 46,-23 40,-25 -109,-29 -125,-36 -125,-53 0,-27 36,-46 115,-61 39,-7 74,-15 78,-17 5,-3 -27,-29 -71,-59 -44,-29 -83,-58 -87,-64 -4,-7 2,-18 14,-27 22,-15 22,-15 -17,-61 -48,-58 -65,-89 -58,-108 8,-22 41,-17 138,22 90,37 114,39 85,6 -14,-16 -15,-22 -2,-57 8,-22 14,-52 15,-68 0,-27 30,-67 50,-67 6,0 33,21 60,46 43,40 53,45 80,39 18,-4 36,-2 44,4 9,8 22,4 47,-15 27,-19 44,-24 79,-22 l 45,3 -3,87 c -4,104 11,147 88,243 116,146 353,307 455,309 33,1 41,-3 43,-19 4,-28 -60,-100 -108,-121 -22,-10 -40,-21 -40,-25 0,-13 69,-22 121,-16 71,9 128,37 194,97 31,29 85,70 118,91 50,33 69,39 112,39 56,0 139,-21 198,-51 l 37,-19 v -113 c 0,-86 4,-118 16,-135 24,-35 51,-28 75,20 12,24 53,81 91,128 61,74 79,89 141,118 39,18 89,50 112,70 22,21 87,62 145,92 58,30 122,73 144,94 l 39,39 43,-49 c 24,-27 42,-53 40,-59 -1,-5 -72,-63 -158,-127 -86,-64 -176,-141 -199,-170 -76,-91 -121,-130 -187,-161 -58,-27 -69,-29 -133,-23 l -69,7 v -30 c 0,-64 89,-101 240,-101 h 79 l 8,-37 c 4,-21 8,-94 8,-163 0,-168 -10,-186 -160,-293 -137,-97 -159,-118 -190,-181 -27,-54 -34,-126 -12,-126 15,0 49,22 95,62 42,36 98,39 111,6 24,-63 -120,-238 -249,-303 -82,-42 -189,-69 -275,-69 -116,-1 -145,22 -181,145 -8,27 -19,49 -24,49 -15,0 -49,-50 -69,-106 -16,-42 -18,-59 -10,-81 19,-52 62,-95 115,-120 30,-13 54,-29 54,-34 0,-5 -33,-9 -74,-9 -53,0 -77,-4 -86,-15 -7,-8 -29,-19 -50,-25 -53,-14 -67,-33 -46,-64 8,-14 30,-33 47,-43 29,-17 31,-21 27,-64 -3,-25 -21,-79 -41,-120 -60,-121 -46,-163 37,-114 34,20 52,25 78,20 30,-6 40,-1 84,35 27,23 57,39 68,38 11,-2 33,-23 50,-47 41,-58 60,-70 86,-53 11,6 35,12 54,12 30,0 39,-6 66,-45 17,-25 39,-49 50,-55 48,-26 88,2 97,69 5,39 8,41 39,41 35,0 59,26 49,52 -3,7 6,29 20,48 14,19 25,45 25,59 v 25 l 22,-22 c 12,-12 31,-41 42,-64 37,-77 85,-45 86,57 0,56 5,67 37,84 15,7 27,28 34,56 11,43 11,44 52,42 40,-2 42,0 54,37 8,22 16,73 20,114 6,71 7,75 36,85 l 30,10 -6,72 c -3,40 -13,100 -23,134 -9,34 -15,64 -12,66 2,2 24,-5 47,-17 52,-25 74,-17 79,30 2,22 9,32 28,36 35,9 31,33 -31,156 -30,60 -55,115 -55,122 0,6 8,20 17,30 15,17 15,21 -5,62 -24,47 -27,71 -13,81 13,7 114,-92 135,-133 21,-40 41,-41 61,-2 31,60 14,119 -66,221 -24,30 -50,60 -60,66 -9,7 -30,34 -45,60 -25,42 -29,58 -29,123 0,105 24,153 106,215 50,38 76,51 119,57 50,8 151,50 191,79 14,11 38,-3 150,-83 177,-127 352,-238 472,-300 54,-28 96,-55 95,-60 -2,-6 -46,-26 -98,-46 -52,-20 -97,-40 -98,-44 -2,-5 -21,-17 -43,-28 -21,-11 -43,-29 -49,-40 -6,-11 -33,-31 -60,-45 -28,-14 -50,-29 -50,-34 0,-4 -10,-12 -23,-18 -32,-15 -166,-139 -200,-185 -15,-21 -33,-38 -40,-38 -6,0 -20,-12 -29,-28 -38,-60 -93,-131 -166,-215 -42,-49 -85,-105 -96,-125 -10,-21 -45,-73 -76,-117 -54,-75 -73,-113 -133,-275 -13,-36 -43,-102 -66,-147 l -41,-83 v -144 c 0,-120 4,-159 24,-236 14,-55 31,-97 40,-102 9,-5 16,-17 16,-27 0,-9 11,-39 25,-67 30,-57 110,-126 227,-195 43,-26 87,-54 96,-63 28,-25 167,-57 273,-63 135,-8 322,12 376,40 62,32 228,156 305,226 66,61 128,159 128,203 0,10 8,33 17,51 15,27 18,60 18,197 v 165 l -32,45 c -18,24 -33,49 -33,56 0,19 -119,135 -181,177 -49,34 -143,68 -289,107 -74,20 -191,12 -283,-19 -169,-57 -214,-98 -283,-251 -28,-62 -29,-72 -29,-205 v -140 l 43,-87 c 48,-97 84,-134 170,-177 76,-38 111,-43 212,-31 133,16 270,94 285,160 4,17 25,57 47,90 48,72 47,94 -10,207 -35,71 -37,73 -96,93 -106,36 -179,22 -256,-47 -78,-70 -115,-177 -74,-217 24,-24 39,-20 94,29 75,67 130,59 130,-19 0,-49 -89,-106 -167,-106 -25,0 -85,64 -113,119 -19,39 -21,53 -15,127 7,74 12,90 44,136 53,77 106,101 225,102 113,1 148,-11 211,-73 107,-104 128,-136 140,-216 12,-73 7,-103 -26,-171 -35,-75 -127,-164 -215,-211 -68,-37 -206,-73 -275,-73 -97,0 -261,72 -340,150 -84,82 -101,135 -107,326 l -4,152 42,98 c 23,55 50,108 61,120 10,11 19,26 19,32 0,7 7,20 16,30 8,9 50,60 94,112 43,52 92,104 109,115 17,11 56,48 86,82 122,137 428,333 696,445 75,31 163,69 195,85 33,17 75,36 94,43 19,8 62,32 94,54 l 60,39 130,-21 c 72,-12 178,-27 236,-33 66,-7 111,-17 122,-26 30,-27 42,-84 42,-198 -1,-129 -16,-184 -98,-340 -64,-122 -237,-397 -280,-445 -18,-19 -39,-48 -47,-64 -22,-47 -111,-130 -148,-141 -62,-18 -89,-86 -68,-168 10,-37 64,-61 119,-52 29,5 47,17 70,46 22,27 39,39 52,37 24,-4 100,-95 161,-193 64,-104 64,-105 5,-169 -38,-43 -50,-64 -50,-89 0,-50 33,-95 75,-103 85,-16 148,26 164,109 8,47 25,77 43,77 16,0 166,-101 251,-169 98,-78 137,-136 137,-205 0,-66 31,-130 72,-147 27,-11 35,-10 66,7 48,26 73,63 79,115 4,36 0,50 -21,78 -14,19 -26,46 -26,60 1,38 33,103 83,169 80,104 293,292 316,278 5,-3 19,-25 30,-49 40,-80 114,-108 168,-63 82,69 61,189 -37,211 -39,8 -76,55 -140,174 -29,53 -78,141 -109,195 -31,55 -72,129 -91,165 -20,36 -65,115 -100,175 -68,117 -137,260 -177,366 -34,89 -44,259 -19,325 10,25 21,45 26,45 4,0 61,9 127,20 231,40 480,115 702,214 120,52 124,51 115,-34 -13,-111 -53,-201 -233,-520 -86,-153 -122,-247 -146,-387 -21,-119 -19,-170 11,-275 62,-222 210,-431 350,-495 46,-21 66,-25 109,-20 54,5 169,57 178,79 7,17 20,0 75,-99 58,-106 212,-294 302,-370 129,-108 339,-222 448,-243 60,-11 151,12 187,48 101,101 105,554 10,1105 -28,163 -65,330 -71,324 -3,-3 5,-60 16,-127 12,-68 19,-129 16,-137 -4,-8 -22,-13 -53,-13 l -48,1 33,14 c 17,8 32,18 32,22 0,4 -12,56 -27,115 l -27,106 -51,7 c -55,6 -104,-6 -106,-27 0,-7 -5,1 -10,17 -5,19 -25,43 -52,62 -63,44 -169,173 -142,173 3,0 41,-34 86,-75 113,-104 228,-156 245,-110 6,16 -72,186 -143,310 -48,84 -127,199 -276,400 -49,65 -123,171 -164,233 -43,66 -78,111 -83,106 -10,-10 7,-88 45,-199 25,-76 43,-171 26,-145 -5,8 -32,85 -61,170 -29,85 -64,177 -78,203 -23,44 -24,49 -10,64 29,29 63,7 151,-95 128,-148 407,-531 470,-643 10,-17 20,-29 23,-26 10,10 -43,101 -123,212 -43,61 -98,138 -122,173 -23,35 -106,140 -183,234 -77,94 -142,176 -144,183 -3,6 35,43 83,82 157,126 348,317 511,512 24,28 49,51 57,51 37,0 165,-157 165,-203 0,-11 8,-29 17,-39 12,-13 18,-43 21,-102 6,-106 -16,-207 -65,-307 -35,-70 -37,-80 -37,-169 0,-150 24,-179 253,-300 157,-82 233,-143 273,-217 33,-60 43,-104 63,-274 20,-175 36,-221 96,-281 48,-48 136,-98 173,-98 34,0 147,-61 192,-104 48,-47 55,-76 29,-126 -14,-28 -14,-30 3,-30 9,0 28,7 41,16 22,16 23,22 19,108 -5,141 -37,189 -191,291 -133,87 -147,111 -148,259 0,60 -7,115 -21,161 -11,39 -21,86 -21,106 -1,23 -12,47 -31,70 -16,19 -35,48 -42,66 -8,17 -35,46 -60,65 -30,21 -53,48 -65,75 -11,27 -34,53 -65,75 -47,33 -63,49 -138,134 -35,40 -38,48 -34,89 3,26 17,62 32,83 26,38 36,102 16,102 -6,0 -15,-11 -20,-25 l -9,-25 -52,20 c -73,29 -109,49 -109,61 0,14 63,39 98,39 16,0 46,-11 66,-25 20,-14 39,-25 41,-25 9,0 35,60 35,80 0,24 -17,26 -42,3 -17,-15 -23,-15 -93,7 -86,27 -101,38 -81,65 29,40 186,25 186,-18 0,-8 4,-7 10,3 17,26 11,92 -15,173 -14,43 -25,89 -25,103 0,30 -70,164 -87,164 -6,0 -14,-9 -18,-20 -8,-26 -84,-90 -107,-90 -22,0 -22,-1 -1,52 23,61 51,98 74,98 23,0 24,4 2,41 -21,35 -43,38 -43,6 0,-61 -115,-131 -134,-81 -21,55 6,174 38,161 6,-3 28,-12 49,-21 59,-26 43,-2 -23,33 -38,21 -60,38 -59,49 1,27 54,107 73,110 10,2 44,-8 75,-22 38,-17 90,-29 157,-36 54,-6 118,-15 142,-20 26,-6 50,-7 60,-1 9,5 39,12 66,16 73,11 264,100 311,146 99,95 137,121 169,115 342,-61 717,-46 817,33 14,10 40,26 59,35 19,9 46,23 60,31 47,26 125,1 308,-100 55,-30 73,-35 131,-35 38,0 83,5 102,11 49,17 99,57 99,80 0,24 -10,24 -53,-1 -54,-32 -94,-15 -215,89 -89,77 -229,141 -324,148 -82,7 -129,-4 -266,-63 -137,-58 -219,-78 -303,-71 -92,8 -179,39 -289,105 l -95,57 h -95 c -105,0 -73,12 -330,-121 -78,-41 -144,-67 -205,-81 -105,-25 -215,-37 -232,-25 -10,6 -3,40 28,143 69,231 107,397 133,589 14,102 28,199 31,216 l 5,31 183,8 c 304,14 309,13 440,-105 139,-125 171,-126 179,-6 2,22 9,41 16,44 8,2 50,-34 95,-81 92,-96 140,-130 208,-148 41,-11 53,-10 94,5 26,10 50,14 55,10 5,-5 20,-47 34,-94 75,-246 210,-339 489,-340 101,0 109,1 132,25 14,13 25,33 25,43 0,26 -73,57 -205,86 -110,24 -168,54 -206,107 -38,54 -17,69 96,69 88,0 140,62 78,93 -16,8 -66,18 -113,21 -97,8 -160,22 -160,36 0,6 15,10 34,10 38,0 61,20 52,47 -4,10 -27,30 -51,45 -30,18 -45,34 -45,48 0,11 4,20 8,20 12,0 83,-52 101,-73 11,-14 32,-17 105,-17 51,0 109,-6 131,-14 22,-8 68,-17 102,-21 82,-9 118,-35 163,-114 76,-133 111,-158 265,-181 89,-14 145,1 159,42 14,41 -11,69 -106,118 -102,52 -122,70 -152,134 -13,28 -36,67 -50,86 -22,29 -24,36 -12,48 18,18 79,31 146,32 60,0 100,20 100,49 0,49 -119,101 -233,101 -65,0 -75,-3 -122,-36 -57,-39 -131,-56 -145,-34 -5,8 8,43 33,90 43,84 44,110 2,110 -54,0 -116,-51 -153,-126 -22,-44 -68,-88 -102,-99 -14,-5 -35,4 -69,29 -27,20 -63,39 -80,42 -17,4 -31,10 -31,15 0,11 23,17 110,29 88,13 106,25 89,62 -18,40 -81,63 -169,63 -69,-1 -84,-5 -185,-52 -61,-28 -130,-55 -155,-58 -25,-4 -60,-13 -79,-21 -44,-18 -69,-18 -122,3 -32,12 -79,16 -171,17 -112,1 -130,3 -155,22 -35,26 -40,50 -16,76 26,29 107,21 198,-19 117,-52 215,-53 202,-3 -7,26 10,30 137,30 h 113 l 114,54 c 136,65 174,76 271,79 69,2 77,-1 149,-40 103,-57 155,-69 224,-54 57,13 105,43 105,66 0,7 -19,24 -42,37 -24,13 -44,31 -46,41 -5,25 46,22 149,-8 46,-13 96,-25 110,-25 28,0 86,34 102,61 28,45 -45,136 -129,160 -86,24 -197,15 -318,-25 -58,-20 -115,-36 -126,-36 -24,0 -26,22 -5,40 18,15 19,42 3,58 -33,33 -158,-15 -318,-122 -115,-78 -187,-114 -279,-137 -88,-23 -254,-30 -272,-12 -22,22 9,41 139,84 161,52 225,82 257,120 31,38 22,62 -31,79 -33,11 -42,9 -131,-34 -103,-50 -121,-54 -130,-31 -15,41 89,90 221,105 43,5 95,18 115,28 40,21 75,71 66,94 -7,17 -47,38 -74,38 -9,0 -26,6 -37,14 -18,14 -18,16 16,51 52,55 99,75 172,75 72,0 147,-30 188,-75 35,-38 75,-57 105,-49 21,5 28,17 42,64 l 16,58 61,7 c 140,15 235,55 251,105 9,29 -18,66 -66,91 -46,23 -95,21 -232,-7 -83,-17 -77,-17 -77,0 0,8 29,41 65,73 l 65,58 -37,29 -36,29 -34,-18 c -19,-11 -58,-40 -88,-66 -54,-47 -84,-59 -238,-89 -32,-6 -95,-29 -141,-51 -46,-21 -89,-39 -95,-39 -7,0 -11,20 -11,49 0,60 -20,86 -59,76 -59,-15 -98,-75 -112,-174 -5,-36 -22,-93 -39,-126 -28,-58 -119,-176 -203,-263 -64,-67 -117,-88 -117,-47 0,45 -61,16 -126,-60 -80,-92 -71,-89 -309,-95 l -210,-5 -68,-38 c -48,-27 -68,-34 -71,-25 -3,7 -14,73 -26,146 -12,73 -34,177 -50,230 -16,54 -38,140 -49,191 -24,109 -34,91 92,166 43,26 101,55 131,65 29,11 86,37 128,60 156,84 286,114 563,130 347,20 753,104 892,186 124,72 286,239 388,399 37,57 129,243 139,280 7,26 -8,49 -28,42 -8,-3 -34,-43 -57,-89 -88,-176 -181,-301 -245,-329 -23,-11 -61,-35 -84,-54 -52,-43 -75,-44 -95,-5 -17,32 -36,37 -81,19 -42,-15 -73,-3 -89,35 -15,35 -31,46 -68,46 -36,0 -94,19 -118,39 -16,13 -24,33 -28,67 -6,48 -7,49 -38,46 -41,-4 -97,22 -119,55 -9,14 -18,47 -19,72 -3,45 -4,46 -47,59 -61,17 -85,46 -101,122 -12,59 -16,65 -52,85 -68,35 -96,94 -72,155 4,10 -8,25 -36,45 -57,42 -73,75 -53,113 14,28 14,31 -10,53 -46,43 -67,96 -60,153 6,48 4,56 -35,116 l -41,64 21,43 c 24,50 26,88 6,123 -26,45 -19,85 20,114 29,22 33,31 29,55 -8,39 39,90 118,128 35,17 80,45 102,62 51,41 85,49 256,62 165,12 183,16 158,30 -40,22 -124,29 -223,19 -304,-33 -695,-146 -872,-251 -140,-84 -253,-228 -443,-569 -136,-243 -210,-350 -317,-456 -145,-144 -345,-284 -408,-284 -9,0 -49,26 -88,58 -40,33 -134,105 -209,161 -76,56 -138,106 -138,110 0,15 57,61 90,72 44,15 100,56 100,73 0,19 41,54 73,61 15,4 55,25 90,48 34,22 92,55 129,73 36,19 69,38 72,43 4,5 26,19 51,31 45,22 125,102 125,125 0,7 37,53 81,102 116,125 293,335 359,424 68,91 177,279 215,369 70,165 137,416 155,580 16,149 -7,286 -68,406 -27,53 -49,71 -70,57 -14,-9 -16,-30 -13,-166 3,-181 6,-177 -85,-122 -59,36 -87,42 -114,25 -16,-10 -17,-8 32,-77 67,-94 56,-218 -27,-311 -56,-62 -115,-92 -181,-92 -75,0 -86,-12 -47,-52 45,-46 87,-143 87,-199 0,-150 -242,-399 -476,-489 -45,-18 -106,-34 -135,-37 -49,-5 -52,-4 -58,20 -10,40 8,61 113,125 54,34 105,68 112,77 10,12 12,65 8,251 -4,145 -10,240 -16,246 -13,13 -19,-10 -25,-100 -3,-34 -11,-70 -18,-78 -10,-12 -10,-34 0,-112 16,-117 11,-132 -61,-208 -59,-63 -141,-108 -169,-93 -27,14 -59,64 -59,91 0,12 14,43 30,67 30,44 38,75 21,86 -5,3 -15,-11 -21,-30 -11,-33 -35,-55 -59,-55 -19,0 -23,46 -7,83 8,20 11,39 7,42 -13,7 -38,-27 -45,-61 -4,-17 -18,-41 -30,-53 -23,-21 -27,-22 -102,-11 -43,6 -82,14 -86,18 -5,5 -3,32 3,61 11,51 8,117 -6,175 -10,36 8,51 123,107 85,41 98,55 60,61 -34,5 -27,19 31,59 65,45 111,89 111,106 0,7 -4,13 -8,13 -26,0 -124,-80 -245,-199 l -137,-136 10,-110 c 6,-60 15,-125 21,-144 10,-29 9,-36 -10,-55 l -22,-21 -28,31 c -51,56 -73,134 -79,269 -5,142 6,205 53,303 69,144 126,184 318,222 31,6 57,16 57,22 0,6 -34,43 -75,83 -72,68 -75,73 -75,117 0,34 7,55 28,84 31,42 113,121 153,147 79,52 235,75 285,42 50,-32 59,9 17,73 -16,22 -47,57 -71,77 -36,32 -41,39 -30,53 19,22 142,78 226,101 86,24 92,27 92,50 0,40 -24,46 -137,32 -145,-18 -251,-45 -325,-82 -179,-90 -588,-595 -703,-869 -63,-148 -112,-346 -124,-493 -4,-53 -11,-100 -14,-103 -3,-4 -20,5 -37,20 -38,31 -41,31 -71,7 -23,-18 -24,-26 -24,-128 0,-103 -2,-111 -35,-178 -34,-69 -34,-72 -35,-200 0,-111 3,-135 20,-165 24,-43 34,-226 16,-305 l -12,-51 -122,33 c -193,53 -281,71 -492,98 -110,14 -201,28 -204,31 -12,12 47,103 104,159 40,41 88,75 145,104 143,73 267,149 289,177 27,35 14,59 -45,86 -25,11 -48,26 -51,34 -7,19 61,91 143,150 47,33 69,59 95,106 30,57 34,73 37,158 4,117 -7,144 -59,148 -30,3 -45,-5 -93,-44 -54,-43 -85,-54 -55,-18 20,24 124,93 174,115 75,33 98,105 52,163 l -24,29 35,81 c 42,97 52,165 27,189 -31,31 -100,15 -161,-36 -61,-51 -60,-24 1,58 25,33 45,62 45,66 0,3 -16,26 -36,51 -35,46 -35,46 -25,104 16,83 14,187 -4,232 -29,71 -112,94 -175,47 -19,-14 -44,-25 -56,-25 -19,0 -23,9 -33,73 -21,125 -43,179 -80,204 -47,32 -72,29 -127,-13 -45,-34 -48,-35 -61,-18 -7,10 -13,27 -13,37 0,82 -182,169 -287,137 z m 153,-51 c 33,-20 59,-56 98,-133 28,-55 60,-59 127,-16 27,18 55,30 63,27 23,-9 67,-93 73,-137 4,-30 1,-45 -12,-60 -26,-29 -44,-89 -45,-148 v -54 l 33,7 c 99,22 282,100 282,121 0,19 -45,14 -94,-10 -28,-14 -56,-26 -63,-26 -7,1 3,9 23,20 19,10 41,26 48,34 20,24 68,20 96,-9 21,-20 25,-33 25,-87 0,-35 -5,-101 -10,-148 l -10,-85 30,-27 c 16,-15 30,-35 30,-44 0,-10 -17,-40 -39,-68 -21,-28 -44,-60 -50,-71 -11,-17 -12,-16 -7,14 4,19 13,43 22,52 15,17 12,39 -6,39 -29,0 -200,-177 -200,-207 0,-35 201,14 280,67 68,47 97,60 114,54 26,-10 19,-81 -14,-159 -37,-85 -37,-109 -4,-140 41,-38 28,-62 -62,-115 -79,-46 -184,-133 -184,-153 0,-14 31,-47 45,-47 6,0 40,25 75,55 l 65,55 22,-25 c 12,-14 25,-40 28,-59 14,-70 -49,-230 -103,-263 -11,-6 -46,-33 -78,-59 l -59,-47 71,74 c 72,74 104,116 104,133 0,41 -484,-125 -573,-197 -34,-26 -46,-75 -47,-184 0,-85 0,-85 93,-48 77,32 193,62 273,71 64,7 134,-8 134,-28 0,-22 -74,-76 -202,-147 -73,-40 -155,-89 -182,-109 -50,-37 -156,-157 -156,-178 0,-6 -7,-18 -16,-25 -15,-12 -16,-11 -9,11 19,63 38,94 87,144 64,64 191,159 306,229 77,47 102,70 90,83 -13,12 -406,-102 -440,-128 -10,-8 -26,-58 -43,-138 -28,-130 -51,-200 -65,-200 -19,0 -20,22 -6,82 18,81 34,192 41,292 4,65 9,81 28,96 20,16 22,29 25,125 l 4,106 -104,102 c -68,68 -122,112 -158,130 -57,27 -170,48 -170,30 0,-5 20,-24 45,-42 25,-18 54,-49 64,-69 24,-46 64,-84 116,-110 52,-26 98,-75 93,-99 -2,-13 -19,-22 -61,-32 -31,-7 -57,-17 -57,-22 0,-4 29,-22 65,-39 36,-17 69,-40 75,-50 14,-26 2,-26 -55,2 -39,19 -49,20 -66,9 -19,-11 -25,-8 -66,34 -24,26 -43,54 -41,62 2,9 19,22 38,28 19,6 36,19 38,28 2,9 -14,35 -36,59 -22,24 -49,61 -60,83 -30,57 -39,65 -118,123 -113,82 -127,120 -58,162 32,21 38,21 122,9 49,-7 96,-10 105,-6 20,7 31,48 23,80 -16,61 -45,88 -150,137 -111,52 -122,64 -111,122 5,29 1,38 -35,73 -66,64 -87,125 -60,176 24,44 169,9 230,-56 32,-34 10,-32 -65,5 -60,30 -128,39 -140,19 -11,-17 4,-58 26,-69 17,-10 21,-8 26,9 7,28 25,26 108,-10 42,-18 101,-34 147,-39 43,-5 86,-14 97,-20 57,-30 66,6 24,91 -21,40 -35,55 -54,59 -32,6 -190,149 -232,209 -41,59 -48,125 -17,164 12,15 31,27 44,27 12,0 66,-23 120,-51 100,-51 131,-57 150,-27 15,24 -3,70 -34,85 -14,6 -43,20 -65,31 -72,34 -80,103 -16,137 47,24 55,47 40,119 -6,35 -9,75 -5,89 13,55 118,76 182,36 z m 2039,-198 c -3,-5 -40,-34 -83,-64 -104,-73 -167,-137 -202,-208 -16,-31 -34,-60 -40,-64 -6,-3 -19,-24 -30,-45 -16,-31 -26,-39 -52,-42 -31,-3 -33,-6 -38,-48 -3,-25 -12,-55 -20,-66 -12,-19 -11,-28 3,-66 18,-46 81,-117 94,-104 4,4 2,15 -5,24 -30,43 -43,75 -40,100 3,25 5,24 27,-21 13,-27 46,-73 73,-103 34,-37 46,-55 36,-59 -7,-3 -61,-14 -120,-24 -58,-11 -122,-27 -142,-36 -21,-10 -63,-50 -97,-91 -33,-40 -66,-75 -73,-77 -7,-3 -21,-35 -31,-72 -14,-51 -26,-72 -50,-91 -23,-17 -40,-47 -63,-108 -87,-228 -83,-19 5,249 63,194 153,348 348,595 120,152 190,226 287,307 90,74 237,152 213,114 z m -4235,-142 c 57,-30 84,-59 56,-59 -13,0 -136,77 -136,86 0,10 27,1 80,-27 z m 4215,-6 c 19,-9 35,-20 35,-24 0,-15 -158,-51 -166,-38 -9,15 14,46 48,62 41,21 40,21 83,0 z m -3978,-170 c 58,-43 123,-91 146,-108 45,-33 58,-55 32,-55 -22,0 -117,67 -208,148 -39,34 -74,62 -78,62 -4,0 -9,7 -13,15 -11,29 17,14 121,-62 z m 5023,-128 c 21,-43 25,-67 28,-174 7,-207 -18,-293 -123,-409 -26,-29 -67,-64 -91,-78 l -44,-26 v -66 c -1,-108 -18,-202 -50,-267 -85,-171 -162,-300 -237,-392 -27,-33 -41,-43 -64,-43 -17,0 -49,-13 -74,-30 -26,-18 -68,-35 -102,-41 -63,-12 -192,-5 -242,12 -33,12 -59,46 -44,59 4,5 55,26 113,48 128,48 199,83 242,120 18,16 69,55 113,87 139,102 217,196 239,289 11,44 -29,142 -77,193 -37,38 -39,43 -21,49 183,66 274,124 329,208 17,25 15,28 -44,147 -34,67 -59,124 -56,127 12,13 102,-69 116,-105 5,-13 17,-23 28,-23 15,0 22,9 27,37 8,41 -2,291 -12,318 -5,13 -3,16 7,13 8,-2 25,-26 39,-53 z m -4412,-4 c 3,-8 -1,-12 -9,-9 -7,2 -15,10 -17,17 -3,8 1,12 9,9 7,-2 15,-10 17,-17 z m 2992,-41 c 0,-11 -7,-20 -15,-20 -17,0 -18,2 -9,24 9,23 24,20 24,-4 z m -3502,-19 c 62,-32 151,-106 286,-239 176,-175 236,-252 222,-288 -11,-29 -66,-11 -241,77 -205,105 -236,124 -229,144 3,7 -4,18 -15,25 -12,6 -21,20 -21,31 0,27 -42,92 -74,112 -26,17 -51,55 -43,63 2,3 21,-5 41,-17 37,-22 46,-18 22,10 -7,9 -17,26 -20,38 -7,20 -4,22 31,17 l 38,-5 -22,19 c -41,36 -30,41 25,13 z m 414,-28 c 102,-47 153,-103 196,-211 32,-78 40,-126 23,-136 -16,-10 -317,254 -351,309 -11,18 -20,45 -20,60 0,26 2,27 36,22 20,-3 72,-23 116,-44 z m 181,-46 c 39,-57 42,-75 13,-64 -15,6 -86,105 -86,120 0,24 38,-5 73,-56 z m -367,1 c 206,-177 292,-269 396,-420 116,-168 134,-198 119,-198 -5,0 -49,51 -98,113 -102,130 -216,261 -352,402 -53,55 -105,110 -115,123 -31,36 -3,25 50,-20 z m 1464,-82 c 0,-3 -4,-8 -10,-11 -5,-3 -10,-1 -10,4 0,6 5,11 10,11 6,0 10,-2 10,-4 z m -989,-102 c 48,-80 104,-214 124,-301 21,-87 16,-114 -10,-47 -10,27 -51,120 -92,207 -40,87 -76,170 -79,184 -11,44 18,22 57,-43 z m 909,56 c 12,-8 11,-10 -7,-10 -13,0 -23,5 -23,10 0,13 11,13 30,0 z m -1865,-54 c 33,-14 48,-36 25,-36 -18,0 -77,27 -84,39 -10,15 18,14 59,-3 z m 295,-110 c 135,-56 170,-74 170,-86 0,-28 -106,5 -270,85 l -115,55 52,-4 c 29,-3 100,-25 163,-50 z m 298,-159 c 30,-18 98,-68 151,-112 53,-44 138,-111 189,-149 79,-60 111,-96 85,-96 -11,0 -307,216 -420,307 -124,98 -126,123 -5,50 z m -71,-26 c 70,-47 168,-148 184,-188 30,-80 6,-145 -81,-218 -59,-50 -98,-65 -164,-65 -48,0 -59,4 -86,30 -26,26 -29,32 -19,54 14,30 6,56 -18,56 -28,0 -96,90 -87,115 4,11 7,32 7,48 0,23 3,26 19,21 28,-9 20,27 -10,42 -32,16 -41,28 -14,20 19,-6 22,-4 22,19 0,21 4,26 23,25 36,-3 40,-1 27,15 -20,24 -2,35 57,35 48,0 54,2 43,15 -26,31 37,15 97,-24 z M 2677,9843 c 7,-21 -77,-92 -151,-128 -39,-20 -95,-38 -123,-42 -29,-3 -53,-11 -53,-17 0,-6 14,-29 30,-50 24,-32 30,-49 30,-90 0,-64 -24,-164 -51,-219 l -21,-42 31,29 c 17,16 33,27 36,24 6,-6 -90,-194 -112,-220 -17,-19 -10,-38 13,-38 23,0 75,-90 72,-124 -2,-16 -8,-31 -15,-33 -17,-6 -111,84 -115,110 -3,18 -17,8 -101,-68 -137,-124 -211,-227 -313,-430 -89,-178 -108,-241 -121,-392 -10,-115 -27,-104 -20,13 6,106 60,311 117,447 63,150 213,345 364,471 56,47 152,164 142,173 -2,3 -23,-13 -45,-35 -46,-44 -169,-131 -221,-156 -38,-18 -146,-119 -255,-239 -84,-92 -101,-97 -101,-28 0,36 -9,66 -33,113 -99,187 -127,258 -102,258 5,0 34,-24 63,-53 54,-54 144,-114 155,-103 3,3 -17,36 -46,72 -28,37 -68,101 -89,143 -65,131 -56,270 24,375 37,48 97,86 137,86 69,0 142,-46 169,-106 31,-70 6,-132 -96,-239 -36,-38 -66,-73 -66,-77 0,-13 59,-9 88,6 40,21 153,142 197,211 175,275 233,326 448,390 86,26 128,28 134,8 z m 63,-31 c 0,-4 -19,-30 -43,-57 -67,-78 -143,-188 -200,-288 -40,-71 -53,-87 -55,-69 -5,35 101,207 198,322 78,92 100,113 100,92 z m 86,-34 c -4,-13 -11,-59 -16,-103 -4,-44 -11,-89 -15,-100 -6,-19 -6,-19 8,-2 13,16 25,70 40,176 1,8 10,19 20,25 28,17 50,-18 43,-69 -10,-82 -88,-215 -126,-215 -10,0 -31,-16 -46,-36 -24,-30 -29,-33 -37,-19 -5,9 -7,67 -5,128 4,123 22,175 74,216 37,29 68,28 60,-1 z m 2435,-93 c 0,-13 -41,-19 -41,-7 0,11 20,22 33,18 5,-1 8,-6 8,-11 z m -94,-32 c 6,-16 -40,-38 -61,-30 -23,9 -20,26 7,37 28,11 49,9 54,-7 z m -103,-34 c 33,-38 33,-49 0,-49 -53,0 -82,38 -52,68 17,17 23,15 52,-19 z m -106,-41 c -7,-20 -105,-51 -392,-123 -196,-50 -270,-65 -278,-57 -17,17 30,34 299,106 332,89 379,99 371,74 z M 2673,9465 c 0,-79 -7,-101 -91,-274 -51,-104 -63,-68 -26,80 8,31 14,67 14,79 0,12 13,52 30,89 16,37 34,80 40,96 18,46 32,15 33,-70 z m 4424,38 c 13,-19 12,-20 -10,-16 -24,5 -24,3 -29,-74 -4,-62 -12,-94 -41,-159 -32,-71 -37,-91 -37,-155 0,-89 19,-134 89,-223 75,-94 143,-153 190,-165 22,-6 60,-16 84,-22 23,-5 103,-39 177,-74 156,-73 251,-99 342,-93 87,5 141,34 250,135 51,46 111,94 133,105 48,24 95,67 95,85 0,7 5,13 10,13 17,0 11,-66 -7,-83 -10,-8 -45,-27 -77,-41 -44,-20 -86,-52 -161,-125 -110,-107 -181,-151 -243,-151 -90,0 -254,58 -369,131 -35,22 -85,44 -112,49 -96,18 -178,64 -289,163 -24,21 -48,37 -55,34 -7,-2 -13,-21 -15,-43 -1,-21 -5,-46 -8,-54 -4,-13 -6,-13 -14,0 -13,20 -12,77 0,101 9,15 3,34 -25,91 -29,60 -35,82 -35,138 0,70 20,142 61,220 18,35 24,65 26,140 5,122 7,126 35,108 12,-8 28,-24 35,-35 z m -2033,15 c 22,-30 21,-42 -19,-293 -52,-335 -86,-414 -182,-429 -39,-6 -43,-4 -43,15 0,12 24,82 54,158 89,226 120,335 131,471 4,41 8,81 10,88 7,19 32,14 49,-10 z m -2274,-98 c 0,-37 -27,-87 -62,-114 -32,-24 -68,-35 -68,-20 0,22 103,154 121,154 5,0 9,-9 9,-20 z m 1995,1 c 51,-23 91,-64 121,-123 l 24,-47 -35,-82 c -37,-88 -74,-149 -90,-149 -6,0 -32,-22 -58,-50 -52,-55 -77,-64 -77,-26 0,13 -5,26 -11,28 -9,3 -9,9 -1,25 9,17 33,133 27,133 -1,0 -22,-7 -48,-16 -64,-22 -98,-16 -117,20 -8,16 -26,40 -40,52 -19,17 -24,31 -24,62 1,37 -1,41 -25,44 -23,3 -26,7 -26,43 0,36 4,42 35,57 36,18 194,45 265,47 22,0 58,-8 80,-18 z m 3107,-40 c 10,-24 31,-60 47,-80 15,-20 36,-50 45,-68 17,-34 22,-83 7,-83 -12,0 -21,25 -21,56 0,15 -13,37 -34,57 -19,18 -42,48 -51,67 -24,48 -45,70 -67,70 -32,0 -20,-23 61,-118 24,-29 53,-77 62,-105 14,-41 22,-52 38,-50 13,2 38,-15 68,-45 31,-31 88,-68 163,-107 126,-65 126,-80 1,-51 -36,8 -82,18 -101,22 -49,9 -124,59 -166,109 -24,30 -45,45 -69,49 -28,6 -39,15 -56,47 -11,23 -40,54 -66,72 -93,64 -99,71 -85,102 7,15 22,29 33,32 24,7 21,36 -4,41 -10,2 -43,-13 -73,-34 -47,-32 -65,-39 -119,-42 -70,-5 -115,3 -115,18 0,6 20,10 44,10 51,0 147,28 193,57 27,16 49,19 139,18 l 107,-1 z m -622,-66 c 89,-85 103,-92 210,-115 70,-15 111,-31 169,-65 42,-25 92,-50 112,-55 19,-5 66,-37 105,-70 45,-39 81,-62 104,-66 64,-11 194,-45 210,-55 10,-7 -14,-9 -75,-6 -66,3 -102,10 -132,26 -41,20 -73,27 -73,15 0,-3 16,-26 35,-51 43,-57 51,-83 33,-119 -41,-87 -267,-156 -357,-109 -28,14 -51,58 -51,96 0,11 -8,27 -18,37 -17,17 -25,17 -88,7 -38,-7 -75,-10 -81,-7 -7,2 -15,20 -18,40 -13,79 -27,126 -45,150 -44,55 -29,141 28,163 32,13 142,4 210,-16 46,-14 232,-104 257,-125 6,-5 15,-7 19,-3 9,9 -34,53 -52,53 -8,0 -52,20 -97,45 -86,46 -174,75 -235,75 -41,0 -122,36 -168,74 -31,27 -102,136 -102,158 0,14 19,-1 100,-77 z m -3063,59 c 6,-18 -53,-34 -119,-34 -69,0 -69,13 0,34 53,17 114,17 119,0 z m 5653,-4 c -14,-5 -99,-32 -190,-60 -91,-29 -201,-67 -245,-85 -163,-68 -162,-68 -140,-49 71,59 476,203 570,202 29,0 29,0 5,-8 z m -7330,-71 c 0,-71 -34,-244 -50,-254 -11,-7 -24,175 -17,237 6,51 29,88 54,88 10,0 13,-18 13,-71 z m 1450,41 c 0,-12 -48,-25 -58,-16 -8,9 18,26 41,26 9,0 17,-4 17,-10 z m -1202,-92 c -4,-25 -168,-117 -168,-94 0,42 131,146 157,124 8,-6 13,-20 11,-30 z m -333,-126 c 0,-99 -15,-172 -34,-172 -11,0 -54,129 -53,160 1,26 32,99 55,128 22,27 32,-9 32,-116 z m 371,48 c 27,-58 27,-69 -1,-80 -30,-12 -215,-14 -215,-2 1,19 165,114 190,109 8,-1 20,-13 26,-27 z m 6845,-5 c -1,-15 -24,-12 -29,3 -3,9 2,13 12,10 10,-1 17,-7 17,-13 z m -3721,-25 c 0,-16 -5,-50 -12,-74 -10,-37 -9,-57 6,-124 27,-114 16,-119 -25,-10 l -35,94 23,49 c 12,28 23,60 23,73 0,12 5,22 10,22 6,0 10,-13 10,-30 z m 3241,-37 c -11,-20 -59,-73 -66,-73 -11,0 -3,12 31,50 39,43 51,50 35,23 z m 429,7 c 0,-5 -7,-10 -15,-10 -8,0 -15,5 -15,10 0,6 7,10 15,10 8,0 15,-4 15,-10 z m -110,-25 c 0,-8 -102,-57 -107,-51 -3,3 18,17 48,31 59,27 59,27 59,20 z m -220,-18 c 0,-17 -104,-143 -130,-157 -22,-12 -93,-101 -85,-108 2,-3 37,22 77,55 109,89 113,86 13,-13 -94,-92 -176,-206 -239,-331 -39,-79 -41,-83 -26,-83 5,0 36,44 69,98 75,119 95,146 109,141 11,-4 -137,-310 -207,-427 -24,-40 -41,-75 -38,-78 3,-3 31,28 62,70 32,42 59,76 61,76 13,0 -5,-31 -78,-142 -133,-202 -298,-466 -298,-479 0,-8 15,-10 53,-5 44,5 57,12 90,47 41,46 47,74 17,84 -11,3 -20,14 -20,24 0,24 104,193 193,315 115,157 128,137 35,-54 -101,-209 -98,-220 18,-62 129,175 371,405 572,542 35,23 65,40 67,38 3,-3 -16,-19 -43,-36 -100,-65 -371,-299 -413,-355 -33,-46 -14,-44 48,5 72,56 118,80 146,76 37,-5 33,-46 -11,-113 -61,-95 -59,-92 -27,-71 17,10 59,41 95,69 l 65,49 -58,-56 c -31,-30 -90,-81 -130,-112 -77,-61 -374,-356 -403,-399 -16,-25 -16,-27 4,-48 21,-20 23,-20 56,-4 19,9 52,31 73,50 21,19 73,57 116,86 43,29 77,55 74,57 -3,3 -44,-18 -93,-45 -48,-28 -91,-51 -95,-51 -4,0 -9,7 -12,14 -12,32 143,186 396,395 122,100 172,135 219,150 78,26 110,-38 41,-80 -46,-29 -223,-169 -242,-192 -7,-9 -10,-17 -6,-17 9,0 385,261 385,267 0,2 -13,21 -29,41 -16,20 -34,55 -41,77 -7,22 -23,61 -36,87 -13,26 -24,58 -24,70 l 1,23 19,-23 c 19,-23 39,-73 59,-150 7,-23 25,-57 40,-75 16,-17 32,-48 36,-67 13,-59 44,-109 84,-134 22,-14 41,-31 44,-38 6,-18 -11,-48 -27,-48 -7,0 -33,-15 -57,-34 -24,-19 -120,-76 -214,-126 -230,-124 -271,-148 -285,-165 -18,-22 -7,-19 78,21 147,69 249,94 236,59 -17,-43 -411,-247 -523,-270 -54,-11 -34,15 45,58 80,45 77,44 -78,-13 -112,-41 -141,-61 -119,-83 18,-18 209,26 332,78 111,46 194,79 429,170 138,54 283,125 288,142 2,6 -11,19 -27,28 -17,8 -31,20 -31,26 0,13 102,-42 107,-58 4,-11 -166,-98 -279,-143 -106,-41 -107,-77 -1,-37 136,50 223,57 223,18 0,-22 -22,-42 -78,-70 -45,-23 -52,-48 -11,-43 13,1 71,19 127,39 81,28 106,41 113,60 6,15 17,23 33,23 37,0 40,-17 6,-29 -17,-5 -30,-14 -30,-19 0,-15 -147,-74 -405,-162 -225,-77 -305,-109 -279,-110 25,0 206,52 364,105 90,30 168,55 172,55 4,0 8,-9 8,-20 0,-27 -78,-82 -170,-121 -41,-17 -82,-38 -90,-46 -13,-14 -8,-15 50,-9 42,3 59,2 49,-4 -9,-5 -67,-14 -130,-20 -128,-13 -266,-42 -307,-65 -27,-16 -27,-16 18,-11 25,3 61,8 80,12 26,5 32,4 25,-5 -6,-6 -78,-26 -160,-45 -83,-19 -179,-44 -215,-55 -36,-11 -73,-21 -83,-21 -38,0 -3,20 76,45 109,34 111,35 105,41 -7,7 -337,-83 -353,-96 -15,-12 -25,-58 -18,-77 7,-19 21,-16 92,17 106,50 270,87 463,105 213,19 348,33 409,41 42,6 48,4 59,-16 23,-43 -1,-50 -206,-66 -388,-28 -438,-44 -751,-240 -55,-35 -106,-64 -112,-64 -37,0 -41,103 -7,198 24,69 75,182 82,182 2,0 12,-5 22,-11 15,-9 42,-5 128,19 133,38 254,80 234,81 -8,0 -40,-6 -70,-14 -64,-17 -116,-19 -125,-5 -8,13 42,34 148,63 144,38 56,29 -120,-13 -205,-48 -215,-49 -211,-14 3,23 7,26 58,29 30,2 88,11 128,20 83,19 99,41 22,30 -58,-8 -74,-1 -60,24 12,23 38,34 186,76 158,46 74,35 -140,-18 l -170,-42 -9,-34 c -12,-47 -20,-31 -28,50 -12,131 -52,156 -314,194 -250,36 -304,50 -372,94 -63,40 -93,67 -93,82 0,17 27,9 68,-21 23,-16 50,-30 61,-30 11,0 44,20 74,45 56,45 159,156 152,163 -2,3 -27,-12 -55,-33 -27,-20 -50,-33 -50,-28 0,5 25,33 55,63 30,30 55,59 55,66 0,6 43,65 96,130 110,136 190,262 246,384 103,222 141,289 214,374 102,118 194,186 194,143 z m -6446,-39 c -3,-13 -13,-36 -21,-51 -14,-27 -17,-28 -64,-22 -28,4 -82,15 -122,24 -134,31 -76,69 106,70 108,1 108,1 101,-21 z m 6769,-25 c 5,-26 4,-26 -9,-8 -15,21 -19,49 -5,41 5,-3 11,-18 14,-33 z m -4777,-85 c -41,-83 -71,-126 -82,-115 -9,9 41,117 80,171 42,59 43,28 2,-56 z m -2107,22 c 188,-42 281,-81 281,-118 0,-44 -124,-222 -155,-222 -8,0 -35,18 -60,40 -25,22 -56,40 -69,40 -29,0 -57,31 -95,107 -32,64 -39,119 -21,154 13,23 10,23 119,-1 z m 6899,-16 c -4,-20 -14,-26 -92,-50 -32,-10 -93,-38 -134,-61 -81,-46 -87,-49 -76,-32 12,20 118,82 204,120 99,43 102,44 98,23 z m -7329,-32 c 42,-31 48,-49 24,-73 -20,-20 -24,-21 -92,-9 -39,6 -81,20 -93,30 l -23,18 20,22 c 11,12 29,26 40,31 28,12 96,2 124,-19 z m 721,8 c 0,-11 -4,-20 -9,-20 -14,0 -23,18 -16,30 10,17 25,11 25,-10 z m 6600,-147 c 0,-20 -18,-16 -30,7 -15,28 -1,49 17,25 7,-11 13,-25 13,-32 z m -6476,24 c 18,-13 17,-15 -2,-53 -23,-43 -129,-174 -142,-174 -16,0 -19,30 -5,44 8,8 15,21 15,28 0,8 13,27 29,42 16,16 39,50 51,77 22,53 27,56 54,36 z m -112,-19 c -7,-7 -12,-8 -12,-2 0,14 12,26 19,19 2,-3 -1,-11 -7,-17 z m 1763,2 c 8,-13 -4,-50 -16,-50 -5,0 -9,14 -9,30 0,30 13,40 25,20 z m 110,-7 c 12,-12 15,-26 12,-50 -5,-26 2,-49 29,-100 43,-80 40,-95 -18,-91 -39,3 -44,6 -67,52 -15,29 -27,71 -29,106 -4,49 -1,61 17,79 25,25 34,26 56,4 z m -2651,-2 c 7,-10 -11,-15 -114,-31 -81,-12 -140,-13 -140,-1 0,12 42,21 148,30 48,5 90,9 94,10 4,0 9,-3 12,-8 z m 1023,-16 c 214,-81 450,-256 623,-462 134,-159 145,-203 72,-271 -94,-86 -156,-90 -227,-15 -23,25 -50,53 -60,62 -9,9 -57,54 -105,101 -49,47 -111,106 -137,131 -26,25 -87,71 -135,102 -91,58 -172,146 -164,176 3,9 8,43 12,76 7,67 28,125 43,125 6,0 41,-11 78,-25 z m 6379,-52 c -7,-7 -26,7 -26,19 0,6 6,6 15,-2 9,-7 13,-15 11,-17 z m -7257,-29 c 48,-43 65,-89 56,-151 -7,-48 -63,-122 -83,-109 -26,16 -54,232 -36,280 9,23 19,20 63,-20 z m 4641,0 c 0,-14 -7,-41 -15,-61 -8,-19 -15,-37 -15,-39 0,-2 38,-4 83,-4 78,0 87,-2 127,-31 l 43,-32 -27,-14 c -25,-13 -35,-11 -135,28 -116,45 -115,44 -98,112 4,15 9,38 12,52 7,32 25,23 25,-11 z m -4519,-5 c 27,-29 42,-88 18,-74 -14,9 -69,86 -69,97 0,17 23,7 51,-23 z m -337,6 c -9,-22 -161,-134 -219,-161 -65,-31 -108,-32 -103,-3 2,15 17,26 53,38 28,10 97,46 155,79 114,66 122,69 114,47 z m 406,-15 c 0,-5 -4,-10 -10,-10 -5,0 -10,5 -10,10 0,6 5,10 10,10 6,0 10,-4 10,-10 z m 7066,-27 c -11,-11 -19,6 -11,24 8,17 8,17 12,0 3,-10 2,-21 -1,-24 z m -468,-5 c -13,-18 -55,-77 -93,-130 -37,-54 -72,-98 -77,-98 -11,0 104,171 149,221 43,47 54,51 21,7 z m -7001,-46 c -41,-63 -67,-120 -108,-239 -70,-202 -115,-272 -207,-321 -34,-18 -62,-29 -62,-25 0,5 21,29 46,53 74,73 112,131 170,267 64,148 126,268 157,301 31,33 34,8 4,-36 z m 5235,38 c 21,-6 53,-26 73,-44 41,-39 47,-83 15,-123 -11,-14 -20,-32 -20,-39 0,-26 -19,-14 -50,31 -17,24 -51,56 -75,71 -50,29 -51,31 -30,58 8,11 15,28 15,38 0,21 18,23 72,8 z M 2260,8487 c 0,-123 -39,-220 -101,-252 -25,-14 -29,-14 -29,-1 0,8 5,18 10,21 27,17 76,155 95,268 10,62 25,41 25,-36 z m -200,9 c 0,-3 -4,-8 -10,-11 -5,-3 -10,-1 -10,4 0,6 5,11 10,11 6,0 10,-2 10,-4 z m 865,-6 c 8,-13 -14,-42 -26,-34 -5,3 -9,14 -9,25 0,20 24,26 35,9 z m 5845,-54 c -30,-53 -40,-65 -40,-48 0,14 61,114 67,109 3,-3 -9,-31 -27,-61 z m -1415,23 c 38,-34 69,-83 63,-101 -3,-9 -158,117 -158,128 0,2 13,4 30,4 19,0 42,-11 65,-31 z m -5374,-66 c -5,-10 -38,-46 -73,-80 -64,-64 -131,-102 -143,-82 -12,18 3,36 57,67 29,17 76,49 103,71 55,44 71,51 56,24 z m 4434,-162 c 421,-75 789,-231 1108,-469 50,-38 110,-85 132,-104 l 40,-36 -765,-6 c -421,-4 -1183,-6 -1695,-4 l -930,3 75,63 c 121,101 334,239 490,316 220,109 406,173 645,221 188,38 263,44 530,41 202,-3 273,-8 370,-25 z m 2207,-18 c -44,-62 -102,-119 -143,-142 l -43,-24 21,29 c 31,42 164,164 179,164 3,0 -3,-12 -14,-27 z m -243,-293 c -73,-58 -105,-79 -94,-60 10,16 137,110 149,110 5,0 -19,-23 -55,-50 z m -6210,-50 c 44,-22 62,-43 130,-150 48,-76 77,-108 87,-97 10,10 -6,44 -57,122 -27,42 -49,78 -49,80 0,3 17,5 39,5 63,0 81,-20 151,-173 23,-48 60,-82 60,-54 0,8 -11,39 -24,68 -52,114 -44,136 25,72 34,-33 44,-52 69,-138 16,-55 30,-112 30,-126 0,-29 26,-107 63,-190 14,-31 47,-117 72,-190 48,-139 145,-350 186,-406 13,-17 39,-50 58,-74 26,-31 29,-39 14,-31 -23,13 -113,117 -140,163 -18,29 -43,39 -43,16 0,-7 22,-50 50,-97 55,-95 60,-120 29,-151 -21,-21 -28,-22 -140,-16 -65,4 -151,9 -191,12 -81,6 -80,6 46,-47 44,-18 81,-39 83,-45 6,-18 -27,-31 -108,-43 -41,-6 -89,-13 -106,-16 -58,-9 -35,-21 47,-26 118,-7 119,-18 11,-72 -108,-55 -117,-74 -33,-78 l 57,-3 -50,-29 c -27,-16 -88,-51 -135,-79 -61,-37 -98,-52 -133,-55 -37,-4 -51,-9 -54,-23 -4,-14 -12,-16 -38,-12 -26,4 -43,-1 -77,-24 -23,-17 -58,-38 -77,-48 -19,-9 -44,-28 -57,-42 -12,-13 -62,-39 -111,-57 -48,-18 -110,-44 -138,-58 -50,-25 -113,-47 -192,-68 -26,-6 -43,-17 -43,-25 0,-8 25,-33 55,-56 31,-23 53,-44 51,-47 -16,-16 -176,117 -176,147 0,11 47,27 110,37 91,14 252,79 555,225 369,178 339,163 343,182 5,24 -57,40 -115,28 -56,-11 -194,-59 -208,-72 -6,-6 -3,-20 8,-39 22,-37 12,-38 -33,-5 -19,14 -42,25 -52,25 -19,0 -161,-46 -190,-61 -24,-13 -23,-22 10,-61 l 27,-33 -30,19 c -16,10 -36,25 -42,34 -18,22 -28,7 -15,-23 14,-31 6,-32 -24,-4 -22,21 -24,21 -65,5 -68,-27 -200,-56 -258,-56 -39,0 -66,7 -102,26 -27,15 -46,31 -43,35 10,17 293,100 588,175 165,41 330,88 367,104 37,17 71,30 76,30 27,0 113,32 108,40 -7,11 -136,13 -172,4 -12,-3 -23,-15 -25,-27 -3,-20 -4,-20 -32,6 -16,15 -38,27 -50,27 -41,0 -66,-12 -66,-31 0,-25 -17,-24 -30,1 -19,36 -30,12 -15,-35 18,-62 1,-56 -23,8 l -20,52 -74,-1 c -40,-1 -99,-7 -130,-13 -54,-11 -58,-15 -58,-40 0,-15 5,-32 11,-38 23,-23 2,-43 -45,-43 -25,0 -47,4 -50,9 -3,5 -23,7 -45,4 -51,-7 -111,21 -125,59 -12,33 -28,34 -126,13 -36,-8 -107,-14 -159,-15 h -94 l 6,-46 c 3,-26 22,-79 42,-118 35,-68 36,-70 10,-46 -15,14 -38,44 -52,67 -36,62 -33,155 5,167 46,15 342,58 486,71 351,32 537,45 632,46 109,1 207,12 184,21 -8,4 -70,11 -137,17 -95,8 -134,16 -175,35 -51,24 -76,23 -93,-4 -8,-13 -58,-13 -88,1 -14,6 -30,22 -36,36 -14,31 -32,26 -50,-15 -18,-40 -24,-40 -51,-2 -24,33 -41,38 -60,15 -17,-21 -55,-19 -71,5 -12,16 -51,25 -258,54 -259,38 -271,37 -271,-10 0,-13 -5,-24 -11,-24 -8,0 -10,17 -5,55 l 6,55 h -48 c -26,0 -53,-5 -60,-12 -8,-8 -12,-9 -12,-1 0,6 8,19 17,29 15,15 34,16 178,10 296,-13 615,-47 817,-86 55,-11 115,-20 133,-20 19,0 79,-12 135,-26 55,-14 105,-24 112,-22 16,6 -29,36 -137,93 -49,27 -106,60 -125,74 -45,33 -183,90 -237,98 -23,3 -50,14 -59,24 -20,22 -44,24 -92,7 -31,-12 -35,-11 -53,11 -10,13 -19,33 -19,46 0,12 -6,28 -14,34 -22,18 -44,-22 -59,-105 -9,-49 -17,-69 -27,-69 -8,0 -17,11 -18,25 -2,14 -11,29 -19,34 -11,6 -13,18 -8,52 9,64 0,84 -38,84 -18,0 -43,7 -57,15 -65,38 -108,55 -142,55 -41,0 -40,3 -57,-153 -5,-43 -11,-80 -13,-83 -3,-2 -13,2 -23,10 -17,13 -18,20 -8,92 6,44 14,91 18,105 5,18 2,31 -10,43 -16,16 -19,16 -35,1 -20,-18 -40,-86 -40,-134 0,-17 -4,-31 -10,-31 -14,0 -12,25 5,90 21,79 20,110 -5,110 -23,0 -62,-55 -80,-113 -15,-48 -32,-39 -18,11 16,58 37,94 79,135 44,43 52,44 86,17 14,-11 36,-20 50,-20 22,0 249,-72 284,-91 9,-4 61,-22 115,-38 55,-16 171,-56 259,-89 88,-32 219,-78 290,-102 72,-23 134,-46 139,-51 6,-5 22,-9 37,-9 14,0 52,-14 84,-31 31,-17 60,-27 63,-24 11,10 -39,43 -98,64 -79,28 -174,67 -260,107 -42,18 -85,34 -96,34 -26,0 -143,70 -161,96 -10,16 -11,28 -3,49 6,15 9,30 6,32 -11,11 -43,-10 -64,-42 -12,-19 -29,-35 -37,-35 -8,0 -32,16 -54,35 -37,34 -41,35 -115,35 -73,0 -79,2 -108,30 -19,20 -28,36 -24,47 10,24 -3,53 -23,53 -10,0 -28,-11 -41,-25 -31,-33 -57,-32 -109,7 -69,50 -111,69 -132,57 -22,-11 -39,14 -39,59 0,53 144,222 190,222 24,0 173,-88 405,-240 411,-269 626,-396 679,-402 41,-4 44,18 6,39 -130,71 -214,150 -190,178 15,18 10,18 -25,5 -24,-9 -25,-8 -15,10 12,22 1,27 -18,8 -17,-17 -27,-2 -12,17 7,9 10,18 7,22 -4,3 -9,-2 -13,-11 -3,-9 -14,-16 -24,-16 -25,0 -200,82 -254,119 -24,16 -59,34 -78,40 -47,15 -96,67 -80,83 21,21 13,31 -19,24 -24,-5 -35,-1 -55,21 -28,31 -29,41 -8,71 23,33 11,38 -30,12 -39,-23 -75,-24 -86,0 -4,8 -17,34 -29,57 -12,23 -21,49 -19,57 2,8 -1,14 -6,13 -5,-1 -13,9 -18,22 l -9,25 -18,-30 c -21,-34 -49,-59 -57,-51 -9,9 31,57 77,90 22,16 53,42 69,58 24,24 37,29 80,29 65,0 73,-4 205,-115 61,-50 155,-128 210,-173 55,-45 170,-147 255,-227 85,-79 156,-142 158,-140 11,11 -54,82 -301,332 -23,24 -50,43 -59,43 -29,0 -72,45 -73,76 -1,15 -8,31 -16,35 -8,3 -35,16 -61,27 -58,26 -78,56 -47,72 11,7 19,14 16,17 -3,2 -14,-1 -26,-8 -29,-19 -72,-1 -84,35 -8,25 -6,31 14,47 23,17 23,17 -40,12 -58,-6 -63,-4 -59,13 4,24 88,70 151,84 38,8 54,7 75,-4 34,-18 85,-83 92,-116 4,-19 12,-25 32,-25 42,0 44,-13 5,-31 -40,-19 -40,-34 1,-34 42,0 87,-34 111,-82 14,-30 32,-50 56,-61 70,-33 69,-21 -7,91 -102,149 -110,163 -131,224 -3,9 -19,19 -36,23 -17,4 -31,13 -31,21 0,8 1,14 3,14 1,0 20,7 42,15 55,20 89,18 134,-5 z m 7969,-122 c 14,-14 16,-28 2,-28 -5,0 -14,9 -20,20 -12,22 -1,27 18,8 z M 8727,7515 c 23,-20 25,-24 10,-25 -23,0 -77,28 -77,40 0,19 39,10 67,-15 z m 1683,15 c 0,-5 -7,-10 -16,-10 -8,0 -12,5 -9,10 3,6 10,10 16,10 5,0 9,-4 9,-10 z m -1520,-66 c 0,-16 -26,-19 -35,-4 -4,6 -4,18 -1,27 5,12 9,13 21,3 8,-7 15,-19 15,-26 z M 4852,6708 c 371,-425 714,-818 762,-873 48,-55 90,-106 93,-113 3,-7 -17,-38 -43,-69 C 5577,5551 4218,3996 4193,3970 l -24,-25 -50,55 c -75,84 -189,234 -262,345 -208,319 -353,737 -387,1115 -64,727 152,1399 623,1937 40,45 75,82 78,83 3,0 309,-348 681,-772 z m 3050,710 c 263,-300 456,-649 554,-1006 77,-281 99,-471 91,-777 -6,-227 -25,-366 -78,-572 -74,-288 -233,-618 -417,-867 -79,-105 -200,-246 -213,-246 -12,0 -1527,1733 -1536,1758 -5,13 65,96 711,837 720,825 817,935 825,935 4,0 32,-28 63,-62 z m 2966,24 c -71,-84 -176,-159 -290,-209 -91,-40 -116,-38 -36,3 79,40 203,121 276,181 73,60 84,66 50,25 z m -2150,-6 c 3,-12 -1,-17 -10,-14 -7,3 -15,13 -16,22 -3,12 1,17 10,14 7,-3 15,-13 16,-22 z m 1920,19 c -11,-11 -68,-23 -68,-15 0,5 8,11 18,13 25,7 56,8 50,2 z m -1844,-52 c 8,-21 -10,-41 -24,-27 -11,11 -3,44 10,44 4,0 11,-8 14,-17 z m 84,-17 c 3,-13 -1,-17 -14,-14 -11,2 -20,11 -22,22 -3,13 1,17 14,14 11,-2 20,-11 22,-22 z m 1202,10 c 0,-8 -100,-38 -113,-33 -6,2 11,11 38,20 52,16 75,20 75,13 z m -1230,-91 c 0,-8 -9,-15 -20,-15 -20,0 -26,11 -13,23 12,13 33,7 33,-8 z m 65,-36 c 10,-15 -1,-23 -20,-15 -9,3 -13,10 -10,16 8,13 22,13 30,-1 z m 1280,-10 c -11,-5 -33,-14 -50,-20 -61,-24 4,-20 106,6 56,14 109,24 118,22 28,-6 -131,-75 -209,-90 -134,-27 -166,-29 -179,-14 -23,28 18,58 115,83 93,24 134,30 99,13 z m -1310,-49 c 9,-14 -4,-70 -16,-70 -5,0 -9,9 -9,21 0,11 -5,29 -10,40 -9,16 -7,19 9,19 11,0 23,-5 26,-10 z m -1917,-59 c -13,-16 -234,-272 -493,-569 -390,-449 -472,-539 -484,-529 -10,9 -782,892 -969,1110 -14,16 33,17 977,17 h 992 z m 3249,-17 c -3,-3 -12,-4 -19,-1 -8,3 -5,6 6,6 11,1 17,-2 13,-5 z m -71,-13 c -6,-9 -37,-13 -364,-41 -332,-29 -435,-53 -572,-135 -109,-65 -107,-41 3,31 95,62 205,87 515,115 125,11 261,24 302,28 109,12 122,12 116,2 z M 2942,6954 c 40,-10 84,-14 120,-11 32,3 56,1 53,-4 -11,-17 -91,-31 -142,-25 -69,8 -69,-4 -3,-108 82,-127 106,-182 76,-170 -29,11 -170,242 -191,312 -8,27 1,28 87,6 z m 7958,-20 c 0,-3 -18,-26 -40,-51 -22,-25 -40,-52 -40,-59 0,-18 65,-18 150,1 126,28 230,12 246,-37 6,-21 -10,-39 -30,-33 -120,39 -148,44 -197,35 -29,-6 -79,-10 -111,-10 -50,0 -65,4 -90,25 -34,28 -50,31 -67,11 -6,-8 -34,-23 -61,-35 -28,-12 -50,-27 -50,-35 0,-15 24,-36 63,-56 28,-14 36,-30 15,-30 -7,0 -33,5 -58,10 -97,22 -91,18 -78,40 22,34 0,41 -90,28 -45,-7 -85,-8 -89,-4 -23,23 130,93 232,106 61,8 101,21 170,55 81,41 125,55 125,39 z m -7763,-66 c -3,-8 -6,-5 -6,6 -1,11 2,17 5,13 3,-3 4,-12 1,-19 z m -2137,-50 c 0,-28 -3,-39 -10,-32 -9,9 -3,74 6,74 2,0 4,-19 4,-42 z m 2056,4 c 6,-4 28,-28 48,-55 28,-37 36,-56 36,-90 0,-24 -6,-52 -14,-62 -14,-19 -14,-19 -88,143 -25,55 -16,87 18,64 z m 7174,-33 c 0,-20 -21,-49 -35,-49 -18,0 -20,31 -3,48 15,15 38,16 38,1 z m 530,-49 c 0,-11 -4,-20 -9,-20 -14,0 -23,18 -16,30 10,17 25,11 25,-10 z m 137,-26 c -9,-9 -28,6 -21,18 4,6 10,6 17,-1 6,-6 8,-13 4,-17 z m 183,1 c 0,-8 -9,-15 -20,-15 -11,0 -20,7 -20,15 0,8 9,15 20,15 11,0 20,-7 20,-15 z m -125,-5 c 3,-5 -1,-10 -10,-10 -9,0 -13,5 -10,10 3,6 8,10 10,10 2,0 7,-4 10,-10 z m -721,-35 c 3,-8 -3,-19 -13,-24 -21,-12 -31,-5 -31,21 0,22 35,25 44,3 z m 148,-77 c -7,-7 -12,-8 -12,-2 0,14 12,26 19,19 2,-3 -1,-11 -7,-17 z M 999,6512 c 6,-41 18,-87 26,-103 18,-34 6,-38 -21,-8 -15,16 -20,40 -23,108 -1,47 -1,84 2,81 3,-3 10,-38 16,-78 z m 9167,52 c -5,-14 -9,-15 -19,-5 -9,9 -9,14 3,21 18,11 24,6 16,-16 z m 184,-48 c 0,-20 13,-27 68,-35 86,-12 62,-72 -37,-91 -239,-47 -308,-76 -400,-167 -68,-68 -84,-76 -79,-40 6,42 215,180 313,205 22,6 61,16 88,23 26,6 50,16 53,21 4,5 -6,22 -21,38 -17,17 -25,35 -22,44 8,20 37,21 37,2 z m -177,-21 c 1,-5 -6,-11 -15,-13 -11,-2 -18,3 -18,13 0,17 30,18 33,0 z m 132,-224 c 7,-13 -48,-75 -88,-100 -35,-21 -117,-44 -117,-32 0,15 72,75 127,107 64,37 69,38 78,25 z m 533,-8 c -2,-11 -21,-24 -50,-34 -26,-8 -67,-29 -90,-45 -24,-17 -55,-35 -70,-42 -33,-14 -36,-37 -9,-52 14,-7 35,-6 70,2 59,13 87,7 229,-53 51,-22 115,-44 142,-50 28,-6 50,-15 50,-20 0,-5 -32,-9 -71,-9 -63,0 -82,5 -163,42 -87,41 -95,43 -186,42 -100,0 -122,-7 -340,-100 -83,-35 -202,-45 -258,-20 -22,9 -88,19 -164,25 -185,13 -229,49 -105,86 78,23 100,20 117,-18 15,-31 17,-32 85,-35 161,-7 336,39 466,122 46,30 117,76 158,102 109,70 197,96 189,57 z m -1096,-29 c -5,-22 -107,-141 -136,-156 -13,-7 -115,-15 -261,-19 -132,-4 -249,-11 -260,-15 -39,-15 4,24 52,47 42,20 58,22 177,19 280,-8 284,-7 362,90 48,58 72,72 66,34 z m -6842,12 c 0,-2 -7,-7 -16,-10 -8,-3 -12,-2 -9,4 6,10 25,14 25,6 z m 8428,-15 c 72,-37 107,-97 76,-132 -28,-31 -71,-16 -44,16 16,20 4,51 -31,75 -27,20 -57,60 -44,60 3,0 22,-9 43,-19 z m -1468,0 c 0,-12 -63,-51 -83,-51 -19,0 -30,27 -15,36 12,7 63,21 86,23 6,1 12,-3 12,-8 z m 1315,-21 c 3,-5 2,-10 -4,-10 -5,0 -13,5 -16,10 -3,6 -2,10 4,10 5,0 13,-4 16,-10 z m -1140,-10 c -3,-5 -10,-10 -16,-10 -5,0 -9,5 -9,10 0,6 7,10 16,10 8,0 12,-4 9,-10 z m 1035,-10 c 0,-5 -4,-10 -10,-10 -5,0 -10,5 -10,10 0,6 5,10 10,10 6,0 10,-4 10,-10 z m -8370,-15 c 0,-8 -7,-15 -15,-15 -16,0 -20,12 -8,23 11,12 23,8 23,-8 z m 258,3 c 17,-17 15,-69 -4,-96 -21,-30 -64,-30 -64,1 0,27 36,107 48,107 4,0 13,-5 20,-12 z m 8277,-19 c 0,-7 -8,-15 -17,-17 -18,-3 -25,18 -11,32 10,10 28,1 28,-15 z m -97,2 c 11,-6 10,-11 -3,-25 -22,-21 -35,-20 -35,2 0,30 14,39 38,23 z m -1091,-37 c -9,-9 -28,6 -21,18 4,6 10,6 17,-1 6,-6 8,-13 4,-17 z m 993,-4 c 0,-5 -7,-10 -16,-10 -8,0 -12,5 -9,10 3,6 10,10 16,10 5,0 9,-4 9,-10 z m -8420,-14 c 0,-3 -194,-167 -260,-220 -14,-10 16,21 65,71 106,105 195,174 195,149 z m 178,-50 c 15,-8 45,-34 67,-57 l 40,-43 -40,35 c -22,19 -55,41 -73,48 -17,7 -32,17 -32,22 0,12 7,11 38,-5 z m 8202,4 c 0,-5 -4,-10 -9,-10 -6,0 -13,5 -16,10 -3,6 1,10 9,10 9,0 16,-4 16,-10 z m -1680,-29 c 0,-14 -18,-23 -30,-16 -6,4 -8,11 -5,16 8,12 35,12 35,0 z m -6378,-23 c -7,-7 -12,-8 -12,-2 0,14 12,26 19,19 2,-3 -1,-11 -7,-17 z m 6504,-3 c 7,-18 -13,-45 -33,-45 -17,0 -27,24 -19,45 7,20 45,19 52,0 z m 212,-88 c -54,-49 -58,-80 -17,-123 42,-43 29,-44 -95,-8 -89,26 -90,26 -172,10 -112,-22 -159,-21 -184,4 -27,27 -25,71 5,104 28,30 41,31 167,14 77,-10 96,-10 141,5 29,9 59,18 67,21 8,2 40,5 69,5 l 55,1 z m 360,-51 c 3,-12 -1,-17 -10,-14 -7,3 -15,13 -16,22 -3,12 1,17 10,14 7,-3 15,-13 16,-22 z m 632,-11 c 33,-17 36,-25 18,-43 -15,-15 -50,-16 -65,-1 -29,29 -109,30 -213,3 -23,-6 -24,-5 -9,10 41,44 208,62 269,31 z m 250,-62 c 0,-10 -7,-37 -16,-60 -36,-94 20,-118 144,-64 96,42 118,46 147,27 17,-11 25,-26 25,-45 0,-24 -6,-31 -31,-40 -47,-16 -53,-14 -35,14 30,45 19,46 -74,5 -59,-26 -87,-31 -212,-40 -177,-13 -198,-18 -223,-58 -11,-17 -26,-31 -33,-32 -7,0 -31,17 -55,39 -79,72 -117,78 -117,18 0,-28 9,-42 45,-76 44,-40 44,-41 17,-41 -46,0 -88,35 -130,107 -22,37 -49,76 -59,85 -27,25 -80,45 -140,53 -81,11 -64,48 30,65 36,7 52,-2 22,-14 -27,-10 -16,-25 27,-37 24,-6 65,-23 93,-38 49,-25 55,-26 227,-26 201,0 212,4 257,86 13,24 30,54 38,67 16,26 53,30 53,5 z m -1440,-48 c 0,-8 -7,-15 -15,-15 -16,0 -20,12 -8,23 11,12 23,8 23,-8 z m 480,6 c -22,-12 -99,-23 -112,-15 -19,12 16,24 72,24 35,-1 49,-4 40,-9 z m 428,-23 c -6,-18 -28,-21 -28,-4 0,9 7,16 16,16 9,0 14,-5 12,-12 z m -968,-28 c 0,-5 -7,-10 -15,-10 -8,0 -15,5 -15,10 0,6 7,10 15,10 8,0 15,-4 15,-10 z m 225,-30 c 0,-36 -29,-33 -33,3 -3,23 0,28 15,25 12,-2 18,-12 18,-28 z m 1637,15 c 0,-5 -5,-11 -11,-13 -6,-2 -11,4 -11,13 0,9 5,15 11,13 6,-2 11,-8 11,-13 z m -1752,-5 c 0,-5 -5,-10 -11,-10 -5,0 -7,5 -4,10 3,6 8,10 11,10 2,0 4,-4 4,-10 z m 210,1 c 0,-12 -20,-25 -27,-18 -7,7 6,27 18,27 5,0 9,-4 9,-9 z m 325,-31 c -3,-5 -15,-10 -25,-10 -45,0 -34,-20 77,-146 35,-40 63,-75 63,-78 0,-3 -10,-6 -23,-6 -30,0 -101,61 -132,113 -13,23 -42,60 -64,81 -22,22 -38,43 -35,48 3,4 37,8 75,8 44,0 68,-4 64,-10 z m 95,-10 c 0,-5 -7,-10 -15,-10 -8,0 -15,5 -15,10 0,6 7,10 15,10 8,0 15,-4 15,-10 z m -8210,-8 c 0,-31 -128,-111 -178,-112 -41,0 -20,20 73,70 95,51 105,55 105,42 z m 8210,-70 c 0,-39 -44,-57 -55,-22 -9,27 1,40 31,40 16,0 24,-6 24,-18 z m 60,3 c 0,-8 -4,-15 -10,-15 -5,0 -10,7 -10,15 0,8 5,15 10,15 6,0 10,-7 10,-15 z m 765,-45 c 0,-18 -6,-26 -23,-28 -24,-4 -38,18 -28,44 3,9 15,14 28,12 17,-2 23,-10 23,-28 z m -637,-8 c 4,-29 -26,-42 -44,-18 -17,24 -6,48 20,44 13,-2 22,-12 24,-26 z m -98,-48 c 40,-36 52,-64 28,-64 -21,1 -108,69 -108,85 0,26 39,16 80,-21 z m 827,10 c 8,-21 -13,-42 -28,-27 -13,13 -5,43 11,43 6,0 13,-7 17,-16 z m 83,-29 c 0,-8 -7,-15 -15,-15 -16,0 -20,12 -8,23 11,12 23,8 23,-8 z m -5112,-84 c 10,-11 223,-255 474,-544 252,-288 467,-536 479,-550 l 20,-27 h -996 -997 l 27,33 c 49,58 790,909 879,1010 48,53 89,97 92,97 3,0 13,-9 22,-19 z m 5092,9 c 0,-5 -7,-10 -15,-10 -8,0 -15,5 -15,10 0,6 7,10 15,10 8,0 15,-4 15,-10 z m -419,-50 c 24,-13 25,-36 2,-45 -10,-4 -58,-10 -106,-12 -62,-4 -90,-10 -94,-19 -10,-26 7,-62 52,-112 63,-70 60,-94 -6,-49 -53,35 -82,85 -74,127 9,51 31,79 78,101 46,20 117,25 148,9 z m 609,-65 c 0,-8 -7,-15 -15,-15 -16,0 -20,12 -8,23 11,12 23,8 23,-8 z m -80,-20 c 0,-16 -27,-32 -37,-22 -3,4 -3,13 0,22 8,20 37,20 37,0 z m -8498,-86 c 20,-5 53,-16 74,-25 l 38,-16 -28,-15 c -20,-10 -40,-13 -65,-8 -20,4 -58,10 -86,15 -27,4 -59,11 -70,15 -11,5 -5,-5 15,-23 l 35,-31 -33,-1 c -19,0 -45,-9 -59,-20 -14,-11 -34,-20 -44,-20 -12,0 -19,-7 -19,-20 0,-24 -13,-26 -30,-5 -19,22 -32,18 -20,-6 7,-11 10,-22 8,-24 -2,-2 -32,16 -68,40 -72,51 -87,56 -64,20 18,-27 13,-31 -17,-14 -17,9 -21,7 -26,-10 -4,-14 -13,-21 -30,-21 -28,0 -103,36 -103,49 0,25 16,44 51,62 22,11 39,24 39,29 0,6 30,10 68,10 55,0 76,-6 120,-29 55,-31 58,-31 42,-2 -14,28 11,53 61,62 49,8 155,2 211,-12 z m 172,-5 c 9,-3 16,-10 16,-15 0,-15 -37,-10 -50,6 -10,12 -10,15 3,15 8,0 22,-3 31,-6 z m 25,-78 c -2,-2 -71,-34 -154,-71 -230,-103 -215,-97 -215,-82 0,19 181,116 238,127 26,5 61,14 77,19 32,10 61,14 54,7 z m -821,-51 c 37,-16 82,-52 82,-66 0,-4 -12,-9 -26,-11 -26,-3 -25,-4 20,-37 26,-18 45,-35 42,-38 -2,-3 -44,12 -93,32 -108,45 -151,60 -158,53 -3,-2 17,-29 45,-59 27,-30 50,-57 50,-61 0,-18 -152,17 -245,56 -82,35 -96,33 -59,-6 27,-29 30,-36 20,-60 -5,-16 -15,-28 -22,-28 -21,0 -128,85 -163,129 -40,51 -31,71 33,71 23,0 47,5 53,11 29,29 357,40 421,14 z m 762,-61 c -23,-60 -122,-194 -164,-224 -24,-16 -62,-50 -84,-75 -23,-26 -48,-45 -60,-45 -13,0 -37,-21 -66,-58 -48,-60 -79,-87 -133,-115 -72,-38 -80,-14 -28,90 24,49 46,76 72,94 23,14 49,45 66,77 21,38 34,52 50,52 12,0 31,7 41,15 11,8 27,15 35,15 23,0 102,63 187,150 51,51 77,71 84,64 8,-8 7,-20 0,-40 z m 7830,16 c 0,-5 -9,-10 -20,-10 -11,0 -20,5 -20,10 0,6 9,10 20,10 11,0 20,-4 20,-10 z m -9249,-56 c 62,-18 102,-41 94,-54 -3,-5 23,-32 57,-61 82,-67 85,-78 10,-34 -80,46 -98,44 -42,-5 l 45,-39 -63,20 c -37,12 -70,18 -80,13 -9,-4 -23,-6 -31,-5 -11,2 -10,-3 4,-25 17,-26 17,-27 -1,-19 -11,4 -35,11 -54,16 -58,13 -124,29 -142,36 -27,8 -22,-19 7,-47 29,-27 26,-37 -5,-20 -16,9 -25,9 -33,1 -14,-14 -114,-15 -122,-1 -3,6 -16,10 -28,10 -45,0 -88,57 -68,88 6,10 152,62 242,86 30,9 64,25 74,36 22,24 62,26 136,4 z m 1065,-23 c -20,-22 -158,-76 -323,-126 -355,-108 -784,-186 -1093,-199 l -125,-5 80,14 c 44,8 143,21 220,30 77,8 199,26 270,40 72,13 173,31 225,40 52,9 145,29 205,45 107,28 425,134 495,164 50,22 68,21 46,-3 z m 7178,-128 c 9,-34 -6,-69 -26,-57 -15,10 -29,55 -22,76 9,29 37,17 48,-19 z m -107,0 c 27,-30 63,-95 63,-114 0,-16 -48,-79 -61,-79 -31,0 -68,134 -53,194 8,33 19,33 51,-1 z m 177,4 c 12,-19 3,-32 -19,-24 -17,7 -21,51 -3,45 6,-2 16,-12 22,-21 z m 923,-23 c -3,-3 -12,-4 -19,-1 -8,3 -5,6 6,6 11,1 17,-2 13,-5 z m -69,-31 c -4,-22 -48,-31 -48,-10 0,19 10,27 32,27 13,0 18,-6 16,-17 z m -1102,-95 c 13,-26 24,-58 24,-70 0,-32 -27,-68 -51,-68 -36,0 -69,118 -55,195 l 7,37 26,-23 c 14,-13 36,-45 49,-71 z m 1344,82 c 0,-5 -18,-10 -39,-10 -22,0 -43,5 -46,10 -4,6 12,10 39,10 25,0 46,-4 46,-10 z m -339,-18 c 29,-24 20,-48 -22,-57 -37,-8 -59,11 -59,52 0,19 5,23 29,23 16,0 39,-8 52,-18 z m -9426,-53 c 14,-22 -3,-18 -26,7 -23,25 -23,26 -2,15 12,-6 25,-16 28,-22 z m 1154,-90 c -34,-56 -80,-123 -101,-150 -33,-42 -44,-49 -73,-49 -32,0 -36,3 -42,31 l -6,31 -61,-61 c -63,-62 -85,-72 -105,-47 -10,11 -9,21 4,46 9,18 15,34 12,36 -2,2 -31,-16 -63,-42 -88,-68 -106,-76 -155,-65 -63,14 -69,34 -25,94 27,38 195,171 269,215 58,34 87,36 87,7 0,-27 29,-16 69,25 41,42 54,50 45,25 -9,-23 25,-30 56,-11 38,22 43,20 36,-9 -8,-32 -2,-31 59,9 28,18 52,29 53,24 2,-4 -24,-54 -59,-109 z m 7630,90 c 22,-64 6,-93 -39,-69 -18,10 -21,18 -16,42 6,32 23,58 36,58 5,0 13,-14 19,-31 z m 258,9 c 23,-25 53,-81 53,-98 0,-13 -85,-13 -111,0 -37,20 -16,120 26,120 6,0 21,-10 32,-22 z m 133,12 c 26,-14 46,-76 30,-95 -18,-22 -57,-18 -74,7 -21,29 -20,57 1,80 19,21 19,21 43,8 z m 127,-11 c 47,-29 43,-64 -6,-64 -40,0 -57,21 -47,58 8,32 10,33 53,6 z m 517,12 c 8,-12 -41,-23 -65,-16 -10,4 -19,11 -19,16 0,12 77,12 84,0 z m -919,-25 c 9,-13 19,-40 22,-60 7,-44 -10,-53 -61,-32 -30,13 -36,20 -36,46 0,67 44,94 75,46 z m -600,-36 c 7,-14 23,-54 35,-89 16,-49 18,-66 9,-77 -14,-17 -51,-18 -66,-3 -7,7 -16,0 -31,-25 -12,-20 -28,-36 -36,-36 -8,0 -36,-11 -62,-25 -53,-28 -92,-32 -100,-10 -4,8 1,47 10,86 9,39 16,85 16,101 0,38 27,49 50,20 10,-12 21,-43 24,-69 10,-68 16,-84 28,-77 7,5 9,38 4,100 -4,54 -2,95 3,98 12,8 37,-17 57,-56 22,-42 26,-30 13,31 -13,62 -7,90 17,70 8,-7 21,-24 29,-39 z m 375,19 c 20,-37 6,-50 -52,-47 -64,4 -71,24 -18,50 45,23 57,23 70,-3 z m 1184,-5 c 23,-9 19,-21 -9,-28 -27,-7 -65,8 -65,24 0,11 49,13 74,4 z m 64,-50 c 34,-9 26,-24 -12,-24 -34,0 -52,11 -39,24 8,7 21,8 51,0 z m -1910,-66 c 16,-16 15,-129 -1,-152 -7,-9 -31,-20 -54,-23 l -41,-5 34,83 c 18,46 34,90 34,97 0,15 12,16 28,0 z m -102,-64 c -10,-83 -20,-102 -60,-110 -66,-12 -70,-2 -24,73 72,120 95,130 84,37 z m -132,0 c -2,-72 -16,-94 -62,-94 -38,0 -103,28 -109,47 -2,6 20,31 48,57 45,40 57,47 88,44 l 36,-3 z M 2072,3989 c 29,-6 74,-22 100,-35 64,-32 78,-31 78,6 0,17 4,30 9,30 12,0 38,-26 51,-51 6,-10 17,-19 26,-19 27,0 107,-47 202,-118 109,-82 149,-102 163,-81 26,41 1,134 -60,223 -17,25 -31,47 -31,50 0,16 39,3 59,-18 37,-39 101,-149 101,-173 0,-61 85,-107 218,-119 66,-6 73,-9 70,-28 -4,-29 20,-27 35,4 14,29 47,40 47,16 0,-11 9,-16 26,-16 23,0 25,3 20,25 -6,23 -4,25 25,25 18,0 53,12 78,27 25,15 62,29 81,33 32,5 35,8 32,37 -5,49 22,93 58,93 22,0 33,7 44,28 l 14,27 7,-28 c 11,-41 -2,-127 -21,-148 -9,-10 -40,-27 -68,-38 -34,-12 -56,-28 -66,-46 -9,-16 -22,-32 -30,-36 -51,-27 -103,-52 -158,-75 -48,-20 -102,-75 -102,-104 0,-11 -20,-42 -45,-70 l -45,-51 v 36 c 0,20 11,63 26,96 38,93 39,92 -106,105 -94,8 -141,17 -192,37 -89,36 -153,45 -176,24 -9,-8 -30,-19 -47,-23 -46,-10 -55,-23 -55,-71 0,-71 -51,-150 -107,-168 -28,-8 -28,-4 -3,37 29,47 26,104 -9,173 -33,65 -44,75 -83,75 -15,0 -43,8 -62,17 -30,14 -41,15 -73,4 -32,-10 -44,-10 -75,3 -48,21 -141,21 -158,1 -10,-12 -8,-21 9,-48 28,-46 27,-54 -11,-73 -18,-9 -47,-31 -65,-50 -32,-34 -84,-47 -98,-24 -13,21 -54,9 -84,-25 -38,-44 -48,-79 -30,-112 13,-24 11,-27 -22,-57 -19,-17 -43,-44 -53,-59 -21,-34 -67,-63 -121,-78 -22,-6 -58,-28 -80,-49 -41,-40 -122,-83 -138,-73 -5,3 10,25 34,49 42,43 43,44 23,65 -18,21 -18,21 1,36 11,8 51,30 88,50 37,20 77,48 88,62 l 21,26 -79,8 c -176,17 -207,36 -83,51 60,7 88,5 142,-9 92,-24 108,-17 108,46 0,57 -13,62 -63,27 -46,-33 -120,-35 -182,-5 l -50,24 65,14 c 50,11 67,19 75,37 9,20 17,22 77,22 101,0 103,30 7,81 -32,17 -56,35 -53,40 8,14 36,11 54,-6 13,-12 23,-13 44,-5 20,7 47,6 98,-5 39,-8 75,-12 80,-8 6,3 8,21 5,39 -6,33 -5,34 29,34 20,0 44,5 55,11 20,10 20,12 3,30 -9,10 -42,24 -74,30 -66,13 -85,22 -76,38 10,15 109,13 181,-4 89,-22 112,-20 119,10 8,33 23,32 98,-9 64,-35 164,-66 212,-66 19,0 26,5 26,19 0,11 2,26 5,33 4,10 -6,18 -33,26 -22,7 -45,19 -52,27 -7,8 -23,15 -37,15 -24,0 -71,21 -153,69 l -45,26 30,6 c 46,10 50,10 107,-2 z m 6777,-68 c 29,-40 26,-58 -11,-81 -37,-23 -107,-44 -116,-36 -3,3 -1,16 5,29 12,26 85,115 95,116 4,1 16,-12 27,-28 z M 7678,3806 c 9,-10 -20,-37 -133,-121 -336,-252 -674,-400 -1100,-481 -117,-22 -178,-27 -370,-31 -242,-6 -351,2 -545,38 -320,60 -651,195 -929,379 -115,76 -254,183 -282,216 -13,16 81,17 1670,11 926,-3 1686,-8 1689,-11 z m 1210,-8 c 22,-22 13,-39 -30,-58 -45,-21 -118,-27 -118,-10 0,13 101,80 120,80 9,0 21,-5 28,-12 z m 32,-114 c 11,-11 12,-18 3,-32 -13,-21 -85,-20 -140,3 -43,18 -39,24 24,41 53,14 90,10 113,-12 z M 3743,3536 c -3,-39 -28,-65 -90,-92 -33,-15 -56,-33 -65,-51 -7,-15 -30,-36 -50,-45 -21,-10 -44,-30 -52,-46 -15,-29 -76,-76 -141,-110 -22,-11 -51,-32 -64,-46 -26,-27 -48,-27 -101,-1 l -25,13 30,12 c 95,39 142,68 195,117 32,30 62,63 65,73 4,12 19,22 41,26 44,8 69,31 54,49 -12,15 32,53 120,104 65,37 86,36 83,-3 z m 5105,-192 c 26,-17 28,-31 5,-64 -25,-37 -34,-40 -72,-24 -48,20 -71,43 -71,70 0,41 83,52 138,18 z m -110,-146 c 17,-17 15,-48 -4,-55 -18,-7 -84,22 -84,36 0,26 67,40 88,19 z m -7090,-30 c 17,-17 14,-57 -8,-105 -22,-49 -47,-56 -52,-16 -2,14 -9,28 -16,31 -14,4 -77,-57 -150,-146 -24,-29 -48,-50 -53,-47 -14,9 -11,59 6,81 9,12 12,31 9,50 -5,30 -2,35 61,79 114,82 173,103 203,73 z m 5962,-32 c 10,-25 24,-72 31,-106 6,-33 16,-63 20,-66 5,-3 9,-18 9,-33 0,-16 9,-49 20,-73 23,-52 57,-250 65,-381 11,-164 18,-170 70,-67 19,38 49,85 66,105 l 31,35 -7,93 c -10,125 7,103 34,-47 25,-137 32,-153 96,-224 26,-29 44,-52 40,-52 -10,0 -65,39 -97,68 -34,31 -51,21 -42,-25 5,-26 4,-34 -5,-29 -7,4 -11,38 -11,87 0,113 -17,107 -81,-28 -57,-123 -69,-187 -69,-399 v -121 l 117,-108 116,-108 12,39 c 6,22 19,51 27,64 9,14 22,44 29,68 l 12,43 20,-31 19,-30 -26,-30 c -25,-31 -61,-129 -72,-201 -4,-22 -9,-39 -13,-39 -3,0 -16,21 -29,48 -47,99 -201,256 -232,237 -5,-3 -17,-22 -25,-41 -16,-39 -51,-49 -42,-11 41,157 41,158 42,442 0,178 -5,305 -13,350 -31,174 -42,227 -71,337 -17,64 -42,147 -56,184 -14,36 -25,73 -25,80 0,29 21,12 40,-30 z m -52,-31 c 20,-59 10,-77 -16,-28 -12,23 -22,50 -22,58 0,29 25,9 38,-30 z m 1321,11 c 9,-10 9,-16 1,-21 -16,-10 -40,2 -40,20 0,19 24,20 39,1 z m -5425,-31 c 3,-8 22,-23 44,-34 56,-28 82,-93 42,-106 -15,-5 -20,-15 -20,-39 0,-19 -7,-50 -15,-69 -8,-20 -15,-53 -15,-74 0,-21 -13,-66 -30,-101 l -30,-64 38,-44 c 40,-47 71,-56 79,-24 8,31 22,24 43,-22 25,-56 26,-83 3,-73 -37,16 -56,11 -64,-18 -4,-15 -19,-40 -32,-57 -14,-16 -28,-44 -32,-62 -13,-68 -13,-67 -45,-55 -25,9 -33,8 -47,-6 -16,-15 -16,-21 0,-93 l 17,-76 -78,-85 c -42,-47 -93,-93 -112,-103 -19,-10 -49,-32 -67,-48 -18,-17 -47,-32 -70,-35 -27,-5 -56,-21 -87,-48 -44,-39 -49,-41 -74,-29 -15,7 -60,23 -101,37 l -75,24 -48,-26 c -27,-15 -72,-29 -103,-32 -30,-3 -60,-12 -66,-19 -17,-20 -39,-17 -39,5 0,28 -18,36 -45,21 -13,-7 -31,-10 -41,-6 -28,11 -2,28 53,33 26,3 55,12 64,20 9,7 50,17 91,22 71,8 138,32 138,50 0,17 -27,30 -105,51 -83,23 -125,43 -125,60 0,6 13,4 29,-5 19,-9 32,-11 36,-5 4,6 56,10 124,10 131,0 184,12 297,66 131,64 218,154 289,298 42,85 46,90 77,90 29,1 33,4 30,26 -2,14 -4,46 -3,73 1,40 -2,47 -18,47 -10,0 -24,-7 -31,-15 -7,-8 -22,-15 -35,-15 -12,0 -40,-13 -62,-29 -51,-37 -143,-84 -150,-77 -12,12 30,58 71,79 101,52 126,69 166,114 23,26 53,66 66,88 24,42 43,142 44,228 0,26 5,47 10,47 6,0 10,-11 10,-25 0,-27 17,-34 26,-10 10,26 -5,63 -37,93 -23,22 -30,35 -25,50 7,22 31,20 40,-3 z m 5268,-12 c 25,-23 22,-42 -9,-54 -63,-24 -111,20 -61,55 29,20 47,20 70,-1 z M 7381,2928 c -2,-147 -8,-178 -41,-208 -16,-14 -42,-61 -60,-105 -17,-44 -49,-112 -70,-151 -20,-39 -54,-110 -75,-158 -34,-80 -36,-89 -21,-98 15,-8 14,-13 -13,-44 -35,-39 -45,-74 -61,-204 -6,-52 -12,-105 -14,-117 -2,-13 0,-23 5,-23 5,0 36,25 70,55 34,31 97,80 140,110 42,30 80,59 84,65 8,12 25,13 25,1 0,-21 -58,-76 -123,-118 -81,-52 -153,-116 -173,-154 -13,-26 -11,-34 41,-138 31,-61 71,-130 89,-154 43,-56 57,-83 49,-91 -3,-3 4,-6 16,-6 12,0 35,-7 51,-15 16,-8 64,-20 107,-27 90,-13 108,-23 69,-38 -69,-26 -182,7 -251,74 -50,48 -143,188 -186,280 -45,97 -59,159 -59,272 0,172 34,307 108,430 94,154 221,400 246,476 19,54 26,98 26,149 0,54 3,70 11,62 8,-8 11,-52 10,-125 z m 1566,101 c 34,-12 35,-26 4,-39 -56,-23 -112,8 -82,44 14,16 24,15 78,-5 z M 7634,2819 c 28,-138 30,-149 18,-149 -7,0 -62,259 -62,291 1,36 20,-24 44,-142 z m 1146,138 c 0,-19 -21,-37 -42,-37 -19,0 -22,8 -12,34 7,19 54,22 54,3 z m 261,-7 c 10,-6 19,-17 19,-24 0,-29 -128,-56 -137,-29 -7,18 46,63 74,63 13,0 33,-5 44,-10 z m -1504,-52 c -3,-8 -6,-5 -6,6 -1,11 2,17 5,13 3,-3 4,-12 1,-19 z m -3915,-40 c 48,-59 52,-68 34,-68 -24,0 -74,51 -82,83 -9,39 8,34 48,-15 z m 3925,-20 c -3,-8 -6,-5 -6,6 -1,11 2,17 5,13 3,-3 4,-12 1,-19 z m 1600,-2 c 15,-13 24,-28 20,-33 -5,-4 -44,-10 -88,-12 -66,-3 -79,-1 -79,12 0,24 49,57 86,57 20,0 43,-9 61,-24 z m -1587,-90 c 0,-19 -9,-50 -19,-68 -11,-18 -31,-89 -46,-157 -15,-68 -37,-158 -50,-200 -12,-42 -28,-108 -35,-148 -12,-74 -31,-106 -52,-85 -7,7 -3,36 17,99 15,48 51,180 81,293 64,241 82,300 95,300 5,0 9,-15 9,-34 z m 1670,-15 c 14,-10 26,-26 28,-35 3,-14 -7,-16 -75,-16 -89,0 -114,10 -97,37 28,45 94,51 144,14 z m 15,-95 c 38,-16 62,-54 51,-82 -12,-31 -156,-3 -170,32 -9,22 4,42 32,53 38,13 48,13 87,-3 z m -4641,-38 c 22,-51 27,-83 13,-100 -6,-8 -58,-43 -113,-77 -56,-34 -119,-75 -140,-91 -50,-40 -80,-47 -104,-25 -11,10 -20,23 -20,28 0,6 -11,25 -25,42 l -24,32 22,21 c 58,53 260,162 374,201 1,1 9,-14 17,-31 z m 3090,-105 c 3,-28 2,-54 -3,-57 -8,-5 -16,32 -26,134 l -5,45 13,-35 c 8,-19 17,-58 21,-87 z m 433,85 c 16,-18 54,-76 84,-128 29,-52 71,-117 91,-143 35,-46 48,-77 31,-77 -5,0 -48,34 -96,75 -48,40 -105,84 -125,96 -49,30 -48,29 -55,112 -9,102 14,124 70,65 z m -2007,-18 c 0,-5 -7,-10 -15,-10 -8,0 -15,5 -15,10 0,6 7,10 15,10 8,0 15,-4 15,-10 z m -102,-58 c 6,-37 45,-38 99,-3 64,43 83,41 83,-7 0,-29 -5,-39 -22,-47 -14,-6 -27,-26 -35,-55 -11,-38 -11,-52 2,-89 18,-54 60,-111 82,-111 9,0 35,18 59,40 24,22 52,40 62,40 36,0 80,-74 64,-108 -38,-79 -37,-77 -73,-76 -18,1 -43,3 -54,5 -17,3 -21,-2 -23,-34 -2,-21 -12,-53 -23,-70 -24,-41 -24,-79 1,-102 24,-22 36,-66 44,-165 4,-41 12,-109 18,-150 9,-68 8,-80 -11,-129 l -21,-55 35,-32 c 29,-26 35,-39 35,-72 0,-22 -3,-47 -6,-56 -8,-21 -37,-20 -64,2 l -21,17 20,27 c 26,33 26,39 -3,82 -26,39 -42,125 -52,285 -6,92 -5,101 15,126 29,38 27,51 -19,101 l -40,44 v 109 c 0,66 -4,112 -10,116 -17,11 -40,-15 -40,-46 0,-40 -15,-43 -44,-8 -50,59 -49,116 3,134 19,6 38,20 41,31 10,27 -9,63 -37,70 -32,8 -65,-23 -106,-100 -17,-33 -51,-79 -74,-103 -28,-27 -43,-52 -43,-68 0,-30 -32,-65 -59,-65 -11,0 -23,-4 -26,-10 -9,-15 -32,-12 -39,5 -9,25 4,43 40,55 34,12 35,13 28,56 -6,41 -4,46 29,79 19,19 42,35 49,35 8,0 22,8 31,18 14,15 15,24 5,55 -14,47 3,69 72,92 27,9 51,22 53,30 3,7 -10,34 -30,59 -22,28 -33,52 -29,62 8,21 30,12 34,-14 z m 3289,-30 c 30,-45 21,-66 -27,-59 -73,9 -116,61 -72,86 33,20 75,8 99,-27 z m -1997,-50 c 0,-13 -30,-52 -41,-52 -14,0 -11,22 8,42 17,19 33,24 33,10 z m -1050,-32 c 0,-34 -14,-39 -30,-11 -15,29 -12,41 10,41 16,0 20,-7 20,-30 z m 3022,-17 c 23,-28 28,-50 13,-63 -24,-20 -80,51 -58,73 11,12 29,8 45,-10 z M 7185,2270 c -16,-16 -31,-28 -34,-25 -2,3 8,19 24,35 16,16 31,28 34,25 2,-3 -8,-19 -24,-35 z m 820,-84 c 19,-53 35,-107 35,-119 -1,-22 -1,-22 -16,-2 -24,31 -81,243 -61,224 4,-3 22,-49 42,-103 z m -388,-8 c -7,-105 -40,-212 -82,-263 -17,-22 -42,-59 -54,-82 -23,-45 -47,-59 -35,-20 4,12 33,72 65,133 58,112 82,180 94,267 10,77 18,54 12,-35 z m 1680,51 c 10,-19 10,-27 -2,-38 -18,-19 -45,1 -45,34 0,42 27,45 47,4 z m -2017,-32 c 0,-18 -9,-50 -20,-72 -14,-28 -17,-42 -9,-52 9,-10 7,-14 -7,-20 -11,-3 -23,-12 -27,-20 -4,-7 -15,-13 -23,-13 -8,0 -33,-9 -55,-20 -71,-37 -81,3 -18,77 99,117 142,162 150,157 5,-3 9,-20 9,-37 z m 427,-161 c -5,-82 -13,-116 -27,-116 -7,0 -4,107 6,190 5,37 8,41 16,26 6,-11 8,-52 5,-100 z m 470,67 c 77,-62 81,-68 88,-126 4,-31 5,-67 1,-79 -7,-30 -63,-91 -79,-86 -15,6 -56,140 -56,190 -1,20 3,40 9,43 6,4 4,15 -6,30 -15,23 -14,55 2,55 3,0 22,-12 41,-27 z m -669,-51 c 4,-47 -20,-102 -44,-102 -13,0 -15,7 -9,38 20,111 47,144 53,64 z m 431,27 c 11,-12 25,-47 32,-78 6,-31 22,-75 35,-98 27,-46 31,-95 11,-133 -18,-35 -38,-30 -101,26 -56,50 -70,86 -44,112 9,9 9,18 0,37 -15,32 -16,75 -2,75 6,0 10,18 10,40 0,33 3,40 20,40 10,0 28,-10 39,-21 z m 1539,-27 c 2,-7 -5,-12 -16,-12 -19,0 -32,18 -32,42 0,13 42,-14 48,-30 z m -6980,16 c 16,-16 15,-48 -2,-48 -20,0 -39,27 -32,45 7,18 18,19 34,3 z m 6903,-14 c 12,-14 11,-16 -5,-13 -11,2 -21,10 -24,17 -5,17 13,15 29,-4 z m 145,-41 c -7,-17 -8,-17 -22,1 -8,11 -14,29 -14,40 0,20 0,20 21,-1 15,-14 19,-27 15,-40 z m -3066,1 c 0,-16 -16,-19 -25,-4 -8,13 4,32 16,25 5,-4 9,-13 9,-21 z m -2573,-54 19,-38 -67,-108 c -78,-125 -96,-137 -154,-108 -70,35 -70,47 -10,149 67,111 92,145 119,154 34,13 73,-7 93,-49 z m 4430,28 c -3,-7 -5,-2 -5,12 0,14 2,19 5,13 2,-7 2,-19 0,-25 z m -2266,-55 c -30,-43 -31,-45 -15,-75 18,-35 16,-56 -16,-183 -17,-67 -29,-96 -49,-112 -33,-29 -39,-29 -47,3 -5,21 0,33 30,63 37,38 37,38 25,85 -13,53 -7,170 12,224 13,39 81,82 87,55 2,-9 -10,-35 -27,-60 z m 3539,46 c 0,-6 -4,-7 -10,-4 -5,3 -10,11 -10,16 0,6 5,7 10,4 6,-3 10,-11 10,-16 z m -2190,-30 c 0,-18 -4,-28 -10,-24 -5,3 -10,20 -10,36 0,18 4,28 10,24 6,-3 10,-20 10,-36 z m 955,-59 c 3,-5 -1,-10 -9,-10 -9,0 -16,5 -16,10 0,6 4,10 9,10 6,0 13,-4 16,-10 z m -2656,-19 c 12,-8 13,-14 3,-35 -14,-32 -26,-33 -47,-4 -14,21 -14,24 2,35 20,15 23,16 42,4 z m 181,-42 c 13,-48 0,-156 -32,-259 -26,-85 -49,-128 -86,-163 -30,-29 -30,-29 -66,-12 -126,60 -89,257 80,428 60,61 89,63 104,6 z m 631,21 c 65,-20 68,-22 99,-77 l 32,-57 -26,-19 c -14,-10 -26,-28 -26,-38 0,-11 -4,-17 -10,-14 -5,3 -10,30 -10,59 0,61 -8,71 -68,81 -43,7 -72,34 -72,67 0,22 -2,22 81,-2 z m 1933,-46 c 3,-9 6,-47 6,-85 0,-65 -2,-70 -25,-79 -15,-6 -36,-31 -55,-67 -35,-68 -31,-25 5,47 13,25 26,76 30,115 4,39 9,73 12,78 7,12 21,8 27,-9 z m -867,-16 c -3,-8 -6,-5 -6,6 -1,11 2,17 5,13 3,-3 4,-12 1,-19 z m -308,-55 c -10,-38 -21,-88 -24,-112 -4,-48 -33,-96 -56,-96 -13,0 -98,147 -99,171 0,6 18,32 41,58 40,45 42,46 99,46 h 59 z m 940,27 c 22,-6 23,-9 9,-15 -20,-8 -70,14 -76,33 -4,12 0,12 19,2 12,-7 34,-16 48,-20 z m -3584,-13 c 62,-33 80,-62 55,-93 -18,-21 -49,-17 -105,14 -39,21 -51,33 -53,55 -8,66 15,71 103,24 z m 3952,-32 c 18,-70 35,-249 27,-280 -9,-37 -26,-31 -83,31 -58,63 -59,71 -36,202 17,99 20,104 53,100 23,-3 29,-10 39,-53 z m -4413,35 c 55,-20 54,-75 -1,-102 -24,-12 -44,-35 -79,-94 -10,-17 -12,-17 -56,-1 -63,24 -82,48 -74,90 8,43 52,85 107,102 54,17 71,18 103,5 z m 3256,6 c 0,-2 -20,-50 -45,-107 -24,-57 -45,-109 -45,-115 0,-5 -16,-26 -36,-45 l -35,-34 31,66 c 17,36 37,97 45,135 9,46 21,75 36,87 19,15 49,23 49,13 z m -1822,-18 c 19,-19 14,-44 -12,-61 -13,-9 -33,-36 -45,-61 -23,-47 -96,-136 -112,-136 -10,0 -12,31 -3,55 4,9 23,24 43,34 32,17 38,25 49,77 6,32 21,68 34,81 25,26 29,28 46,11 z m 2015,-29 c 11,-17 1,-89 -12,-89 -11,0 -21,36 -21,78 0,35 15,40 33,11 z m 69,-122 c -3,-113 0,-142 16,-190 23,-65 111,-217 130,-224 6,-3 23,2 37,11 25,16 25,16 14,-11 -14,-38 -4,-68 46,-139 74,-104 200,-206 273,-220 30,-6 47,7 54,41 4,23 38,34 38,12 0,-8 -7,-20 -15,-27 -61,-50 58,-140 186,-140 87,0 95,10 65,77 -32,68 -46,139 -46,233 0,116 17,106 22,-13 6,-120 30,-182 79,-200 33,-13 35,-25 14,-66 -33,-64 -155,-88 -258,-51 -138,50 -318,169 -438,290 -96,97 -200,259 -234,365 -26,80 -28,92 -22,203 8,137 15,182 31,182 8,0 10,-39 8,-133 z m -185,81 c 13,-22 12,-151 -3,-205 -8,-31 -23,-58 -36,-68 -25,-17 -98,-21 -98,-4 0,5 13,41 29,78 16,37 32,82 35,99 4,17 13,36 21,42 8,6 17,25 20,41 7,31 19,37 32,17 z m -4867,-18 c 0,-5 -21,-21 -47,-36 -27,-15 -72,-47 -102,-71 -29,-24 -57,-43 -62,-43 -17,0 -9,22 19,53 68,76 81,87 109,88 15,0 37,4 48,9 27,12 35,12 35,0 z m 3903,-77 c 53,-39 114,-114 124,-151 3,-14 -3,-45 -15,-76 -11,-28 -24,-62 -28,-76 -11,-41 -33,-67 -69,-84 -47,-22 -79,-20 -113,9 -42,35 -63,96 -69,201 -7,116 0,155 37,194 36,39 61,36 133,-17 z m -398,3 c 37,-87 66,-368 45,-432 -24,-76 -88,-117 -121,-78 -7,8 -25,22 -41,30 -17,9 -28,23 -28,35 0,11 -7,34 -16,51 -21,41 -20,77 6,173 40,145 94,255 126,255 8,0 21,-15 29,-34 z m 1731,-11 c 40,-30 54,-74 54,-166 0,-51 -5,-72 -20,-91 -11,-14 -24,-37 -30,-52 -20,-54 -43,-29 -86,94 -29,84 -35,113 -30,149 12,90 51,112 112,66 z m -1138,-16 c 30,-10 42,-32 42,-77 0,-14 20,-44 49,-75 56,-61 73,-89 65,-111 -10,-25 -29,-19 -62,19 -43,49 -79,114 -86,158 -6,29 -13,40 -34,47 -38,14 -55,25 -60,38 -5,15 44,16 86,1 z m 1520,-94 c 0,-42 -1,-46 -8,-22 -8,27 -14,92 -10,112 5,23 18,-44 18,-90 z m -5555,37 c -5,-12 -7,-12 -15,2 -11,20 1,44 12,25 5,-6 6,-19 3,-27 z m 4907,24 c 0,-3 -4,-8 -10,-11 -5,-3 -10,-1 -10,4 0,6 5,11 10,11 6,0 10,-2 10,-4 z m 550,-60 c 0,-12 9,-62 20,-112 21,-95 26,-174 11,-174 -12,0 -40,40 -75,110 -26,49 -28,62 -24,131 3,45 10,85 18,94 13,16 16,15 32,-5 10,-12 18,-32 18,-44 z m -3667,10 c 18,-7 40,-22 50,-33 18,-20 17,-21 -16,-42 -44,-27 -69,-27 -103,3 -26,22 -27,25 -15,55 15,35 34,39 84,17 z m 4012,-27 c 36,-44 117,-216 119,-253 1,-29 -2,-31 -34,-34 -19,-1 -51,6 -70,15 -30,16 -36,25 -47,73 -26,121 -28,230 -4,230 5,0 21,-14 36,-31 z m -915,-9 c 0,-5 -4,-10 -10,-10 -5,0 -10,5 -10,10 0,6 5,10 10,10 6,0 10,-4 10,-10 z m -2210,-19 c 0,-24 -25,-45 -45,-37 -15,5 -21,37 -8,49 3,4 17,7 30,7 16,0 23,-6 23,-19 z m 2894,-52 c -3,-5 -10,-7 -15,-3 -5,3 -7,10 -3,15 3,5 10,7 15,3 5,-3 7,-10 3,-15 z m -3345,-30 c 36,-13 35,-7 17,-124 -13,-88 -37,-155 -55,-155 -5,0 -22,6 -38,14 -15,8 -41,18 -58,23 -41,11 -44,49 -11,116 14,29 30,71 36,95 10,39 13,42 44,42 18,0 47,-5 65,-11 z m 3122,-70 c 38,-76 20,-60 -31,26 -18,30 -20,37 -6,26 9,-8 26,-32 37,-52 z m -2186,30 c 0,-7 -8,-15 -17,-17 -18,-3 -25,18 -11,32 10,10 28,1 28,-15 z m 2081,-34 c -9,-14 -23,-25 -32,-25 -17,0 -12,13 20,48 25,28 34,11 12,-23 z m 374,41 c 0,-15 -41,-96 -49,-96 -11,0 -1,44 18,79 10,18 31,30 31,17 z m 86,-50 c 5,-27 0,-46 -22,-86 -47,-87 -75,-94 -55,-13 16,64 47,133 60,133 6,0 13,-15 17,-34 z m -3886,-26 c 27,-27 25,-38 -6,-52 -22,-11 -28,-10 -40,7 -37,50 2,89 46,45 z m 2449,-4 c 14,-17 5,-43 -21,-57 -28,-15 -44,8 -39,59 1,16 46,15 60,-2 z m -3230,-17 c 21,-23 71,-139 71,-165 0,-22 -109,-134 -131,-134 -22,0 -67,53 -75,88 -4,15 -19,50 -34,77 -35,62 -47,119 -30,140 9,11 34,15 96,15 72,0 86,-3 103,-21 z m 2105,-31 c -23,-77 -82,-153 -101,-134 -14,13 22,93 54,123 40,39 57,42 47,11 z m 2310,-23 c 32,-25 69,-45 82,-45 19,0 24,-5 24,-25 0,-14 -3,-25 -7,-25 -14,1 -167,115 -171,128 -7,22 14,13 72,-33 z m 107,-8 c -17,-17 -24,-1 -10,25 12,21 14,21 17,4 2,-10 -1,-23 -7,-29 z m -4034,-14 c 20,-30 6,-68 -32,-85 -22,-10 -28,-8 -44,9 -10,11 -33,25 -50,33 -34,13 -38,27 -18,53 30,42 114,36 144,-10 z m 3779,-38 c 8,-13 34,-35 57,-49 56,-33 110,-90 105,-111 -1,-10 -11,-23 -20,-29 -15,-9 -29,0 -89,59 -75,74 -98,109 -92,138 6,24 20,21 39,-8 z m -1663,-19 c 3,-7 9,-34 12,-60 6,-39 5,-46 -10,-46 -41,0 -94,88 -68,113 12,12 61,7 66,-7 z m 2304,-18 c -3,-7 -5,-2 -5,12 0,14 2,19 5,13 2,-7 2,-19 0,-25 z m -289,-60 c -12,-36 -38,-70 -38,-50 0,17 33,82 41,82 5,0 3,-15 -3,-32 z M 5721,973 c 10,-32 10,-38 -7,-50 -22,-16 -36,-17 -52,-1 -16,16 -15,39 4,66 22,32 41,27 55,-15 z m 2566,15 c -3,-8 -6,-5 -6,6 -1,11 2,17 5,13 3,-3 4,-12 1,-19 z M 6367,893 c -2,-10 -6,-22 -7,-28 -2,-5 0,-27 5,-48 5,-26 3,-46 -5,-63 -17,-30 -24,-30 -38,1 -19,41 -15,99 9,129 23,30 44,35 36,9 z m 2284,-66 c -19,-19 -23,0 -9,39 l 13,38 3,-33 c 2,-19 -1,-38 -7,-44 z m -211,-12 c 31,-16 50,-43 50,-71 0,-14 -7,-16 -45,-12 -50,6 -95,31 -95,53 0,18 27,45 46,45 8,0 28,-7 44,-15 z M 4460,770 c 11,-21 20,-46 20,-54 0,-25 -66,-37 -227,-43 -178,-7 -184,-3 -142,76 26,51 20,49 139,36 47,-5 76,-3 105,8 67,25 82,22 105,-23 z M 6368,657 c 2,-10 -3,-17 -11,-17 -16,0 -30,24 -19,34 10,10 27,1 30,-17 z"
       id="path4"
       inkscape:connector-curvature="0" />
    <path
       d="m 5979,11128 c -1,-7 0,-43 1,-80 1,-55 -2,-70 -19,-87 -12,-12 -30,-21 -40,-21 -32,0 -36,-22 -9,-44 21,-17 24,-24 14,-39 -9,-15 -6,-22 19,-43 91,-74 115,-112 115,-181 0,-71 -9,-73 -105,-25 -83,41 -135,53 -135,31 0,-5 23,-20 50,-31 71,-29 55,-34 -23,-6 -36,12 -69,19 -74,15 -4,-4 9,-23 29,-41 20,-18 48,-53 63,-77 16,-24 54,-72 86,-107 70,-74 101,-131 97,-175 -2,-27 -8,-33 -33,-37 -22,-4 -31,-11 -33,-28 -3,-23 -21,-29 -38,-13 -30,27 -174,54 -174,32 0,-5 15,-18 33,-30 28,-18 29,-21 10,-21 -12,0 -43,7 -68,16 -94,32 -128,-2 -40,-40 70,-31 148,-110 193,-193 37,-70 40,-98 13,-113 -11,-5 -76,-10 -145,-10 -72,0 -127,-4 -131,-10 -3,-5 -5,-10 -3,-10 79,-9 177,-36 237,-66 80,-39 181,-131 213,-191 9,-18 21,-33 27,-33 5,0 14,15 20,33 16,45 33,223 25,261 -11,51 -52,112 -146,217 -49,54 -84,99 -79,99 21,0 142,-124 176,-180 40,-66 60,-86 70,-71 3,6 10,59 15,117 11,148 30,160 30,21 0,-61 4,-107 9,-107 6,0 22,15 36,34 14,19 57,50 98,72 40,21 95,52 122,69 28,18 100,57 161,89 108,54 154,88 137,99 -5,3 -38,-7 -73,-23 -84,-37 -343,-112 -373,-108 -39,5 -32,40 29,128 74,109 244,432 233,444 -22,25 -159,-99 -267,-241 -34,-45 -75,-91 -92,-103 -31,-22 -31,-22 -24,-95 10,-105 -11,-105 -24,1 -6,46 -20,104 -30,128 -16,34 -17,46 -7,59 8,11 10,44 7,99 -6,119 14,90 33,-47 8,-60 19,-113 24,-118 5,-5 25,12 47,39 22,26 75,87 119,136 122,136 148,168 143,174 -7,7 -130,-59 -189,-101 -27,-19 -54,-35 -59,-35 -6,0 -10,26 -10,59 0,61 31,178 70,267 25,57 22,96 -6,73 -8,-7 -33,-44 -56,-83 -22,-39 -61,-101 -85,-137 -39,-58 -43,-69 -33,-93 12,-34 12,-36 0,-36 -5,0 -14,19 -21,43 -6,23 -17,54 -25,69 -12,22 -12,32 -2,47 12,19 13,19 25,-10 7,-17 17,-29 22,-27 11,3 141,216 141,230 0,14 -12,9 -67,-29 l -54,-37 -28,30 c -15,16 -40,62 -55,102 -25,65 -32,75 -69,92 -48,24 -47,23 -48,8 z m 16,-288 c 3,-5 1,-10 -4,-10 -6,0 -11,5 -11,10 0,6 2,10 4,10 3,0 8,-4 11,-10 z m 51,-348 c -4,-3 -14,2 -24,12 -16,18 -16,18 6,6 13,-6 21,-14 18,-18 z"
       id="path6"
       inkscape:connector-curvature="0" />
    <path
       d="m 5650,10751 c -11,-22 -13,-71 -4,-95 6,-17 44,-23 44,-7 0,24 34,41 82,41 62,0 60,15 -8,52 -59,33 -99,36 -114,9 z"
       id="path8"
       inkscape:connector-curvature="0" />
    <path
       d="m 6595,10069 c -161,-86 -209,-120 -322,-226 l -73,-68 -10,-169 c -6,-93 -8,-171 -5,-174 3,-3 25,4 50,16 24,12 124,51 222,87 242,88 268,102 268,140 0,34 11,32 -135,19 -68,-5 -77,-4 -97,15 -36,34 -29,64 27,126 28,30 50,65 50,76 0,38 40,88 119,148 42,32 82,66 90,75 31,37 -39,12 -184,-65 z"
       id="path10"
       inkscape:connector-curvature="0" />
    <path
       d="m 8773,9917 c -48,-18 -61,-34 -42,-52 13,-13 20,-12 62,15 69,44 58,65 -20,37 z"
       id="path12"
       inkscape:connector-curvature="0" />
    <path
       d="m 8550,9325 c 0,-8 7,-15 15,-15 8,0 15,7 15,15 0,8 -7,15 -15,15 -8,0 -15,-7 -15,-15 z"
       id="path14"
       inkscape:connector-curvature="0" />
    <path
       d="m 8430,9243 c -85,-45 -99,-56 -82,-67 11,-6 206,87 216,103 16,25 -54,7 -134,-36 z"
       id="path16"
       inkscape:connector-curvature="0" />
    <path
       d="m 7980,9081 c 0,-5 6,-13 13,-19 15,-13 42,1 33,17 -8,13 -46,15 -46,2 z"
       id="path18"
       inkscape:connector-curvature="0" />
    <path
       d="m 7346,9078 c -22,-32 -20,-62 7,-94 l 24,-27 32,24 c 29,21 42,23 134,23 83,-1 112,-5 155,-24 52,-22 71,-22 57,0 -12,19 -154,80 -234,101 -102,26 -155,25 -175,-3 z"
       id="path20"
       inkscape:connector-curvature="0" />
    <path
       d="m 9723,8187 c -26,-18 -103,-70 -169,-115 -180,-122 -216,-171 -49,-66 132,83 161,95 207,92 50,-4 67,-25 51,-61 -23,-51 -611,-417 -669,-417 -40,0 5,55 84,105 24,14 42,29 39,31 -7,7 -60,-21 -129,-68 -32,-21 -78,-47 -102,-57 -25,-11 -45,-27 -48,-39 -7,-27 18,-62 43,-62 24,0 108,41 169,84 25,17 97,58 161,92 63,33 192,108 285,166 93,58 197,119 232,137 34,17 62,36 62,41 0,5 -13,16 -30,25 -37,19 -56,48 -65,98 -4,20 -11,39 -15,42 -4,3 -30,-10 -57,-28 z"
       id="path22"
       inkscape:connector-curvature="0" />
    <path
       d="m 8827,7825 c -53,-68 -97,-131 -97,-139 0,-19 7,-23 51,-31 35,-6 36,-6 139,117 105,124 106,129 15,51 -90,-77 -113,-47 -44,56 69,104 38,77 -64,-54 z"
       id="path24"
       inkscape:connector-curvature="0" />
    <path
       d="m 8514,7867 c -34,-29 -81,-68 -105,-88 -38,-31 -42,-38 -31,-52 18,-22 114,-33 152,-17 19,8 37,28 51,56 23,49 20,74 -10,74 -31,0 -35,19 -10,46 41,44 15,33 -47,-19 z"
       id="path26"
       inkscape:connector-curvature="0" />
    <path
       d="m 9180,7081 c -109,-36 -238,-89 -271,-112 -15,-11 -30,-30 -33,-44 -7,-26 8,-65 23,-65 5,0 42,22 84,50 52,34 78,58 85,79 12,35 22,41 136,82 47,17 86,33 86,35 0,9 -28,2 -110,-25 z"
       id="path28"
       inkscape:connector-curvature="0" />
    <path
       d="m 3286,8662 c 34,-31 68,-51 75,-46 16,10 9,23 -21,39 -31,16 -71,21 -54,7 z"
       id="path30"
       inkscape:connector-curvature="0" />
    <path
       d="m 3390,8590 c 0,-15 27,-23 47,-16 15,6 15,8 3,16 -20,13 -50,12 -50,0 z"
       id="path32"
       inkscape:connector-curvature="0" />
    <path
       d="m 3595,8471 c -6,-11 9,-23 19,-14 9,9 7,23 -3,23 -6,0 -12,-4 -16,-9 z"
       id="path34"
       inkscape:connector-curvature="0" />
    <path
       d="m 3710,8372 c 0,-5 11,-19 25,-32 13,-12 39,-47 57,-76 18,-30 41,-57 53,-60 11,-4 28,-13 38,-22 31,-27 32,-3 1,31 -17,17 -43,52 -59,76 -41,60 -115,114 -115,83 z"
       id="path36"
       inkscape:connector-curvature="0" />
    <path
       d="m 3912,8108 c -6,-6 -12,-22 -12,-35 0,-18 6,-23 24,-23 32,0 53,26 39,48 -13,22 -35,26 -51,10 z"
       id="path38"
       inkscape:connector-curvature="0" />
    <path
       d="m 2389,7306 c 19,-20 39,-36 45,-36 13,0 -34,49 -59,62 -12,6 -6,-4 14,-26 z"
       id="path40"
       inkscape:connector-curvature="0" />
    <path
       d="m 2620,7192 c 38,-101 90,-188 90,-152 0,14 -74,160 -94,185 -13,16 -12,8 4,-33 z"
       id="path42"
       inkscape:connector-curvature="0" />
    <path
       d="m 2440,7005 c 7,-9 15,-13 17,-11 7,7 -7,26 -19,26 -6,0 -6,-6 2,-15 z"
       id="path44"
       inkscape:connector-curvature="0" />
    <path
       d="m 2480,6960 c 0,-5 5,-10 10,-10 6,0 10,5 10,10 0,6 -4,10 -10,10 -5,0 -10,-4 -10,-10 z"
       id="path46"
       inkscape:connector-curvature="0" />
    <path
       d="m 2535,6744 c 31,-26 105,-68 105,-60 0,8 -113,86 -124,86 -6,-1 3,-12 19,-26 z"
       id="path48"
       inkscape:connector-curvature="0" />
    <path
       d="m 2672,6648 c 5,-15 28,-23 28,-10 0,5 -7,13 -16,16 -10,4 -14,1 -12,-6 z"
       id="path50"
       inkscape:connector-curvature="0" />
    <path
       d="m 2520,6622 c 0,-14 11,-21 26,-15 8,3 11,9 8,14 -7,11 -34,12 -34,1 z"
       id="path52"
       inkscape:connector-curvature="0" />
    <path
       d="m 1102,4774 c 10,-10 20,-15 24,-12 3,4 -5,12 -18,18 -22,12 -22,12 -6,-6 z"
       id="path54"
       inkscape:connector-curvature="0" />
    <path
       d="m 2353,3857 c 30,-25 95,-52 104,-44 16,16 -68,67 -109,67 -23,-1 -22,-1 5,-23 z"
       id="path56"
       inkscape:connector-curvature="0" />
    <path
       d="m 3449,3864 c -11,-14 -10,-15 11,-12 13,1 25,9 28,16 5,17 -23,15 -39,-4 z"
       id="path58"
       inkscape:connector-curvature="0" />
    <path
       d="m 1800,3785 c 7,-8 26,-15 42,-15 26,0 29,2 18,15 -7,8 -26,15 -42,15 -26,0 -29,-2 -18,-15 z"
       id="path60"
       inkscape:connector-curvature="0" />
    <path
       d="m 1823,3653 c -18,-6 -16,-23 1,-23 17,0 30,16 19,23 -5,2 -14,2 -20,0 z"
       id="path62"
       inkscape:connector-curvature="0" />
    <path
       d="m 1566,3599 c 4,-24 8,-46 11,-48 8,-10 98,36 98,49 0,9 -14,17 -35,21 -19,4 -45,10 -58,14 -22,7 -22,6 -16,-36 z"
       id="path64"
       inkscape:connector-curvature="0" />
    <path
       d="m 1437,3296 c -9,-13 -26,-27 -37,-31 -28,-9 -25,-25 5,-25 14,0 30,9 37,20 7,11 19,20 26,20 16,0 12,32 -4,37 -6,2 -18,-7 -27,-21 z"
       id="path66"
       inkscape:connector-curvature="0" />
    <path
       d="m 1324,3229 c -10,-17 13,-36 27,-22 12,12 4,33 -11,33 -5,0 -12,-5 -16,-11 z"
       id="path68"
       inkscape:connector-curvature="0" />
    <path
       d="m 3066,2021 c -34,-35 -41,-61 -17,-61 14,0 81,73 81,87 0,24 -26,13 -64,-26 z"
       id="path70"
       inkscape:connector-curvature="0" />
    <path
       d="m 2867,1921 c -38,-15 -72,-33 -77,-41 -11,-17 6,-40 29,-40 22,0 164,82 169,98 6,20 -46,13 -121,-17 z"
       id="path72"
       inkscape:connector-curvature="0" />
    <path
       d="m 2775,8410 c -27,-7 -25,-8 18,-9 30,-1 46,3 42,9 -7,11 -16,11 -60,0 z"
       id="path74"
       inkscape:connector-curvature="0" />
    <path
       d="m 1086,4402 c -3,-6 -1,-14 5,-17 15,-10 25,3 12,16 -7,7 -13,7 -17,1 z"
       id="path76"
       inkscape:connector-curvature="0" />
    <path
       d="m 4075,2839 c -4,-6 -3,-15 3,-21 6,-6 11,-4 15,6 7,18 -9,31 -18,15 z"
       id="path78"
       inkscape:connector-curvature="0" />
    <path
       d="m 4077,2793 c -3,-5 -1,-17 4,-28 7,-17 8,-17 8,8 1,27 -4,34 -12,20 z"
       id="path80"
       inkscape:connector-curvature="0" />
    <path
       d="m 8370,2471 c 0,-26 155,-316 158,-296 1,11 -29,81 -67,154 -70,135 -91,167 -91,142 z"
       id="path82"
       inkscape:connector-curvature="0" />
  </g>
</svg>
