<?xml version="1.0" encoding="UTF-8"?>
<svg width="32" height="32" viewBox="0 0 48 48" version="1.1" xmlns="http://www.w3.org/2000/svg" xmlns:xlink="http://www.w3.org/1999/xlink">
    <!-- Generator: Sketch 63.1 (92452) - https://sketch.com -->
    <title>Shape</title>
    <desc>Created with Sketch.</desc>
    <g id="Page-1" stroke="none" stroke-width="1" fill="none" fill-rule="evenodd">
        <g id="xr" fill="#000000" fill-rule="nonzero">
            <path d="M43.5101082,24 C43.5268546,29.098389 41.5744048,34.0063821 38.06,37.7 L26.18,24 L38.06,10.37 C41.5585624,14.0455377 43.5098719,18.9256019 43.5101082,24 M23.65,4.16997325 C28.4284224,4.16486116 33.0468381,5.89143809 36.65,9.03 L10.65,9.03 C14.2517441,5.88905831 18.8710866,4.16213488 23.65,4.16997325 M9.24,10.37 L21.12,24 L9.24,37.7 C1.97515027,30.0383546 1.97515027,18.0316454 9.24,10.37 M23.65,21.12 L16.29,12.66 L31,12.66 L23.65,21.12 Z M23.65,26.94 L31,35.41 L16.29,35.41 L23.65,26.94 Z M23.65,43.9400267 C18.8710866,43.9478651 14.2517441,42.2209417 10.65,39.08 L36.65,39.08 C33.0468381,42.2185619 28.4284224,43.9451388 23.65,43.9400267 M47.1300341,24 C47.1134365,11.0362722 36.5937592,0.538969671 23.6300256,0.549999814 C10.6662919,0.561047354 0.164507159,11.07625 0.170019119,24.0399872 C0.17553542,37.0037244 10.6862616,47.5100021 23.65,47.5100021 C29.8833002,47.5126649 35.8616278,45.0356219 40.2664222,40.6251996 C44.6712166,36.2147773 47.140624,30.2332918 47.1300341,24" id="Shape"></path>
        </g>
    </g>
</svg>