<svg width="32" height="32" viewBox="0 0 48 48" xmlns="http://www.w3.org/2000/svg">
  <path d="M43.51 24a19.78 19.78 0 01-5.45 13.7L26.18 24l11.88-13.63A19.77 19.77 0 0143.51 24M23.65 4.17a19.76 19.76 0 0113 4.86h-26a19.73 19.73 0 0113-4.86m-14.41 6.2L21.12 24 9.24 37.7c-7.265-7.662-7.265-19.668 0-27.33m14.41 10.75l-7.36-8.46H31l-7.35 8.46zm0 5.82L31 35.41H16.29l7.36-8.47zm0 17a19.73 19.73 0 01-13-4.86h26a19.76 19.76 0 01-13 4.86M47.13 24C47.113 11.036 36.594.539 23.63.55 10.666.561.165 11.076.17 24.04c.006 12.964 10.516 23.47 23.48 23.47A23.47 23.47 0 0047.13 24" fill="#fff" fill-rule="nonzero"/>
</svg>